solid OpenSCAD_Model
  facet normal 0 0 1
    outer loop
      vertex -8.9 2.1 59.1
      vertex -10.1 2.1 59.1
      vertex -8.9 0.5 59.1
    endloop
  endfacet
  facet normal 0 0 1
    outer loop
      vertex 0 39.2 59.1
      vertex -1.6 37.1 59.1
      vertex 0 0 59.1
    endloop
  endfacet
  facet normal 0 0 1
    outer loop
      vertex 0 39.2 59.1
      vertex -10.1 37.1 59.1
      vertex -1.6 37.1 59.1
    endloop
  endfacet
  facet normal 0 0 1
    outer loop
      vertex -10.1 37.1 59.1
      vertex -11.7 39.2 59.1
      vertex -10.1 2.1 59.1
    endloop
  endfacet
  facet normal -0 0 1
    outer loop
      vertex -11.7 39.2 59.1
      vertex -10.1 37.1 59.1
      vertex 0 39.2 59.1
    endloop
  endfacet
  facet normal -0 0 1
    outer loop
      vertex -1.6 2.1 59.1
      vertex 0 0 59.1
      vertex -1.6 37.1 59.1
    endloop
  endfacet
  facet normal 0 0 1
    outer loop
      vertex -7.6 0.5 59.1
      vertex -1.6 2.1 59.1
      vertex -7.6 2.1 59.1
    endloop
  endfacet
  facet normal 0 0 1
    outer loop
      vertex -1.6 2.1 59.1
      vertex -7.6 0.5 59.1
      vertex 0 0 59.1
    endloop
  endfacet
  facet normal 0 0 1
    outer loop
      vertex -11.7 0 59.1
      vertex -7.6 0.5 59.1
      vertex -8.9 0.5 59.1
    endloop
  endfacet
  facet normal 0 0 1
    outer loop
      vertex -7.6 0.5 59.1
      vertex -11.7 0 59.1
      vertex 0 0 59.1
    endloop
  endfacet
  facet normal 0 0 1
    outer loop
      vertex -10.1 2.1 59.1
      vertex -11.7 0 59.1
      vertex -8.9 0.5 59.1
    endloop
  endfacet
  facet normal 0 0 1
    outer loop
      vertex -11.7 0 59.1
      vertex -10.1 2.1 59.1
      vertex -11.7 39.2 59.1
    endloop
  endfacet
  facet normal -1 0 0
    outer loop
      vertex -11.7 39.2 0
      vertex -11.7 37.1 48.6
      vertex -11.7 39.2 59.1
    endloop
  endfacet
  facet normal -1 0 0
    outer loop
      vertex -11.7 39.2 0
      vertex -11.7 31.1 18.6
      vertex -11.7 37.1 48.6
    endloop
  endfacet
  facet normal -1 0 0
    outer loop
      vertex -11.7 39.2 0
      vertex -11.7 31.0511 18.291
      vertex -11.7 31.1 18.6
    endloop
  endfacet
  facet normal -1 0 0
    outer loop
      vertex -11.7 39.2 0
      vertex -11.7 30.909 18.0122
      vertex -11.7 31.0511 18.291
    endloop
  endfacet
  facet normal -1 0 0
    outer loop
      vertex -11.7 39.2 0
      vertex -11.7 30.6878 17.791
      vertex -11.7 30.909 18.0122
    endloop
  endfacet
  facet normal -1 0 0
    outer loop
      vertex -11.7 39.2 0
      vertex -11.7 30.409 17.6489
      vertex -11.7 30.6878 17.791
    endloop
  endfacet
  facet normal -1 0 0
    outer loop
      vertex -11.7 39.2 0
      vertex -11.7 30.1 17.6
      vertex -11.7 30.409 17.6489
    endloop
  endfacet
  facet normal -1 0 0
    outer loop
      vertex -11.7 39.2 0
      vertex -11.7 29.791 17.6489
      vertex -11.7 30.1 17.6
    endloop
  endfacet
  facet normal -1 0 0
    outer loop
      vertex -11.7 19.7545 17.1245
      vertex -11.7 29.791 17.6489
      vertex -11.7 39.2 0
    endloop
  endfacet
  facet normal -1 0 -0
    outer loop
      vertex -11.7 19.8939 17.1955
      vertex -11.7 29.791 17.6489
      vertex -11.7 19.7545 17.1245
    endloop
  endfacet
  facet normal -1 0 0
    outer loop
      vertex -11.7 19.8939 18.0045
      vertex -11.7 29.291 19.1878
      vertex -11.7 20.0045 17.8939
    endloop
  endfacet
  facet normal -1 -0 0
    outer loop
      vertex -11.7 29.1489 18.909
      vertex -11.7 20.0045 17.8939
      vertex -11.7 29.291 19.1878
    endloop
  endfacet
  facet normal -1 -0 0
    outer loop
      vertex -11.7 29.1489 18.291
      vertex -11.7 20.1 17.6
      vertex -11.7 29.1 18.6
    endloop
  endfacet
  facet normal -1 0 0
    outer loop
      vertex -11.7 20.0755 17.4455
      vertex -11.7 29.1489 18.291
      vertex -11.7 29.291 18.0122
    endloop
  endfacet
  facet normal -1 -0 0
    outer loop
      vertex -11.7 29.791 17.6489
      vertex -11.7 19.8939 17.1955
      vertex -11.7 29.5122 17.791
    endloop
  endfacet
  facet normal -1 0 0
    outer loop
      vertex -11.7 29.1489 18.291
      vertex -11.7 20.0755 17.4455
      vertex -11.7 20.1 17.6
    endloop
  endfacet
  facet normal -1 0 0
    outer loop
      vertex -11.7 29.291 18.0122
      vertex -11.7 20.0045 17.3061
      vertex -11.7 20.0755 17.4455
    endloop
  endfacet
  facet normal -1 -0 0
    outer loop
      vertex -11.7 29.5122 17.791
      vertex -11.7 20.0045 17.3061
      vertex -11.7 29.291 18.0122
    endloop
  endfacet
  facet normal -1 0 -0
    outer loop
      vertex -11.7 20.0045 17.3061
      vertex -11.7 29.5122 17.791
      vertex -11.7 19.8939 17.1955
    endloop
  endfacet
  facet normal -1 0 0
    outer loop
      vertex -11.7 8.1 6.6
      vertex -11.7 19.7545 17.1245
      vertex -11.7 39.2 0
    endloop
  endfacet
  facet normal -1 0 0
    outer loop
      vertex -11.7 19.7545 17.1245
      vertex -11.7 8.1 6.6
      vertex -11.7 19.6 17.1
    endloop
  endfacet
  facet normal -1 -0 0
    outer loop
      vertex -11.7 19.6 17.1
      vertex -11.7 8.1 6.6
      vertex -11.7 19.4455 17.1245
    endloop
  endfacet
  facet normal -1 0 0
    outer loop
      vertex -11.7 8.1 6.6
      vertex -11.7 19.1 17.6
      vertex -11.7 19.1245 17.4455
    endloop
  endfacet
  facet normal -1 0 0
    outer loop
      vertex -11.7 19.1 17.6
      vertex -11.7 13.6 33.6
      vertex -11.7 13.6 34.6
    endloop
  endfacet
  facet normal -1 0 0
    outer loop
      vertex -11.7 19.1 17.6
      vertex -11.7 8.1 28.6
      vertex -11.7 13.6 33.6
    endloop
  endfacet
  facet normal -1 -0 0
    outer loop
      vertex -11.7 13.6 33.6
      vertex -11.7 8.1 28.6
      vertex -11.7 11.6 33.6
    endloop
  endfacet
  facet normal -1 -0 0
    outer loop
      vertex -11.7 19.1 17.6
      vertex -11.7 8.1 6.6
      vertex -11.7 8.1 28.6
    endloop
  endfacet
  facet normal -1 -0 0
    outer loop
      vertex -11.7 19.1955 17.3061
      vertex -11.7 8.1 6.6
      vertex -11.7 19.1245 17.4455
    endloop
  endfacet
  facet normal -1 -0 0
    outer loop
      vertex -11.7 19.3061 17.1955
      vertex -11.7 8.1 6.6
      vertex -11.7 19.1955 17.3061
    endloop
  endfacet
  facet normal -1 -0 0
    outer loop
      vertex -11.7 19.4455 17.1245
      vertex -11.7 8.1 6.6
      vertex -11.7 19.3061 17.1955
    endloop
  endfacet
  facet normal -1 0 0
    outer loop
      vertex -11.7 0 0
      vertex -11.7 8.1 6.6
      vertex -11.7 39.2 0
    endloop
  endfacet
  facet normal -1 -0 0
    outer loop
      vertex -11.7 8.1 6.6
      vertex -11.7 0 0
      vertex -11.7 0 6.6
    endloop
  endfacet
  facet normal -1 0 0
    outer loop
      vertex -11.7 37.1 50.6
      vertex -11.7 39.2 59.1
      vertex -11.7 37.1 48.6
    endloop
  endfacet
  facet normal -1 0 0
    outer loop
      vertex -11.7 25.1 50.6
      vertex -11.7 39.2 59.1
      vertex -11.7 37.1 50.6
    endloop
  endfacet
  facet normal -1 -0 0
    outer loop
      vertex -11.7 29.291 19.1878
      vertex -11.7 19.8939 18.0045
      vertex -11.7 29.5122 19.409
    endloop
  endfacet
  facet normal -1 0 0
    outer loop
      vertex -11.7 19.7545 18.0755
      vertex -11.7 29.5122 19.409
      vertex -11.7 19.8939 18.0045
    endloop
  endfacet
  facet normal -1 -0 0
    outer loop
      vertex -11.7 29.5122 19.409
      vertex -11.7 19.7545 18.0755
      vertex -11.7 25.1 48.6
    endloop
  endfacet
  facet normal -1 0 0
    outer loop
      vertex -11.7 19.6 18.1
      vertex -11.7 25.1 48.6
      vertex -11.7 19.7545 18.0755
    endloop
  endfacet
  facet normal -1 0 0
    outer loop
      vertex -11.7 14.1 48.6
      vertex -11.7 25.1 48.6
      vertex -11.7 19.6 18.1
    endloop
  endfacet
  facet normal -1 0 0
    outer loop
      vertex -11.7 14.1 48.6
      vertex -11.7 19.6 18.1
      vertex -11.7 19.4455 18.0755
    endloop
  endfacet
  facet normal -1 0 0
    outer loop
      vertex -11.7 14.1 48.6
      vertex -11.7 19.4455 18.0755
      vertex -11.7 19.3061 18.0045
    endloop
  endfacet
  facet normal -1 0 0
    outer loop
      vertex -11.7 14.1 48.6
      vertex -11.7 19.3061 18.0045
      vertex -11.7 19.1955 17.8939
    endloop
  endfacet
  facet normal -1 0 0
    outer loop
      vertex -11.7 14.1 48.6
      vertex -11.7 19.1955 17.8939
      vertex -11.7 19.1245 17.7545
    endloop
  endfacet
  facet normal -1 0 0
    outer loop
      vertex -11.7 14.1 48.6
      vertex -11.7 19.1245 17.7545
      vertex -11.7 19.1 17.6
    endloop
  endfacet
  facet normal -1 0 0
    outer loop
      vertex -11.7 25.1 48.6
      vertex -11.7 14.1 48.6
      vertex -11.7 25.1 50.6
    endloop
  endfacet
  facet normal -1 0 0
    outer loop
      vertex -11.7 14.1 50.6
      vertex -11.7 25.1 50.6
      vertex -11.7 14.1 48.6
    endloop
  endfacet
  facet normal -1 0 0
    outer loop
      vertex -11.7 25.1 50.6
      vertex -11.7 14.1 50.6
      vertex -11.7 39.2 59.1
    endloop
  endfacet
  facet normal -1 0 0
    outer loop
      vertex -11.7 0 59.1
      vertex -11.7 14.1 50.6
      vertex -11.7 2.1 50.6
    endloop
  endfacet
  facet normal -1 0 0
    outer loop
      vertex -11.7 0 37.4748
      vertex -11.7 2.1 48.6
      vertex -11.7 0.665332 37.433
    endloop
  endfacet
  facet normal -1 0 0
    outer loop
      vertex -11.7 0 59.1
      vertex -11.7 2.1 48.6
      vertex -11.7 0 37.4748
    endloop
  endfacet
  facet normal -1 0 0
    outer loop
      vertex -11.7 14.1 50.6
      vertex -11.7 0 59.1
      vertex -11.7 39.2 59.1
    endloop
  endfacet
  facet normal -1 0 0
    outer loop
      vertex -11.7 2.1 48.6
      vertex -11.7 0 59.1
      vertex -11.7 2.1 50.6
    endloop
  endfacet
  facet normal -1 0 0
    outer loop
      vertex -11.7 31.0511 18.909
      vertex -11.7 37.1 48.6
      vertex -11.7 31.1 18.6
    endloop
  endfacet
  facet normal -1 0 0
    outer loop
      vertex -11.7 30.909 19.1878
      vertex -11.7 37.1 48.6
      vertex -11.7 31.0511 18.909
    endloop
  endfacet
  facet normal -1 0 0
    outer loop
      vertex -11.7 30.6878 19.409
      vertex -11.7 37.1 48.6
      vertex -11.7 30.909 19.1878
    endloop
  endfacet
  facet normal -1 0 0
    outer loop
      vertex -11.7 30.409 19.5511
      vertex -11.7 37.1 48.6
      vertex -11.7 30.6878 19.409
    endloop
  endfacet
  facet normal -1 0 0
    outer loop
      vertex -11.7 30.1 19.6
      vertex -11.7 37.1 48.6
      vertex -11.7 30.409 19.5511
    endloop
  endfacet
  facet normal -1 0 0
    outer loop
      vertex -11.7 25.1 48.6
      vertex -11.7 30.1 19.6
      vertex -11.7 29.791 19.5511
    endloop
  endfacet
  facet normal -1 0 0
    outer loop
      vertex -11.7 25.1 48.6
      vertex -11.7 29.791 19.5511
      vertex -11.7 29.5122 19.409
    endloop
  endfacet
  facet normal -1 0 0
    outer loop
      vertex -11.7 20.0045 17.8939
      vertex -11.7 29.1489 18.909
      vertex -11.7 20.0755 17.7545
    endloop
  endfacet
  facet normal -1 -0 0
    outer loop
      vertex -11.7 29.1 18.6
      vertex -11.7 20.0755 17.7545
      vertex -11.7 29.1489 18.909
    endloop
  endfacet
  facet normal -1 0 0
    outer loop
      vertex -11.7 30.1 19.6
      vertex -11.7 25.1 48.6
      vertex -11.7 37.1 48.6
    endloop
  endfacet
  facet normal -1 0 0
    outer loop
      vertex -11.7 20.0755 17.7545
      vertex -11.7 29.1 18.6
      vertex -11.7 20.1 17.6
    endloop
  endfacet
  facet normal -1 0 0
    outer loop
      vertex -11.7 19.1 17.6
      vertex -11.7 13.6 34.6
      vertex -11.7 14.1 48.6
    endloop
  endfacet
  facet normal -1 0 0
    outer loop
      vertex -11.7 11.6 34.6
      vertex -11.7 14.1 48.6
      vertex -11.7 13.6 34.6
    endloop
  endfacet
  facet normal -1 0 0
    outer loop
      vertex -11.7 8.08323 29.5337
      vertex -11.7 11.6 33.6
      vertex -11.7 8.1 28.6
    endloop
  endfacet
  facet normal -1 0 0
    outer loop
      vertex -11.7 7.94944 30.5927
      vertex -11.7 11.6 33.6
      vertex -11.7 8.08323 29.5337
    endloop
  endfacet
  facet normal -1 0 0
    outer loop
      vertex -11.7 8.08323 29.5337
      vertex -11.7 8.1 28.6
      vertex -11.7 8.08323 28.6
    endloop
  endfacet
  facet normal -1 0 0
    outer loop
      vertex -11.7 7.68398 31.6266
      vertex -11.7 11.6 33.6
      vertex -11.7 7.94944 30.5927
    endloop
  endfacet
  facet normal -1 0 0
    outer loop
      vertex -11.7 7.29103 32.6191
      vertex -11.7 11.6 33.6
      vertex -11.7 7.68398 31.6266
    endloop
  endfacet
  facet normal -1 -0 0
    outer loop
      vertex -11.7 11.6 33.6
      vertex -11.7 7.29103 32.6191
      vertex -11.7 11.6 34.6
    endloop
  endfacet
  facet normal -1 0 0
    outer loop
      vertex -11.7 6.77679 33.5545
      vertex -11.7 11.6 34.6
      vertex -11.7 7.29103 32.6191
    endloop
  endfacet
  facet normal -1 0 0
    outer loop
      vertex -11.7 6.14936 34.4181
      vertex -11.7 11.6 34.6
      vertex -11.7 6.77679 33.5545
    endloop
  endfacet
  facet normal -1 0 0
    outer loop
      vertex -11.7 5.41865 35.1962
      vertex -11.7 11.6 34.6
      vertex -11.7 6.14936 34.4181
    endloop
  endfacet
  facet normal -1 0 0
    outer loop
      vertex -11.7 4.59617 35.8766
      vertex -11.7 11.6 34.6
      vertex -11.7 5.41865 35.1962
    endloop
  endfacet
  facet normal -1 0 0
    outer loop
      vertex -11.7 11.6 34.6
      vertex -11.7 4.59617 35.8766
      vertex -11.7 14.1 48.6
    endloop
  endfacet
  facet normal -1 0 0
    outer loop
      vertex -11.7 3.69491 36.4486
      vertex -11.7 14.1 48.6
      vertex -11.7 4.59617 35.8766
    endloop
  endfacet
  facet normal -1 0 0
    outer loop
      vertex -11.7 2.1 48.6
      vertex -11.7 3.69491 36.4486
      vertex -11.7 2.72906 36.9031
    endloop
  endfacet
  facet normal -1 0 0
    outer loop
      vertex -11.7 3.69491 36.4486
      vertex -11.7 2.1 48.6
      vertex -11.7 14.1 48.6
    endloop
  endfacet
  facet normal -1 0 0
    outer loop
      vertex -11.7 0.665332 37.433
      vertex -11.7 2.1 48.6
      vertex -11.7 1.71386 37.233
    endloop
  endfacet
  facet normal -1 0 0
    outer loop
      vertex -11.7 1.71386 37.233
      vertex -11.7 2.1 48.6
      vertex -11.7 2.72906 36.9031
    endloop
  endfacet
  facet normal 1 0 0
    outer loop
      vertex 0 37.1 48.6
      vertex 0 39.2 59.1
      vertex 0 37.1 50.6
    endloop
  endfacet
  facet normal 1 0 0
    outer loop
      vertex 0 39.2 59.1
      vertex 0 25.1 50.6
      vertex 0 37.1 50.6
    endloop
  endfacet
  facet normal 1 0 0
    outer loop
      vertex 0 25.1 50.6
      vertex 0 14.1 50.6
      vertex 0 25.1 48.6
    endloop
  endfacet
  facet normal 1 0 0
    outer loop
      vertex 0 39.2 59.1
      vertex 0 14.1 50.6
      vertex 0 25.1 50.6
    endloop
  endfacet
  facet normal 1 -0 0
    outer loop
      vertex 0 0 59.1
      vertex 0 14.1 50.6
      vertex 0 39.2 59.1
    endloop
  endfacet
  facet normal 1 0 0
    outer loop
      vertex 0 2.1 50.6
      vertex 0 0 59.1
      vertex 0 2.1 48.6
    endloop
  endfacet
  facet normal 1 0 0
    outer loop
      vertex 0 14.1 50.6
      vertex 0 0 59.1
      vertex 0 2.1 50.6
    endloop
  endfacet
  facet normal 1 0 0
    outer loop
      vertex 0 39.2 59.1
      vertex 0 37.1 48.6
      vertex 0 39.2 0
    endloop
  endfacet
  facet normal 1 -0 0
    outer loop
      vertex 0 25.1 48.6
      vertex 0 39.2 0
      vertex 0 37.1 48.6
    endloop
  endfacet
  facet normal 1 0 0
    outer loop
      vertex 0 14.1 48.6
      vertex 0 25.1 48.6
      vertex 0 14.1 50.6
    endloop
  endfacet
  facet normal 1 0 0
    outer loop
      vertex 0 25.1 48.6
      vertex 0 14.1 48.6
      vertex 0 39.2 0
    endloop
  endfacet
  facet normal 1 0 0
    outer loop
      vertex 0 0 0
      vertex 0 14.1 48.6
      vertex 0 2.1 48.6
    endloop
  endfacet
  facet normal 1 0 0
    outer loop
      vertex 0 14.1 48.6
      vertex 0 0 0
      vertex 0 39.2 0
    endloop
  endfacet
  facet normal 1 0 0
    outer loop
      vertex 0 0 0
      vertex 0 2.1 48.6
      vertex 0 0 59.1
    endloop
  endfacet
  facet normal 0 0 -1
    outer loop
      vertex -11.7 0 0
      vertex 0 39.2 0
      vertex 0 0 0
    endloop
  endfacet
  facet normal -0 0 -1
    outer loop
      vertex 0 39.2 0
      vertex -11.7 0 0
      vertex -11.7 39.2 0
    endloop
  endfacet
  facet normal 0 1 -0
    outer loop
      vertex 0 39.2 0
      vertex -11.7 39.2 59.1
      vertex 0 39.2 59.1
    endloop
  endfacet
  facet normal 0 1 0
    outer loop
      vertex -11.7 39.2 59.1
      vertex 0 39.2 0
      vertex -11.7 39.2 0
    endloop
  endfacet
  facet normal 0 -1 0
    outer loop
      vertex -11.7 0 0
      vertex -6.6 0 6.6
      vertex -11.7 0 6.6
    endloop
  endfacet
  facet normal 0 -1 -0
    outer loop
      vertex -6.6 0 6.6
      vertex -11.7 0 0
      vertex -5.6 0 6.6
    endloop
  endfacet
  facet normal 0 -1 0
    outer loop
      vertex -5.6 0 37.6
      vertex -11.7 0 59.1
      vertex -10.1 0 37.6
    endloop
  endfacet
  facet normal 0 -1 0
    outer loop
      vertex -11.7 0 37.4748
      vertex -10.1 0 37.6
      vertex -11.7 0 59.1
    endloop
  endfacet
  facet normal 0 -1 -0
    outer loop
      vertex -10.1 0 37.6
      vertex -11.7 0 37.4748
      vertex -10.1 0 37.4748
    endloop
  endfacet
  facet normal 0 -1 0
    outer loop
      vertex -11.7 0 59.1
      vertex -5.6 0 37.6
      vertex 0 0 59.1
    endloop
  endfacet
  facet normal 0 -1 0
    outer loop
      vertex 0 0 0
      vertex -5.6 0 37.6
      vertex -5.6 0 6.6
    endloop
  endfacet
  facet normal 0 -1 0
    outer loop
      vertex -5.6 0 37.6
      vertex 0 0 0
      vertex 0 0 59.1
    endloop
  endfacet
  facet normal 0 -1 0
    outer loop
      vertex 0 0 0
      vertex -5.6 0 6.6
      vertex -11.7 0 0
    endloop
  endfacet
  facet normal 1 0 0
    outer loop
      vertex -10.1 14.1 48.6
      vertex -10.1 11.6 34.6
      vertex -10.1 13.6 34.6
    endloop
  endfacet
  facet normal 1 0 0
    outer loop
      vertex -10.1 7.29103 32.6191
      vertex -10.1 11.6 33.6
      vertex -10.1 11.6 34.6
    endloop
  endfacet
  facet normal 1 -0 0
    outer loop
      vertex -10.1 4.59617 35.8766
      vertex -10.1 11.6 34.6
      vertex -10.1 14.1 48.6
    endloop
  endfacet
  facet normal 1 0 0
    outer loop
      vertex -10.1 11.6 33.6
      vertex -10.1 8.08323 29.5337
      vertex -10.1 8.1 28.6
    endloop
  endfacet
  facet normal 1 0 0
    outer loop
      vertex -10.1 11.6 33.6
      vertex -10.1 7.94944 30.5927
      vertex -10.1 8.08323 29.5337
    endloop
  endfacet
  facet normal 1 0 0
    outer loop
      vertex -10.1 11.6 33.6
      vertex -10.1 7.68398 31.6266
      vertex -10.1 7.94944 30.5927
    endloop
  endfacet
  facet normal 1 0 0
    outer loop
      vertex -10.1 11.6 33.6
      vertex -10.1 7.29103 32.6191
      vertex -10.1 7.68398 31.6266
    endloop
  endfacet
  facet normal 1 0 0
    outer loop
      vertex -10.1 11.6 34.6
      vertex -10.1 6.77679 33.5545
      vertex -10.1 7.29103 32.6191
    endloop
  endfacet
  facet normal 1 0 0
    outer loop
      vertex -10.1 11.6 34.6
      vertex -10.1 6.14936 34.4181
      vertex -10.1 6.77679 33.5545
    endloop
  endfacet
  facet normal 1 0 0
    outer loop
      vertex -10.1 11.6 34.6
      vertex -10.1 5.41865 35.1962
      vertex -10.1 6.14936 34.4181
    endloop
  endfacet
  facet normal 1 0 0
    outer loop
      vertex -10.1 11.6 34.6
      vertex -10.1 4.59617 35.8766
      vertex -10.1 5.41865 35.1962
    endloop
  endfacet
  facet normal 1 0 0
    outer loop
      vertex -10.1 14.1 48.6
      vertex -10.1 3.69491 36.4486
      vertex -10.1 4.59617 35.8766
    endloop
  endfacet
  facet normal 1 -0 0
    outer loop
      vertex -10.1 2.1 48.6
      vertex -10.1 3.69491 36.4486
      vertex -10.1 14.1 48.6
    endloop
  endfacet
  facet normal 1 0 0
    outer loop
      vertex -10.1 3.69491 36.4486
      vertex -10.1 2.1 48.6
      vertex -10.1 2.1 37.6
    endloop
  endfacet
  facet normal 1 0 0
    outer loop
      vertex -10.1 3.69491 36.4486
      vertex -10.1 2.1 37.6
      vertex -10.1 2.72906 36.9031
    endloop
  endfacet
  facet normal 1 0 0
    outer loop
      vertex -10.1 2.1 37.6
      vertex -10.1 1.71386 37.233
      vertex -10.1 2.72906 36.9031
    endloop
  endfacet
  facet normal 1 0 0
    outer loop
      vertex -10.1 2.1 37.6
      vertex -10.1 0.665332 37.433
      vertex -10.1 1.71386 37.233
    endloop
  endfacet
  facet normal 1 -0 0
    outer loop
      vertex -10.1 0 37.6
      vertex -10.1 0.665332 37.433
      vertex -10.1 2.1 37.6
    endloop
  endfacet
  facet normal 1 0 0
    outer loop
      vertex -10.1 0.665332 37.433
      vertex -10.1 0 37.6
      vertex -10.1 0 37.4748
    endloop
  endfacet
  facet normal 1 0 0
    outer loop
      vertex -10.1 37.1 59.1
      vertex -10.1 25.1 50.6
      vertex -10.1 37.1 50.6
    endloop
  endfacet
  facet normal 1 0 0
    outer loop
      vertex -10.1 14.1 48.6
      vertex -10.1 25.1 48.6
      vertex -10.1 25.1 50.6
    endloop
  endfacet
  facet normal 1 0 0
    outer loop
      vertex -10.1 25.1 48.6
      vertex -10.1 20.0755 17.7545
      vertex -10.1 20.1 17.6
    endloop
  endfacet
  facet normal 1 0 0
    outer loop
      vertex -10.1 25.1 48.6
      vertex -10.1 20.0045 17.8939
      vertex -10.1 20.0755 17.7545
    endloop
  endfacet
  facet normal 1 0 0
    outer loop
      vertex -10.1 25.1 48.6
      vertex -10.1 19.8939 18.0045
      vertex -10.1 20.0045 17.8939
    endloop
  endfacet
  facet normal 1 0 0
    outer loop
      vertex -10.1 25.1 48.6
      vertex -10.1 13.6 33.6
      vertex -10.1 19.8939 18.0045
    endloop
  endfacet
  facet normal 1 0 0
    outer loop
      vertex -10.1 19.8939 18.0045
      vertex -10.1 13.6 33.6
      vertex -10.1 19.7545 18.0755
    endloop
  endfacet
  facet normal 1 0 0
    outer loop
      vertex -10.1 19.7545 18.0755
      vertex -10.1 13.6 33.6
      vertex -10.1 19.6 18.1
    endloop
  endfacet
  facet normal 1 0 0
    outer loop
      vertex -10.1 19.6 18.1
      vertex -10.1 13.6 33.6
      vertex -10.1 19.4455 18.0755
    endloop
  endfacet
  facet normal 1 -0 0
    outer loop
      vertex -10.1 8.1 28.6
      vertex -10.1 19.4455 18.0755
      vertex -10.1 13.6 33.6
    endloop
  endfacet
  facet normal 1 0 0
    outer loop
      vertex -10.1 19.4455 18.0755
      vertex -10.1 8.1 28.6
      vertex -10.1 19.3061 18.0045
    endloop
  endfacet
  facet normal 1 0 0
    outer loop
      vertex -10.1 25.1 48.6
      vertex -10.1 14.1 48.6
      vertex -10.1 13.6 34.6
    endloop
  endfacet
  facet normal 1 0 0
    outer loop
      vertex -10.1 14.1 48.6
      vertex -10.1 25.1 50.6
      vertex -10.1 14.1 50.6
    endloop
  endfacet
  facet normal 1 0 0
    outer loop
      vertex -10.1 37.1 59.1
      vertex -10.1 14.1 50.6
      vertex -10.1 25.1 50.6
    endloop
  endfacet
  facet normal 1 -0 0
    outer loop
      vertex -10.1 2.1 59.1
      vertex -10.1 14.1 50.6
      vertex -10.1 37.1 59.1
    endloop
  endfacet
  facet normal 1 0 0
    outer loop
      vertex -10.1 14.1 50.6
      vertex -10.1 2.1 59.1
      vertex -10.1 2.1 50.6
    endloop
  endfacet
  facet normal 1 0 0
    outer loop
      vertex -10.1 8.1 28.6
      vertex -10.1 8.08323 29.5337
      vertex -10.1 8.08323 28.6
    endloop
  endfacet
  facet normal 1 0 0
    outer loop
      vertex -10.1 37.1 48.6
      vertex -10.1 31.1 18.6
      vertex -10.1 37.1 1.6
    endloop
  endfacet
  facet normal 1 0 0
    outer loop
      vertex -10.1 37.1 48.6
      vertex -10.1 31.0511 18.909
      vertex -10.1 31.1 18.6
    endloop
  endfacet
  facet normal 1 0 0
    outer loop
      vertex -10.1 37.1 48.6
      vertex -10.1 30.909 19.1878
      vertex -10.1 31.0511 18.909
    endloop
  endfacet
  facet normal 1 0 0
    outer loop
      vertex -10.1 37.1 48.6
      vertex -10.1 30.6878 19.409
      vertex -10.1 30.909 19.1878
    endloop
  endfacet
  facet normal 1 0 0
    outer loop
      vertex -10.1 37.1 48.6
      vertex -10.1 30.409 19.5511
      vertex -10.1 30.6878 19.409
    endloop
  endfacet
  facet normal 1 0 0
    outer loop
      vertex -10.1 37.1 48.6
      vertex -10.1 30.1 19.6
      vertex -10.1 30.409 19.5511
    endloop
  endfacet
  facet normal 1 -0 0
    outer loop
      vertex -10.1 25.1 48.6
      vertex -10.1 30.1 19.6
      vertex -10.1 37.1 48.6
    endloop
  endfacet
  facet normal 1 0 0
    outer loop
      vertex -10.1 30.1 19.6
      vertex -10.1 25.1 48.6
      vertex -10.1 29.791 19.5511
    endloop
  endfacet
  facet normal 1 0 0
    outer loop
      vertex -10.1 29.791 19.5511
      vertex -10.1 25.1 48.6
      vertex -10.1 29.5122 19.409
    endloop
  endfacet
  facet normal 1 0 0
    outer loop
      vertex -10.1 20.1 17.6
      vertex -10.1 29.5122 19.409
      vertex -10.1 25.1 48.6
    endloop
  endfacet
  facet normal 1 0 0
    outer loop
      vertex -10.1 29.291 19.1878
      vertex -10.1 20.1 17.6
      vertex -10.1 29.1489 18.909
    endloop
  endfacet
  facet normal 1 0 0
    outer loop
      vertex -10.1 29.5122 19.409
      vertex -10.1 20.1 17.6
      vertex -10.1 29.291 19.1878
    endloop
  endfacet
  facet normal 1 -0 0
    outer loop
      vertex -10.1 31.0511 18.291
      vertex -10.1 37.1 1.6
      vertex -10.1 31.1 18.6
    endloop
  endfacet
  facet normal 1 -0 0
    outer loop
      vertex -10.1 30.909 18.0122
      vertex -10.1 37.1 1.6
      vertex -10.1 31.0511 18.291
    endloop
  endfacet
  facet normal 1 -0 0
    outer loop
      vertex -10.1 30.6878 17.791
      vertex -10.1 37.1 1.6
      vertex -10.1 30.909 18.0122
    endloop
  endfacet
  facet normal 1 -0 0
    outer loop
      vertex -10.1 30.409 17.6489
      vertex -10.1 37.1 1.6
      vertex -10.1 30.6878 17.791
    endloop
  endfacet
  facet normal 1 -0 0
    outer loop
      vertex -10.1 30.1 17.6
      vertex -10.1 37.1 1.6
      vertex -10.1 30.409 17.6489
    endloop
  endfacet
  facet normal 1 0 0
    outer loop
      vertex -10.1 29.791 17.6489
      vertex -10.1 37.1 1.6
      vertex -10.1 30.1 17.6
    endloop
  endfacet
  facet normal 1 0 0
    outer loop
      vertex -10.1 19.8939 17.1955
      vertex -10.1 29.791 17.6489
      vertex -10.1 29.5122 17.791
    endloop
  endfacet
  facet normal 1 0 0
    outer loop
      vertex -10.1 20.0045 17.3061
      vertex -10.1 29.5122 17.791
      vertex -10.1 29.291 18.0122
    endloop
  endfacet
  facet normal 1 0 0
    outer loop
      vertex -10.1 20.0755 17.4455
      vertex -10.1 29.291 18.0122
      vertex -10.1 29.1489 18.291
    endloop
  endfacet
  facet normal 1 0 0
    outer loop
      vertex -10.1 29.1489 18.909
      vertex -10.1 20.1 17.6
      vertex -10.1 29.1 18.6
    endloop
  endfacet
  facet normal 1 0 0
    outer loop
      vertex -10.1 20.1 17.6
      vertex -10.1 29.1489 18.291
      vertex -10.1 29.1 18.6
    endloop
  endfacet
  facet normal 1 0 0
    outer loop
      vertex -10.1 20.0755 17.4455
      vertex -10.1 29.1489 18.291
      vertex -10.1 20.1 17.6
    endloop
  endfacet
  facet normal 1 0 0
    outer loop
      vertex -10.1 29.291 18.0122
      vertex -10.1 20.0755 17.4455
      vertex -10.1 20.0045 17.3061
    endloop
  endfacet
  facet normal 1 0 0
    outer loop
      vertex -10.1 29.5122 17.791
      vertex -10.1 20.0045 17.3061
      vertex -10.1 19.8939 17.1955
    endloop
  endfacet
  facet normal 1 0 0
    outer loop
      vertex -10.1 19.7545 17.1245
      vertex -10.1 29.791 17.6489
      vertex -10.1 19.8939 17.1955
    endloop
  endfacet
  facet normal 1 0 0
    outer loop
      vertex -10.1 29.791 17.6489
      vertex -10.1 19.7545 17.1245
      vertex -10.1 37.1 1.6
    endloop
  endfacet
  facet normal 1 0 0
    outer loop
      vertex -10.1 8.1 6.6
      vertex -10.1 19.7545 17.1245
      vertex -10.1 19.6 17.1
    endloop
  endfacet
  facet normal 1 0 0
    outer loop
      vertex -10.1 8.1 6.6
      vertex -10.1 19.6 17.1
      vertex -10.1 19.4455 17.1245
    endloop
  endfacet
  facet normal 1 0 0
    outer loop
      vertex -10.1 8.1 6.6
      vertex -10.1 19.4455 17.1245
      vertex -10.1 19.3061 17.1955
    endloop
  endfacet
  facet normal 1 0 0
    outer loop
      vertex -10.1 25.1 48.6
      vertex -10.1 13.6 34.6
      vertex -10.1 13.6 33.6
    endloop
  endfacet
  facet normal 1 0 0
    outer loop
      vertex -10.1 19.3061 18.0045
      vertex -10.1 8.1 28.6
      vertex -10.1 19.1955 17.8939
    endloop
  endfacet
  facet normal 1 0 0
    outer loop
      vertex -10.1 19.1955 17.8939
      vertex -10.1 8.1 28.6
      vertex -10.1 19.1245 17.7545
    endloop
  endfacet
  facet normal 1 0 0
    outer loop
      vertex -10.1 19.1245 17.7545
      vertex -10.1 8.1 28.6
      vertex -10.1 19.1 17.6
    endloop
  endfacet
  facet normal 1 0 0
    outer loop
      vertex -10.1 8.1 28.6
      vertex -10.1 13.6 33.6
      vertex -10.1 11.6 33.6
    endloop
  endfacet
  facet normal 1 0 0
    outer loop
      vertex -10.1 8.1 6.6
      vertex -10.1 19.1 17.6
      vertex -10.1 8.1 28.6
    endloop
  endfacet
  facet normal 1 0 0
    outer loop
      vertex -10.1 19.1 17.6
      vertex -10.1 8.1 6.6
      vertex -10.1 19.1245 17.4455
    endloop
  endfacet
  facet normal 1 0 0
    outer loop
      vertex -10.1 19.1245 17.4455
      vertex -10.1 8.1 6.6
      vertex -10.1 19.1955 17.3061
    endloop
  endfacet
  facet normal 1 0 0
    outer loop
      vertex -10.1 8.1 6.6
      vertex -10.1 19.3061 17.1955
      vertex -10.1 19.1955 17.3061
    endloop
  endfacet
  facet normal 1 0 0
    outer loop
      vertex -10.1 19.7545 17.1245
      vertex -10.1 8.1 6.6
      vertex -10.1 37.1 1.6
    endloop
  endfacet
  facet normal 1 0 0
    outer loop
      vertex -10.1 2.1 1.6
      vertex -10.1 8.1 6.6
      vertex -10.1 2.1 6.6
    endloop
  endfacet
  facet normal 1 0 0
    outer loop
      vertex -10.1 8.1 6.6
      vertex -10.1 2.1 1.6
      vertex -10.1 37.1 1.6
    endloop
  endfacet
  facet normal -1 0 0
    outer loop
      vertex -1.6 37.1 6.6
      vertex -1.6 25.1 48.6
      vertex -1.6 37.1 48.6
    endloop
  endfacet
  facet normal -1 0 0
    outer loop
      vertex -1.6 25.1 48.6
      vertex -1.6 14.1 48.6
      vertex -1.6 25.1 50.6
    endloop
  endfacet
  facet normal -1 0 0
    outer loop
      vertex -1.6 37.1 6.6
      vertex -1.6 14.1 48.6
      vertex -1.6 25.1 48.6
    endloop
  endfacet
  facet normal -1 0 0
    outer loop
      vertex -1.6 2.1 6.6
      vertex -1.6 14.1 48.6
      vertex -1.6 37.1 6.6
    endloop
  endfacet
  facet normal -1 -0 0
    outer loop
      vertex -1.6 14.1 48.6
      vertex -1.6 2.1 6.6
      vertex -1.6 2.1 48.6
    endloop
  endfacet
  facet normal -1 0 0
    outer loop
      vertex -1.6 25.1 50.6
      vertex -1.6 37.1 59.1
      vertex -1.6 37.1 50.6
    endloop
  endfacet
  facet normal -1 0 0
    outer loop
      vertex -1.6 14.1 50.6
      vertex -1.6 25.1 50.6
      vertex -1.6 14.1 48.6
    endloop
  endfacet
  facet normal -1 0 0
    outer loop
      vertex -1.6 25.1 50.6
      vertex -1.6 14.1 50.6
      vertex -1.6 37.1 59.1
    endloop
  endfacet
  facet normal -1 0 0
    outer loop
      vertex -1.6 2.1 59.1
      vertex -1.6 14.1 50.6
      vertex -1.6 2.1 50.6
    endloop
  endfacet
  facet normal -1 0 0
    outer loop
      vertex -1.6 14.1 50.6
      vertex -1.6 2.1 59.1
      vertex -1.6 37.1 59.1
    endloop
  endfacet
  facet normal -0 0 1
    outer loop
      vertex -10.1 37.1 1.6
      vertex -6.6 2.1 1.6
      vertex -6.6 37.1 1.6
    endloop
  endfacet
  facet normal 0 0 1
    outer loop
      vertex -6.6 2.1 1.6
      vertex -10.1 37.1 1.6
      vertex -10.1 2.1 1.6
    endloop
  endfacet
  facet normal 0 -1 0
    outer loop
      vertex -10.1 37.1 48.6
      vertex -6.6 37.1 6.6
      vertex -1.6 37.1 48.6
    endloop
  endfacet
  facet normal 0 -1 0
    outer loop
      vertex -10.1 37.1 1.6
      vertex -6.6 37.1 6.6
      vertex -10.1 37.1 48.6
    endloop
  endfacet
  facet normal 0 -1 -0
    outer loop
      vertex -6.6 37.1 6.6
      vertex -10.1 37.1 1.6
      vertex -6.6 37.1 1.6
    endloop
  endfacet
  facet normal 0 -1 0
    outer loop
      vertex -10.1 37.1 48.6
      vertex -10.1 37.1 50.6
      vertex -11.7 37.1 50.6
    endloop
  endfacet
  facet normal 0 -1 0
    outer loop
      vertex -10.1 37.1 50.6
      vertex -10.1 37.1 48.6
      vertex -1.6 37.1 50.6
    endloop
  endfacet
  facet normal 0 -1 0
    outer loop
      vertex -10.1 37.1 48.6
      vertex -11.7 37.1 50.6
      vertex -11.7 37.1 48.6
    endloop
  endfacet
  facet normal 0 -1 0
    outer loop
      vertex -1.6 37.1 48.6
      vertex -1.6 37.1 50.6
      vertex -10.1 37.1 48.6
    endloop
  endfacet
  facet normal 0 -1 0
    outer loop
      vertex -1.6 37.1 50.6
      vertex -1.6 37.1 48.6
      vertex 0 37.1 50.6
    endloop
  endfacet
  facet normal 0 -1 -0
    outer loop
      vertex 0 37.1 50.6
      vertex -1.6 37.1 48.6
      vertex 0 37.1 48.6
    endloop
  endfacet
  facet normal 0 -1 0
    outer loop
      vertex -10.1 37.1 50.6
      vertex -1.6 37.1 59.1
      vertex -10.1 37.1 59.1
    endloop
  endfacet
  facet normal 0 -1 -0
    outer loop
      vertex -1.6 37.1 59.1
      vertex -10.1 37.1 50.6
      vertex -1.6 37.1 50.6
    endloop
  endfacet
  facet normal 0 -1 -0
    outer loop
      vertex -1.6 37.1 48.6
      vertex -6.6 37.1 6.6
      vertex -1.6 37.1 6.6
    endloop
  endfacet
  facet normal 0 1 -0
    outer loop
      vertex -6.6 2.1 1.6
      vertex -10.1 2.1 6.6
      vertex -6.6 2.1 6.6
    endloop
  endfacet
  facet normal 0 1 0
    outer loop
      vertex -10.1 2.1 6.6
      vertex -6.6 2.1 1.6
      vertex -10.1 2.1 1.6
    endloop
  endfacet
  facet normal 0 1 0
    outer loop
      vertex -8.9 2.1 59.1
      vertex -10.1 2.1 50.6
      vertex -10.1 2.1 59.1
    endloop
  endfacet
  facet normal 0 1 0
    outer loop
      vertex -10.1 2.1 50.6
      vertex -10.1 2.1 48.6
      vertex -11.7 2.1 50.6
    endloop
  endfacet
  facet normal 0 1 0
    outer loop
      vertex -8.9 2.1 59.1
      vertex -10.1 2.1 48.6
      vertex -10.1 2.1 50.6
    endloop
  endfacet
  facet normal 0 1 -0
    outer loop
      vertex -8.9 2.1 37.6
      vertex -10.1 2.1 48.6
      vertex -8.9 2.1 59.1
    endloop
  endfacet
  facet normal 0 1 0
    outer loop
      vertex -10.1 2.1 48.6
      vertex -8.9 2.1 37.6
      vertex -10.1 2.1 37.6
    endloop
  endfacet
  facet normal 0 1 0
    outer loop
      vertex -11.7 2.1 50.6
      vertex -10.1 2.1 48.6
      vertex -11.7 2.1 48.6
    endloop
  endfacet
  facet normal 0 1 0
    outer loop
      vertex 0 2.1 50.6
      vertex 0 2.1 48.6
      vertex -1.6 2.1 50.6
    endloop
  endfacet
  facet normal 0 1 -0
    outer loop
      vertex -1.6 2.1 50.6
      vertex -7.6 2.1 59.1
      vertex -1.6 2.1 59.1
    endloop
  endfacet
  facet normal 0 1 0
    outer loop
      vertex -1.6 2.1 48.6
      vertex -1.6 2.1 50.6
      vertex 0 2.1 48.6
    endloop
  endfacet
  facet normal 0 1 -0
    outer loop
      vertex -1.6 2.1 48.6
      vertex -7.6 2.1 59.1
      vertex -1.6 2.1 50.6
    endloop
  endfacet
  facet normal 0 1 0
    outer loop
      vertex -7.6 2.1 37.6
      vertex -1.6 2.1 48.6
      vertex -5.6 2.1 37.6
    endloop
  endfacet
  facet normal 0 1 0
    outer loop
      vertex -1.6 2.1 48.6
      vertex -7.6 2.1 37.6
      vertex -7.6 2.1 59.1
    endloop
  endfacet
  facet normal 0 1 -0
    outer loop
      vertex -1.6 2.1 6.6
      vertex -5.6 2.1 37.6
      vertex -1.6 2.1 48.6
    endloop
  endfacet
  facet normal 0 1 0
    outer loop
      vertex -5.6 2.1 37.6
      vertex -1.6 2.1 6.6
      vertex -5.6 2.1 6.6
    endloop
  endfacet
  facet normal 0 0 -1
    outer loop
      vertex -5.6 0 37.6
      vertex -7.6 0.5 37.6
      vertex -5.6 2.1 37.6
    endloop
  endfacet
  facet normal 0 0 -1
    outer loop
      vertex -10.1 0 37.6
      vertex -7.6 0.5 37.6
      vertex -5.6 0 37.6
    endloop
  endfacet
  facet normal -0 0 -1
    outer loop
      vertex -7.6 0.5 37.6
      vertex -10.1 0 37.6
      vertex -8.9 0.5 37.6
    endloop
  endfacet
  facet normal 0 0 -1
    outer loop
      vertex -10.1 2.1 37.6
      vertex -8.9 0.5 37.6
      vertex -10.1 0 37.6
    endloop
  endfacet
  facet normal 0 0 -1
    outer loop
      vertex -8.9 0.5 37.6
      vertex -10.1 2.1 37.6
      vertex -8.9 2.1 37.6
    endloop
  endfacet
  facet normal -0 0 -1
    outer loop
      vertex -5.6 2.1 37.6
      vertex -7.6 0.5 37.6
      vertex -7.6 2.1 37.6
    endloop
  endfacet
  facet normal -1 0 0
    outer loop
      vertex -5.6 0 6.6
      vertex -5.6 2.1 37.6
      vertex -5.6 2.1 6.6
    endloop
  endfacet
  facet normal -1 -0 0
    outer loop
      vertex -5.6 2.1 37.6
      vertex -5.6 0 6.6
      vertex -5.6 0 37.6
    endloop
  endfacet
  facet normal 0 0 1
    outer loop
      vertex -10.1 8.1 6.6
      vertex -11.7 8.1 6.6
      vertex -10.1 2.1 6.6
    endloop
  endfacet
  facet normal -0 0 1
    outer loop
      vertex -10.1 2.1 6.6
      vertex -6.6 0 6.6
      vertex -6.6 2.1 6.6
    endloop
  endfacet
  facet normal 0 0 1
    outer loop
      vertex -10.1 2.1 6.6
      vertex -11.7 0 6.6
      vertex -6.6 0 6.6
    endloop
  endfacet
  facet normal 0 0 1
    outer loop
      vertex -11.7 0 6.6
      vertex -10.1 2.1 6.6
      vertex -11.7 8.1 6.6
    endloop
  endfacet
  facet normal 0 0 1
    outer loop
      vertex -1.6 37.1 6.6
      vertex -5.6 2.1 6.6
      vertex -1.6 2.1 6.6
    endloop
  endfacet
  facet normal -0 0 1
    outer loop
      vertex -6.6 37.1 6.6
      vertex -5.6 2.1 6.6
      vertex -1.6 37.1 6.6
    endloop
  endfacet
  facet normal 0 0 1
    outer loop
      vertex -6.6 2.1 6.6
      vertex -5.6 2.1 6.6
      vertex -6.6 37.1 6.6
    endloop
  endfacet
  facet normal 0 0 1
    outer loop
      vertex -5.6 2.1 6.6
      vertex -6.6 2.1 6.6
      vertex -5.6 0 6.6
    endloop
  endfacet
  facet normal 0 0 1
    outer loop
      vertex -5.6 0 6.6
      vertex -6.6 2.1 6.6
      vertex -6.6 0 6.6
    endloop
  endfacet
  facet normal 0 0 -1
    outer loop
      vertex -11.7 8.08323 28.6
      vertex -10.1 8.1 28.6
      vertex -10.1 8.08323 28.6
    endloop
  endfacet
  facet normal -0 0 -1
    outer loop
      vertex -10.1 8.1 28.6
      vertex -11.7 8.08323 28.6
      vertex -11.7 8.1 28.6
    endloop
  endfacet
  facet normal 0 -1 0
    outer loop
      vertex -11.7 8.1 6.6
      vertex -10.1 8.1 28.6
      vertex -11.7 8.1 28.6
    endloop
  endfacet
  facet normal 0 -1 -0
    outer loop
      vertex -10.1 8.1 28.6
      vertex -11.7 8.1 6.6
      vertex -10.1 8.1 6.6
    endloop
  endfacet
  facet normal 0 -0.187366 -0.98229
    outer loop
      vertex -11.7 0.665332 37.433
      vertex -10.1 1.71386 37.233
      vertex -10.1 0.665332 37.433
    endloop
  endfacet
  facet normal -0 -0.187366 -0.98229
    outer loop
      vertex -10.1 1.71386 37.233
      vertex -11.7 0.665332 37.433
      vertex -11.7 1.71386 37.233
    endloop
  endfacet
  facet normal 0 -0.0627022 -0.998032
    outer loop
      vertex -11.7 0 37.4748
      vertex -10.1 0.665332 37.433
      vertex -10.1 0 37.4748
    endloop
  endfacet
  facet normal -0 -0.0627022 -0.998032
    outer loop
      vertex -10.1 0.665332 37.433
      vertex -11.7 0 37.4748
      vertex -11.7 0.665332 37.433
    endloop
  endfacet
  facet normal 0 -0.309052 -0.951045
    outer loop
      vertex -11.7 1.71386 37.233
      vertex -10.1 2.72906 36.9031
      vertex -10.1 1.71386 37.233
    endloop
  endfacet
  facet normal -0 -0.309052 -0.951045
    outer loop
      vertex -10.1 2.72906 36.9031
      vertex -11.7 1.71386 37.233
      vertex -11.7 2.72906 36.9031
    endloop
  endfacet
  facet normal 0 -0.535856 -0.84431
    outer loop
      vertex -11.7 3.69491 36.4486
      vertex -10.1 4.59617 35.8766
      vertex -10.1 3.69491 36.4486
    endloop
  endfacet
  facet normal -0 -0.535856 -0.84431
    outer loop
      vertex -10.1 4.59617 35.8766
      vertex -11.7 3.69491 36.4486
      vertex -11.7 4.59617 35.8766
    endloop
  endfacet
  facet normal 0 -0.929779 -0.368118
    outer loop
      vertex -11.7 7.68398 31.6266
      vertex -10.1 7.29103 32.6191
      vertex -11.7 7.29103 32.6191
    endloop
  endfacet
  facet normal 0 -0.929779 -0.368118
    outer loop
      vertex -10.1 7.29103 32.6191
      vertex -11.7 7.68398 31.6266
      vertex -10.1 7.68398 31.6266
    endloop
  endfacet
  facet normal 0 -0.425784 -0.904825
    outer loop
      vertex -11.7 2.72906 36.9031
      vertex -10.1 3.69491 36.4486
      vertex -10.1 2.72906 36.9031
    endloop
  endfacet
  facet normal -0 -0.425784 -0.904825
    outer loop
      vertex -10.1 3.69491 36.4486
      vertex -11.7 2.72906 36.9031
      vertex -11.7 3.69491 36.4486
    endloop
  endfacet
  facet normal 0 -0.992114 -0.12534
    outer loop
      vertex -11.7 8.08323 29.5337
      vertex -10.1 7.94944 30.5927
      vertex -11.7 7.94944 30.5927
    endloop
  endfacet
  facet normal 0 -0.992114 -0.12534
    outer loop
      vertex -10.1 7.94944 30.5927
      vertex -11.7 8.08323 29.5337
      vertex -10.1 8.08323 29.5337
    endloop
  endfacet
  facet normal 0 -0.637416 -0.77052
    outer loop
      vertex -11.7 4.59617 35.8766
      vertex -10.1 5.41865 35.1962
      vertex -10.1 4.59617 35.8766
    endloop
  endfacet
  facet normal -0 -0.637416 -0.77052
    outer loop
      vertex -10.1 5.41865 35.1962
      vertex -11.7 4.59617 35.8766
      vertex -11.7 5.41865 35.1962
    endloop
  endfacet
  facet normal 0 -0.728957 -0.68456
    outer loop
      vertex -11.7 6.14936 34.4181
      vertex -10.1 5.41865 35.1962
      vertex -11.7 5.41865 35.1962
    endloop
  endfacet
  facet normal 0 -0.728957 -0.68456
    outer loop
      vertex -10.1 5.41865 35.1962
      vertex -11.7 6.14936 34.4181
      vertex -10.1 6.14936 34.4181
    endloop
  endfacet
  facet normal 0 -0.809022 -0.587778
    outer loop
      vertex -11.7 6.77679 33.5545
      vertex -10.1 6.14936 34.4181
      vertex -11.7 6.14936 34.4181
    endloop
  endfacet
  facet normal 0 -0.809022 -0.587778
    outer loop
      vertex -10.1 6.14936 34.4181
      vertex -11.7 6.77679 33.5545
      vertex -10.1 6.77679 33.5545
    endloop
  endfacet
  facet normal 0 -0.876307 -0.481753
    outer loop
      vertex -11.7 7.29103 32.6191
      vertex -10.1 6.77679 33.5545
      vertex -11.7 6.77679 33.5545
    endloop
  endfacet
  facet normal 0 -0.876307 -0.481753
    outer loop
      vertex -10.1 6.77679 33.5545
      vertex -11.7 7.29103 32.6191
      vertex -10.1 7.29103 32.6191
    endloop
  endfacet
  facet normal 0 -1 0
    outer loop
      vertex -11.7 8.08323 28.6
      vertex -10.1 8.08323 29.5337
      vertex -11.7 8.08323 29.5337
    endloop
  endfacet
  facet normal 0 -1 -0
    outer loop
      vertex -10.1 8.08323 29.5337
      vertex -11.7 8.08323 28.6
      vertex -10.1 8.08323 28.6
    endloop
  endfacet
  facet normal 0 -0.968583 -0.24869
    outer loop
      vertex -11.7 7.94944 30.5927
      vertex -10.1 7.68398 31.6266
      vertex -11.7 7.68398 31.6266
    endloop
  endfacet
  facet normal 0 -0.968583 -0.24869
    outer loop
      vertex -10.1 7.68398 31.6266
      vertex -11.7 7.94944 30.5927
      vertex -10.1 7.94944 30.5927
    endloop
  endfacet
  facet normal 1 -0 0
    outer loop
      vertex -8.9 0.5 59.1
      vertex -8.9 2.1 37.6
      vertex -8.9 2.1 59.1
    endloop
  endfacet
  facet normal 1 0 0
    outer loop
      vertex -8.9 2.1 37.6
      vertex -8.9 0.5 59.1
      vertex -8.9 0.5 37.6
    endloop
  endfacet
  facet normal -1 0 0
    outer loop
      vertex -7.6 0.5 37.6
      vertex -7.6 2.1 59.1
      vertex -7.6 2.1 37.6
    endloop
  endfacet
  facet normal -1 -0 0
    outer loop
      vertex -7.6 2.1 59.1
      vertex -7.6 0.5 37.6
      vertex -7.6 0.5 59.1
    endloop
  endfacet
  facet normal 0 1 -0
    outer loop
      vertex -7.6 0.5 37.6
      vertex -8.9 0.5 59.1
      vertex -7.6 0.5 59.1
    endloop
  endfacet
  facet normal 0 1 0
    outer loop
      vertex -8.9 0.5 59.1
      vertex -7.6 0.5 37.6
      vertex -8.9 0.5 37.6
    endloop
  endfacet
  facet normal 0 0 -1
    outer loop
      vertex -1.6 2.1 50.6
      vertex 0 14.1 50.6
      vertex 0 2.1 50.6
    endloop
  endfacet
  facet normal -0 0 -1
    outer loop
      vertex 0 14.1 50.6
      vertex -1.6 2.1 50.6
      vertex -1.6 14.1 50.6
    endloop
  endfacet
  facet normal 0 0 -1
    outer loop
      vertex -11.7 2.1 50.6
      vertex -10.1 14.1 50.6
      vertex -10.1 2.1 50.6
    endloop
  endfacet
  facet normal -0 0 -1
    outer loop
      vertex -10.1 14.1 50.6
      vertex -11.7 2.1 50.6
      vertex -11.7 14.1 50.6
    endloop
  endfacet
  facet normal -0 0 1
    outer loop
      vertex -1.6 14.1 48.6
      vertex 0 2.1 48.6
      vertex 0 14.1 48.6
    endloop
  endfacet
  facet normal 0 0 1
    outer loop
      vertex 0 2.1 48.6
      vertex -1.6 14.1 48.6
      vertex -1.6 2.1 48.6
    endloop
  endfacet
  facet normal -0 0 1
    outer loop
      vertex -11.7 14.1 48.6
      vertex -10.1 2.1 48.6
      vertex -10.1 14.1 48.6
    endloop
  endfacet
  facet normal 0 0 1
    outer loop
      vertex -10.1 2.1 48.6
      vertex -11.7 14.1 48.6
      vertex -11.7 2.1 48.6
    endloop
  endfacet
  facet normal 0 -1 0
    outer loop
      vertex -1.6 14.1 48.6
      vertex 0 14.1 50.6
      vertex -1.6 14.1 50.6
    endloop
  endfacet
  facet normal 0 -1 -0
    outer loop
      vertex 0 14.1 50.6
      vertex -1.6 14.1 48.6
      vertex 0 14.1 48.6
    endloop
  endfacet
  facet normal 0 -1 0
    outer loop
      vertex -11.7 14.1 48.6
      vertex -10.1 14.1 50.6
      vertex -11.7 14.1 50.6
    endloop
  endfacet
  facet normal 0 -1 -0
    outer loop
      vertex -10.1 14.1 50.6
      vertex -11.7 14.1 48.6
      vertex -10.1 14.1 48.6
    endloop
  endfacet
  facet normal 0 0 -1
    outer loop
      vertex -1.6 25.1 50.6
      vertex 0 37.1 50.6
      vertex 0 25.1 50.6
    endloop
  endfacet
  facet normal -0 0 -1
    outer loop
      vertex 0 37.1 50.6
      vertex -1.6 25.1 50.6
      vertex -1.6 37.1 50.6
    endloop
  endfacet
  facet normal 0 0 -1
    outer loop
      vertex -11.7 25.1 50.6
      vertex -10.1 37.1 50.6
      vertex -10.1 25.1 50.6
    endloop
  endfacet
  facet normal -0 0 -1
    outer loop
      vertex -10.1 37.1 50.6
      vertex -11.7 25.1 50.6
      vertex -11.7 37.1 50.6
    endloop
  endfacet
  facet normal -0 0 1
    outer loop
      vertex -1.6 37.1 48.6
      vertex 0 25.1 48.6
      vertex 0 37.1 48.6
    endloop
  endfacet
  facet normal 0 0 1
    outer loop
      vertex 0 25.1 48.6
      vertex -1.6 37.1 48.6
      vertex -1.6 25.1 48.6
    endloop
  endfacet
  facet normal -0 0 1
    outer loop
      vertex -11.7 37.1 48.6
      vertex -10.1 25.1 48.6
      vertex -10.1 37.1 48.6
    endloop
  endfacet
  facet normal 0 0 1
    outer loop
      vertex -10.1 25.1 48.6
      vertex -11.7 37.1 48.6
      vertex -11.7 25.1 48.6
    endloop
  endfacet
  facet normal 0 1 -0
    outer loop
      vertex 0 25.1 48.6
      vertex -1.6 25.1 50.6
      vertex 0 25.1 50.6
    endloop
  endfacet
  facet normal 0 1 0
    outer loop
      vertex -1.6 25.1 50.6
      vertex 0 25.1 48.6
      vertex -1.6 25.1 48.6
    endloop
  endfacet
  facet normal 0 1 -0
    outer loop
      vertex -10.1 25.1 48.6
      vertex -11.7 25.1 50.6
      vertex -10.1 25.1 50.6
    endloop
  endfacet
  facet normal 0 1 0
    outer loop
      vertex -11.7 25.1 50.6
      vertex -10.1 25.1 48.6
      vertex -11.7 25.1 48.6
    endloop
  endfacet
  facet normal -0 0.454103 0.890949
    outer loop
      vertex -11.7 29.791 17.6489
      vertex -10.1 29.5122 17.791
      vertex -10.1 29.791 17.6489
    endloop
  endfacet
  facet normal 0 0.454103 0.890949
    outer loop
      vertex -10.1 29.5122 17.791
      vertex -11.7 29.791 17.6489
      vertex -11.7 29.5122 17.791
    endloop
  endfacet
  facet normal 0 0.987708 -0.156307
    outer loop
      vertex -10.1 29.1 18.6
      vertex -11.7 29.1489 18.909
      vertex -10.1 29.1489 18.909
    endloop
  endfacet
  facet normal 0 0.987708 -0.156307
    outer loop
      vertex -11.7 29.1489 18.909
      vertex -10.1 29.1 18.6
      vertex -11.7 29.1 18.6
    endloop
  endfacet
  facet normal 0 -0.454103 -0.890949
    outer loop
      vertex -11.7 30.409 19.5511
      vertex -10.1 30.6878 19.409
      vertex -10.1 30.409 19.5511
    endloop
  endfacet
  facet normal -0 -0.454103 -0.890949
    outer loop
      vertex -10.1 30.6878 19.409
      vertex -11.7 30.409 19.5511
      vertex -11.7 30.6878 19.409
    endloop
  endfacet
  facet normal 0 -0.156307 -0.987708
    outer loop
      vertex -11.7 30.1 19.6
      vertex -10.1 30.409 19.5511
      vertex -10.1 30.1 19.6
    endloop
  endfacet
  facet normal -0 -0.156307 -0.987708
    outer loop
      vertex -10.1 30.409 19.5511
      vertex -11.7 30.1 19.6
      vertex -11.7 30.409 19.5511
    endloop
  endfacet
  facet normal 0 -0.707107 -0.707107
    outer loop
      vertex -11.7 30.909 19.1878
      vertex -10.1 30.6878 19.409
      vertex -11.7 30.6878 19.409
    endloop
  endfacet
  facet normal 0 -0.707107 -0.707107
    outer loop
      vertex -10.1 30.6878 19.409
      vertex -11.7 30.909 19.1878
      vertex -10.1 30.909 19.1878
    endloop
  endfacet
  facet normal 0 0.890949 -0.454103
    outer loop
      vertex -10.1 29.1489 18.909
      vertex -11.7 29.291 19.1878
      vertex -10.1 29.291 19.1878
    endloop
  endfacet
  facet normal 0 0.890949 -0.454103
    outer loop
      vertex -11.7 29.291 19.1878
      vertex -10.1 29.1489 18.909
      vertex -11.7 29.1489 18.909
    endloop
  endfacet
  facet normal 0 -0.707107 0.707107
    outer loop
      vertex -11.7 30.6878 17.791
      vertex -10.1 30.909 18.0122
      vertex -11.7 30.909 18.0122
    endloop
  endfacet
  facet normal 0 -0.707107 0.707107
    outer loop
      vertex -10.1 30.909 18.0122
      vertex -11.7 30.6878 17.791
      vertex -10.1 30.6878 17.791
    endloop
  endfacet
  facet normal 0 0.156307 -0.987708
    outer loop
      vertex -11.7 29.791 19.5511
      vertex -10.1 30.1 19.6
      vertex -10.1 29.791 19.5511
    endloop
  endfacet
  facet normal 0 0.156307 -0.987708
    outer loop
      vertex -10.1 30.1 19.6
      vertex -11.7 29.791 19.5511
      vertex -11.7 30.1 19.6
    endloop
  endfacet
  facet normal 0 -0.987708 0.156307
    outer loop
      vertex -11.7 31.0511 18.291
      vertex -10.1 31.1 18.6
      vertex -11.7 31.1 18.6
    endloop
  endfacet
  facet normal 0 -0.987708 0.156307
    outer loop
      vertex -10.1 31.1 18.6
      vertex -11.7 31.0511 18.291
      vertex -10.1 31.0511 18.291
    endloop
  endfacet
  facet normal -0 0.156307 0.987708
    outer loop
      vertex -11.7 30.1 17.6
      vertex -10.1 29.791 17.6489
      vertex -10.1 30.1 17.6
    endloop
  endfacet
  facet normal 0 0.156307 0.987708
    outer loop
      vertex -10.1 29.791 17.6489
      vertex -11.7 30.1 17.6
      vertex -11.7 29.791 17.6489
    endloop
  endfacet
  facet normal 0 -0.890949 0.454103
    outer loop
      vertex -11.7 30.909 18.0122
      vertex -10.1 31.0511 18.291
      vertex -11.7 31.0511 18.291
    endloop
  endfacet
  facet normal 0 -0.890949 0.454103
    outer loop
      vertex -10.1 31.0511 18.291
      vertex -11.7 30.909 18.0122
      vertex -10.1 30.909 18.0122
    endloop
  endfacet
  facet normal 0 -0.987708 -0.156307
    outer loop
      vertex -11.7 31.1 18.6
      vertex -10.1 31.0511 18.909
      vertex -11.7 31.0511 18.909
    endloop
  endfacet
  facet normal 0 -0.987708 -0.156307
    outer loop
      vertex -10.1 31.0511 18.909
      vertex -11.7 31.1 18.6
      vertex -10.1 31.1 18.6
    endloop
  endfacet
  facet normal 0 -0.454103 0.890949
    outer loop
      vertex -11.7 30.6878 17.791
      vertex -10.1 30.409 17.6489
      vertex -10.1 30.6878 17.791
    endloop
  endfacet
  facet normal 0 -0.454103 0.890949
    outer loop
      vertex -10.1 30.409 17.6489
      vertex -11.7 30.6878 17.791
      vertex -11.7 30.409 17.6489
    endloop
  endfacet
  facet normal 0 -0.156307 0.987708
    outer loop
      vertex -11.7 30.409 17.6489
      vertex -10.1 30.1 17.6
      vertex -10.1 30.409 17.6489
    endloop
  endfacet
  facet normal 0 -0.156307 0.987708
    outer loop
      vertex -10.1 30.1 17.6
      vertex -11.7 30.409 17.6489
      vertex -11.7 30.1 17.6
    endloop
  endfacet
  facet normal 0 0.707107 -0.707107
    outer loop
      vertex -11.7 29.291 19.1878
      vertex -10.1 29.5122 19.409
      vertex -10.1 29.291 19.1878
    endloop
  endfacet
  facet normal 0 0.707107 -0.707107
    outer loop
      vertex -10.1 29.5122 19.409
      vertex -11.7 29.291 19.1878
      vertex -11.7 29.5122 19.409
    endloop
  endfacet
  facet normal 0 0.987708 0.156307
    outer loop
      vertex -10.1 29.1489 18.291
      vertex -11.7 29.1 18.6
      vertex -10.1 29.1 18.6
    endloop
  endfacet
  facet normal 0 0.987708 0.156307
    outer loop
      vertex -11.7 29.1 18.6
      vertex -10.1 29.1489 18.291
      vertex -11.7 29.1489 18.291
    endloop
  endfacet
  facet normal 0 -0.890949 -0.454103
    outer loop
      vertex -11.7 31.0511 18.909
      vertex -10.1 30.909 19.1878
      vertex -11.7 30.909 19.1878
    endloop
  endfacet
  facet normal 0 -0.890949 -0.454103
    outer loop
      vertex -10.1 30.909 19.1878
      vertex -11.7 31.0511 18.909
      vertex -10.1 31.0511 18.909
    endloop
  endfacet
  facet normal 0 0.707107 0.707107
    outer loop
      vertex -10.1 29.5122 17.791
      vertex -11.7 29.291 18.0122
      vertex -10.1 29.291 18.0122
    endloop
  endfacet
  facet normal 0 0.707107 0.707107
    outer loop
      vertex -11.7 29.291 18.0122
      vertex -10.1 29.5122 17.791
      vertex -11.7 29.5122 17.791
    endloop
  endfacet
  facet normal 0 0.454103 -0.890949
    outer loop
      vertex -11.7 29.5122 19.409
      vertex -10.1 29.791 19.5511
      vertex -10.1 29.5122 19.409
    endloop
  endfacet
  facet normal 0 0.454103 -0.890949
    outer loop
      vertex -10.1 29.791 19.5511
      vertex -11.7 29.5122 19.409
      vertex -11.7 29.791 19.5511
    endloop
  endfacet
  facet normal 0 0.890949 0.454103
    outer loop
      vertex -10.1 29.291 18.0122
      vertex -11.7 29.1489 18.291
      vertex -10.1 29.1489 18.291
    endloop
  endfacet
  facet normal 0 0.890949 0.454103
    outer loop
      vertex -11.7 29.1489 18.291
      vertex -10.1 29.291 18.0122
      vertex -11.7 29.291 18.0122
    endloop
  endfacet
  facet normal 0 -0.987659 -0.156619
    outer loop
      vertex -11.7 20.1 17.6
      vertex -10.1 20.0755 17.7545
      vertex -11.7 20.0755 17.7545
    endloop
  endfacet
  facet normal 0 -0.987659 -0.156619
    outer loop
      vertex -10.1 20.0755 17.7545
      vertex -11.7 20.1 17.6
      vertex -10.1 20.1 17.6
    endloop
  endfacet
  facet normal 0 -0.453849 -0.891079
    outer loop
      vertex -11.7 19.7545 18.0755
      vertex -10.1 19.8939 18.0045
      vertex -10.1 19.7545 18.0755
    endloop
  endfacet
  facet normal -0 -0.453849 -0.891079
    outer loop
      vertex -10.1 19.8939 18.0045
      vertex -11.7 19.7545 18.0755
      vertex -11.7 19.8939 18.0045
    endloop
  endfacet
  facet normal 0 -0.156619 -0.987659
    outer loop
      vertex -11.7 19.6 18.1
      vertex -10.1 19.7545 18.0755
      vertex -10.1 19.6 18.1
    endloop
  endfacet
  facet normal -0 -0.156619 -0.987659
    outer loop
      vertex -10.1 19.7545 18.0755
      vertex -11.7 19.6 18.1
      vertex -11.7 19.7545 18.0755
    endloop
  endfacet
  facet normal 0 0.891079 -0.453849
    outer loop
      vertex -10.1 19.1245 17.7545
      vertex -11.7 19.1955 17.8939
      vertex -10.1 19.1955 17.8939
    endloop
  endfacet
  facet normal 0 0.891079 -0.453849
    outer loop
      vertex -11.7 19.1955 17.8939
      vertex -10.1 19.1245 17.7545
      vertex -11.7 19.1245 17.7545
    endloop
  endfacet
  facet normal 0 -0.707107 0.707107
    outer loop
      vertex -11.7 20.0045 17.3061
      vertex -10.1 19.8939 17.1955
      vertex -10.1 20.0045 17.3061
    endloop
  endfacet
  facet normal 0 -0.707107 0.707107
    outer loop
      vertex -10.1 19.8939 17.1955
      vertex -11.7 20.0045 17.3061
      vertex -11.7 19.8939 17.1955
    endloop
  endfacet
  facet normal 0 0.707107 -0.707107
    outer loop
      vertex -10.1 19.1955 17.8939
      vertex -11.7 19.3061 18.0045
      vertex -10.1 19.3061 18.0045
    endloop
  endfacet
  facet normal 0 0.707107 -0.707107
    outer loop
      vertex -11.7 19.3061 18.0045
      vertex -10.1 19.1955 17.8939
      vertex -11.7 19.1955 17.8939
    endloop
  endfacet
  facet normal 0 -0.891079 -0.453849
    outer loop
      vertex -11.7 20.0755 17.7545
      vertex -10.1 20.0045 17.8939
      vertex -11.7 20.0045 17.8939
    endloop
  endfacet
  facet normal 0 -0.891079 -0.453849
    outer loop
      vertex -10.1 20.0045 17.8939
      vertex -11.7 20.0755 17.7545
      vertex -10.1 20.0755 17.7545
    endloop
  endfacet
  facet normal 0 0.453849 -0.891079
    outer loop
      vertex -11.7 19.3061 18.0045
      vertex -10.1 19.4455 18.0755
      vertex -10.1 19.3061 18.0045
    endloop
  endfacet
  facet normal 0 0.453849 -0.891079
    outer loop
      vertex -10.1 19.4455 18.0755
      vertex -11.7 19.3061 18.0045
      vertex -11.7 19.4455 18.0755
    endloop
  endfacet
  facet normal 0 0.987659 -0.156619
    outer loop
      vertex -10.1 19.1 17.6
      vertex -11.7 19.1245 17.7545
      vertex -10.1 19.1245 17.7545
    endloop
  endfacet
  facet normal 0 0.987659 -0.156619
    outer loop
      vertex -11.7 19.1245 17.7545
      vertex -10.1 19.1 17.6
      vertex -11.7 19.1 17.6
    endloop
  endfacet
  facet normal 0 0.891079 0.453849
    outer loop
      vertex -10.1 19.1955 17.3061
      vertex -11.7 19.1245 17.4455
      vertex -10.1 19.1245 17.4455
    endloop
  endfacet
  facet normal 0 0.891079 0.453849
    outer loop
      vertex -11.7 19.1245 17.4455
      vertex -10.1 19.1955 17.3061
      vertex -11.7 19.1955 17.3061
    endloop
  endfacet
  facet normal 0 0.156619 -0.987659
    outer loop
      vertex -11.7 19.4455 18.0755
      vertex -10.1 19.6 18.1
      vertex -10.1 19.4455 18.0755
    endloop
  endfacet
  facet normal 0 0.156619 -0.987659
    outer loop
      vertex -10.1 19.6 18.1
      vertex -11.7 19.4455 18.0755
      vertex -11.7 19.6 18.1
    endloop
  endfacet
  facet normal 0 -0.987659 0.156619
    outer loop
      vertex -11.7 20.0755 17.4455
      vertex -10.1 20.1 17.6
      vertex -11.7 20.1 17.6
    endloop
  endfacet
  facet normal 0 -0.987659 0.156619
    outer loop
      vertex -10.1 20.1 17.6
      vertex -11.7 20.0755 17.4455
      vertex -10.1 20.0755 17.4455
    endloop
  endfacet
  facet normal -0 0.453849 0.891079
    outer loop
      vertex -11.7 19.4455 17.1245
      vertex -10.1 19.3061 17.1955
      vertex -10.1 19.4455 17.1245
    endloop
  endfacet
  facet normal 0 0.453849 0.891079
    outer loop
      vertex -10.1 19.3061 17.1955
      vertex -11.7 19.4455 17.1245
      vertex -11.7 19.3061 17.1955
    endloop
  endfacet
  facet normal 0 -0.453849 0.891079
    outer loop
      vertex -11.7 19.8939 17.1955
      vertex -10.1 19.7545 17.1245
      vertex -10.1 19.8939 17.1955
    endloop
  endfacet
  facet normal 0 -0.453849 0.891079
    outer loop
      vertex -10.1 19.7545 17.1245
      vertex -11.7 19.8939 17.1955
      vertex -11.7 19.7545 17.1245
    endloop
  endfacet
  facet normal 0 -0.891079 0.453849
    outer loop
      vertex -11.7 20.0045 17.3061
      vertex -10.1 20.0755 17.4455
      vertex -11.7 20.0755 17.4455
    endloop
  endfacet
  facet normal 0 -0.891079 0.453849
    outer loop
      vertex -10.1 20.0755 17.4455
      vertex -11.7 20.0045 17.3061
      vertex -10.1 20.0045 17.3061
    endloop
  endfacet
  facet normal 0 -0.156619 0.987659
    outer loop
      vertex -11.7 19.7545 17.1245
      vertex -10.1 19.6 17.1
      vertex -10.1 19.7545 17.1245
    endloop
  endfacet
  facet normal 0 -0.156619 0.987659
    outer loop
      vertex -10.1 19.6 17.1
      vertex -11.7 19.7545 17.1245
      vertex -11.7 19.6 17.1
    endloop
  endfacet
  facet normal 0 -0.707107 -0.707107
    outer loop
      vertex -11.7 20.0045 17.8939
      vertex -10.1 19.8939 18.0045
      vertex -11.7 19.8939 18.0045
    endloop
  endfacet
  facet normal 0 -0.707107 -0.707107
    outer loop
      vertex -10.1 19.8939 18.0045
      vertex -11.7 20.0045 17.8939
      vertex -10.1 20.0045 17.8939
    endloop
  endfacet
  facet normal 0 0.987659 0.156619
    outer loop
      vertex -10.1 19.1245 17.4455
      vertex -11.7 19.1 17.6
      vertex -10.1 19.1 17.6
    endloop
  endfacet
  facet normal 0 0.987659 0.156619
    outer loop
      vertex -11.7 19.1 17.6
      vertex -10.1 19.1245 17.4455
      vertex -11.7 19.1245 17.4455
    endloop
  endfacet
  facet normal -0 0.156619 0.987659
    outer loop
      vertex -11.7 19.6 17.1
      vertex -10.1 19.4455 17.1245
      vertex -10.1 19.6 17.1
    endloop
  endfacet
  facet normal 0 0.156619 0.987659
    outer loop
      vertex -10.1 19.4455 17.1245
      vertex -11.7 19.6 17.1
      vertex -11.7 19.4455 17.1245
    endloop
  endfacet
  facet normal 0 0.707107 0.707107
    outer loop
      vertex -10.1 19.3061 17.1955
      vertex -11.7 19.1955 17.3061
      vertex -10.1 19.1955 17.3061
    endloop
  endfacet
  facet normal 0 0.707107 0.707107
    outer loop
      vertex -11.7 19.1955 17.3061
      vertex -10.1 19.3061 17.1955
      vertex -11.7 19.3061 17.1955
    endloop
  endfacet
  facet normal 0 0 -1
    outer loop
      vertex -11.7 11.6 34.6
      vertex -10.1 13.6 34.6
      vertex -10.1 11.6 34.6
    endloop
  endfacet
  facet normal -0 0 -1
    outer loop
      vertex -10.1 13.6 34.6
      vertex -11.7 11.6 34.6
      vertex -11.7 13.6 34.6
    endloop
  endfacet
  facet normal -0 0 1
    outer loop
      vertex -11.7 13.6 33.6
      vertex -10.1 11.6 33.6
      vertex -10.1 13.6 33.6
    endloop
  endfacet
  facet normal 0 0 1
    outer loop
      vertex -10.1 11.6 33.6
      vertex -11.7 13.6 33.6
      vertex -11.7 11.6 33.6
    endloop
  endfacet
  facet normal 0 -1 0
    outer loop
      vertex -11.7 13.6 33.6
      vertex -10.1 13.6 34.6
      vertex -11.7 13.6 34.6
    endloop
  endfacet
  facet normal 0 -1 -0
    outer loop
      vertex -10.1 13.6 34.6
      vertex -11.7 13.6 33.6
      vertex -10.1 13.6 33.6
    endloop
  endfacet
  facet normal 0 1 -0
    outer loop
      vertex -10.1 11.6 33.6
      vertex -11.7 11.6 34.6
      vertex -10.1 11.6 34.6
    endloop
  endfacet
  facet normal 0 1 0
    outer loop
      vertex -11.7 11.6 34.6
      vertex -10.1 11.6 33.6
      vertex -11.7 11.6 33.6
    endloop
  endfacet
  facet normal -1 0 0
    outer loop
      vertex -6.6 2.1 1.6
      vertex -6.6 37.1 6.6
      vertex -6.6 37.1 1.6
    endloop
  endfacet
  facet normal -1 -0 0
    outer loop
      vertex -6.6 37.1 6.6
      vertex -6.6 2.1 1.6
      vertex -6.6 2.1 6.6
    endloop
  endfacet
endsolid OpenSCAD_Model
