G04 #@! TF.GenerationSoftware,KiCad,Pcbnew,5.0.2-bee76a0~70~ubuntu18.04.1*
G04 #@! TF.CreationDate,2019-06-28T20:51:35+02:00*
G04 #@! TF.ProjectId,rythm_badge_tudelft,72797468-6d5f-4626-9164-67655f747564,rev?*
G04 #@! TF.SameCoordinates,Original*
G04 #@! TF.FileFunction,Soldermask,Top*
G04 #@! TF.FilePolarity,Negative*
%FSLAX46Y46*%
G04 Gerber Fmt 4.6, Leading zero omitted, Abs format (unit mm)*
G04 Created by KiCad (PCBNEW 5.0.2-bee76a0~70~ubuntu18.04.1) date vr 28 jun 2019 20:51:35 CEST*
%MOMM*%
%LPD*%
G01*
G04 APERTURE LIST*
%ADD10C,0.100000*%
G04 APERTURE END LIST*
D10*
G36*
X98700000Y-91650000D02*
X98100000Y-91650000D01*
X98100000Y-91050000D01*
X98700000Y-91050000D01*
X98700000Y-91650000D01*
X98700000Y-91650000D01*
G37*
G36*
X95950000Y-91650000D02*
X95350000Y-91650000D01*
X95350000Y-91050000D01*
X95950000Y-91050000D01*
X95950000Y-91650000D01*
X95950000Y-91650000D01*
G37*
G36*
X92650000Y-91650000D02*
X92050000Y-91650000D01*
X92050000Y-91050000D01*
X92650000Y-91050000D01*
X92650000Y-91650000D01*
X92650000Y-91650000D01*
G37*
G36*
X89900000Y-91650000D02*
X89300000Y-91650000D01*
X89300000Y-91050000D01*
X89900000Y-91050000D01*
X89900000Y-91650000D01*
X89900000Y-91650000D01*
G37*
G36*
X97750000Y-91100000D02*
X97150000Y-91100000D01*
X97150000Y-90500000D01*
X97750000Y-90500000D01*
X97750000Y-91100000D01*
X97750000Y-91100000D01*
G37*
G36*
X90800000Y-91100000D02*
X90200000Y-91100000D01*
X90200000Y-90500000D01*
X90800000Y-90500000D01*
X90800000Y-91100000D01*
X90800000Y-91100000D01*
G37*
G36*
X104182396Y-89649313D02*
X104220907Y-89660995D01*
X104256400Y-89679966D01*
X104287506Y-89705494D01*
X104313034Y-89736600D01*
X104332005Y-89772093D01*
X104343687Y-89810604D01*
X104348000Y-89854393D01*
X104348000Y-90485607D01*
X104343687Y-90529396D01*
X104332005Y-90567907D01*
X104313034Y-90603400D01*
X104287506Y-90634506D01*
X104256400Y-90660034D01*
X104220907Y-90679005D01*
X104182396Y-90690687D01*
X104138607Y-90695000D01*
X103582393Y-90695000D01*
X103538604Y-90690687D01*
X103500093Y-90679005D01*
X103464600Y-90660034D01*
X103433494Y-90634506D01*
X103407966Y-90603400D01*
X103388995Y-90567907D01*
X103377313Y-90529396D01*
X103373000Y-90485607D01*
X103373000Y-89854393D01*
X103377313Y-89810604D01*
X103388995Y-89772093D01*
X103407966Y-89736600D01*
X103433494Y-89705494D01*
X103464600Y-89679966D01*
X103500093Y-89660995D01*
X103538604Y-89649313D01*
X103582393Y-89645000D01*
X104138607Y-89645000D01*
X104182396Y-89649313D01*
X104182396Y-89649313D01*
G37*
G36*
X105757396Y-89649313D02*
X105795907Y-89660995D01*
X105831400Y-89679966D01*
X105862506Y-89705494D01*
X105888034Y-89736600D01*
X105907005Y-89772093D01*
X105918687Y-89810604D01*
X105923000Y-89854393D01*
X105923000Y-90485607D01*
X105918687Y-90529396D01*
X105907005Y-90567907D01*
X105888034Y-90603400D01*
X105862506Y-90634506D01*
X105831400Y-90660034D01*
X105795907Y-90679005D01*
X105757396Y-90690687D01*
X105713607Y-90695000D01*
X105157393Y-90695000D01*
X105113604Y-90690687D01*
X105075093Y-90679005D01*
X105039600Y-90660034D01*
X105008494Y-90634506D01*
X104982966Y-90603400D01*
X104963995Y-90567907D01*
X104952313Y-90529396D01*
X104948000Y-90485607D01*
X104948000Y-89854393D01*
X104952313Y-89810604D01*
X104963995Y-89772093D01*
X104982966Y-89736600D01*
X105008494Y-89705494D01*
X105039600Y-89679966D01*
X105075093Y-89660995D01*
X105113604Y-89649313D01*
X105157393Y-89645000D01*
X105713607Y-89645000D01*
X105757396Y-89649313D01*
X105757396Y-89649313D01*
G37*
G36*
X98700000Y-90550000D02*
X98100000Y-90550000D01*
X98100000Y-89950000D01*
X98700000Y-89950000D01*
X98700000Y-90550000D01*
X98700000Y-90550000D01*
G37*
G36*
X89900000Y-90550000D02*
X89300000Y-90550000D01*
X89300000Y-89950000D01*
X89900000Y-89950000D01*
X89900000Y-90550000D01*
X89900000Y-90550000D01*
G37*
G36*
X83635719Y-89119958D02*
X83739394Y-89151408D01*
X83834942Y-89202479D01*
X83918690Y-89271210D01*
X83987421Y-89354958D01*
X84038492Y-89450506D01*
X84069942Y-89554181D01*
X84080561Y-89662000D01*
X84069942Y-89769819D01*
X84038492Y-89873494D01*
X83987421Y-89969042D01*
X83918690Y-90052790D01*
X83834942Y-90121521D01*
X83739394Y-90172592D01*
X83635719Y-90204042D01*
X83554918Y-90212000D01*
X83500882Y-90212000D01*
X83420081Y-90204042D01*
X83316406Y-90172592D01*
X83220858Y-90121521D01*
X83137110Y-90052790D01*
X83068379Y-89969042D01*
X83017308Y-89873494D01*
X82985858Y-89769819D01*
X82975239Y-89662000D01*
X82985858Y-89554181D01*
X83017308Y-89450506D01*
X83068379Y-89354958D01*
X83137110Y-89271210D01*
X83220858Y-89202479D01*
X83316406Y-89151408D01*
X83420081Y-89119958D01*
X83500882Y-89112000D01*
X83554918Y-89112000D01*
X83635719Y-89119958D01*
X83635719Y-89119958D01*
G37*
G36*
X82365719Y-89119958D02*
X82469394Y-89151408D01*
X82564942Y-89202479D01*
X82648690Y-89271210D01*
X82717421Y-89354958D01*
X82768492Y-89450506D01*
X82799942Y-89554181D01*
X82810561Y-89662000D01*
X82799942Y-89769819D01*
X82768492Y-89873494D01*
X82717421Y-89969042D01*
X82648690Y-90052790D01*
X82564942Y-90121521D01*
X82469394Y-90172592D01*
X82365719Y-90204042D01*
X82284918Y-90212000D01*
X82230882Y-90212000D01*
X82150081Y-90204042D01*
X82046406Y-90172592D01*
X81950858Y-90121521D01*
X81867110Y-90052790D01*
X81798379Y-89969042D01*
X81747308Y-89873494D01*
X81715858Y-89769819D01*
X81705239Y-89662000D01*
X81715858Y-89554181D01*
X81747308Y-89450506D01*
X81798379Y-89354958D01*
X81867110Y-89271210D01*
X81950858Y-89202479D01*
X82046406Y-89151408D01*
X82150081Y-89119958D01*
X82230882Y-89112000D01*
X82284918Y-89112000D01*
X82365719Y-89119958D01*
X82365719Y-89119958D01*
G37*
G36*
X97750000Y-90000000D02*
X97150000Y-90000000D01*
X97150000Y-89400000D01*
X97750000Y-89400000D01*
X97750000Y-90000000D01*
X97750000Y-90000000D01*
G37*
G36*
X90800000Y-90000000D02*
X90200000Y-90000000D01*
X90200000Y-89400000D01*
X90800000Y-89400000D01*
X90800000Y-90000000D01*
X90800000Y-90000000D01*
G37*
G36*
X102354000Y-88148800D02*
X102355464Y-88163666D01*
X102359800Y-88177960D01*
X102366842Y-88191134D01*
X102376318Y-88202682D01*
X102387866Y-88212158D01*
X102401040Y-88219200D01*
X102415334Y-88223536D01*
X102430200Y-88225000D01*
X102829000Y-88225000D01*
X102829000Y-89575000D01*
X102430200Y-89575000D01*
X102415334Y-89576464D01*
X102401040Y-89580800D01*
X102387866Y-89587842D01*
X102376318Y-89597318D01*
X102366842Y-89608866D01*
X102359800Y-89622040D01*
X102355464Y-89636334D01*
X102354000Y-89651200D01*
X102354000Y-89875000D01*
X101354000Y-89875000D01*
X101354000Y-89651200D01*
X101352536Y-89636334D01*
X101348200Y-89622040D01*
X101341158Y-89608866D01*
X101331682Y-89597318D01*
X101320134Y-89587842D01*
X101306960Y-89580800D01*
X101292666Y-89576464D01*
X101277800Y-89575000D01*
X100879000Y-89575000D01*
X100879000Y-88426200D01*
X101304000Y-88426200D01*
X101304000Y-89373800D01*
X101305464Y-89388666D01*
X101309800Y-89402960D01*
X101316842Y-89416134D01*
X101326318Y-89427682D01*
X101337866Y-89437158D01*
X101351040Y-89444200D01*
X101365334Y-89448536D01*
X101380200Y-89450000D01*
X102327800Y-89450000D01*
X102342666Y-89448536D01*
X102356960Y-89444200D01*
X102370134Y-89437158D01*
X102381682Y-89427682D01*
X102391158Y-89416134D01*
X102398200Y-89402960D01*
X102402536Y-89388666D01*
X102404000Y-89373800D01*
X102404000Y-88426200D01*
X102402536Y-88411334D01*
X102398200Y-88397040D01*
X102391158Y-88383866D01*
X102381682Y-88372318D01*
X102370134Y-88362842D01*
X102356960Y-88355800D01*
X102342666Y-88351464D01*
X102327800Y-88350000D01*
X101380200Y-88350000D01*
X101365334Y-88351464D01*
X101351040Y-88355800D01*
X101337866Y-88362842D01*
X101326318Y-88372318D01*
X101316842Y-88383866D01*
X101309800Y-88397040D01*
X101305464Y-88411334D01*
X101304000Y-88426200D01*
X100879000Y-88426200D01*
X100879000Y-88225000D01*
X101277800Y-88225000D01*
X101292666Y-88223536D01*
X101306960Y-88219200D01*
X101320134Y-88212158D01*
X101331682Y-88202682D01*
X101341158Y-88191134D01*
X101348200Y-88177960D01*
X101352536Y-88163666D01*
X101354000Y-88148800D01*
X101354000Y-87925000D01*
X102354000Y-87925000D01*
X102354000Y-88148800D01*
X102354000Y-88148800D01*
G37*
G36*
X98700000Y-89450000D02*
X98100000Y-89450000D01*
X98100000Y-88850000D01*
X98700000Y-88850000D01*
X98700000Y-89450000D01*
X98700000Y-89450000D01*
G37*
G36*
X89900000Y-89450000D02*
X89300000Y-89450000D01*
X89300000Y-88850000D01*
X89900000Y-88850000D01*
X89900000Y-89450000D01*
X89900000Y-89450000D01*
G37*
G36*
X83635719Y-87849958D02*
X83739394Y-87881408D01*
X83834942Y-87932479D01*
X83918690Y-88001210D01*
X83987421Y-88084958D01*
X84038492Y-88180506D01*
X84069942Y-88284181D01*
X84080561Y-88392000D01*
X84069942Y-88499819D01*
X84038492Y-88603494D01*
X83987421Y-88699042D01*
X83918690Y-88782790D01*
X83834942Y-88851521D01*
X83739394Y-88902592D01*
X83635719Y-88934042D01*
X83554918Y-88942000D01*
X83500882Y-88942000D01*
X83420081Y-88934042D01*
X83316406Y-88902592D01*
X83220858Y-88851521D01*
X83137110Y-88782790D01*
X83068379Y-88699042D01*
X83017308Y-88603494D01*
X82985858Y-88499819D01*
X82975239Y-88392000D01*
X82985858Y-88284181D01*
X83017308Y-88180506D01*
X83068379Y-88084958D01*
X83137110Y-88001210D01*
X83220858Y-87932479D01*
X83316406Y-87881408D01*
X83420081Y-87849958D01*
X83500882Y-87842000D01*
X83554918Y-87842000D01*
X83635719Y-87849958D01*
X83635719Y-87849958D01*
G37*
G36*
X82365719Y-87849958D02*
X82469394Y-87881408D01*
X82564942Y-87932479D01*
X82648690Y-88001210D01*
X82717421Y-88084958D01*
X82768492Y-88180506D01*
X82799942Y-88284181D01*
X82810561Y-88392000D01*
X82799942Y-88499819D01*
X82768492Y-88603494D01*
X82717421Y-88699042D01*
X82648690Y-88782790D01*
X82564942Y-88851521D01*
X82469394Y-88902592D01*
X82365719Y-88934042D01*
X82284918Y-88942000D01*
X82230882Y-88942000D01*
X82150081Y-88934042D01*
X82046406Y-88902592D01*
X81950858Y-88851521D01*
X81867110Y-88782790D01*
X81798379Y-88699042D01*
X81747308Y-88603494D01*
X81715858Y-88499819D01*
X81705239Y-88392000D01*
X81715858Y-88284181D01*
X81747308Y-88180506D01*
X81798379Y-88084958D01*
X81867110Y-88001210D01*
X81950858Y-87932479D01*
X82046406Y-87881408D01*
X82150081Y-87849958D01*
X82230882Y-87842000D01*
X82284918Y-87842000D01*
X82365719Y-87849958D01*
X82365719Y-87849958D01*
G37*
G36*
X97750000Y-88900000D02*
X97150000Y-88900000D01*
X97150000Y-88300000D01*
X97750000Y-88300000D01*
X97750000Y-88900000D01*
X97750000Y-88900000D01*
G37*
G36*
X90800000Y-88900000D02*
X90200000Y-88900000D01*
X90200000Y-88300000D01*
X90800000Y-88300000D01*
X90800000Y-88900000D01*
X90800000Y-88900000D01*
G37*
G36*
X89900000Y-88350000D02*
X89300000Y-88350000D01*
X89300000Y-87750000D01*
X89900000Y-87750000D01*
X89900000Y-88350000D01*
X89900000Y-88350000D01*
G37*
G36*
X98700000Y-88350000D02*
X98100000Y-88350000D01*
X98100000Y-87750000D01*
X98700000Y-87750000D01*
X98700000Y-88350000D01*
X98700000Y-88350000D01*
G37*
G36*
X97750000Y-87800000D02*
X97150000Y-87800000D01*
X97150000Y-87200000D01*
X97750000Y-87200000D01*
X97750000Y-87800000D01*
X97750000Y-87800000D01*
G37*
G36*
X90800000Y-87800000D02*
X90200000Y-87800000D01*
X90200000Y-87200000D01*
X90800000Y-87200000D01*
X90800000Y-87800000D01*
X90800000Y-87800000D01*
G37*
G36*
X83635719Y-86579958D02*
X83739394Y-86611408D01*
X83834942Y-86662479D01*
X83918690Y-86731210D01*
X83987421Y-86814958D01*
X84038492Y-86910506D01*
X84069942Y-87014181D01*
X84080561Y-87122000D01*
X84069942Y-87229819D01*
X84038492Y-87333494D01*
X83987421Y-87429042D01*
X83918690Y-87512790D01*
X83834942Y-87581521D01*
X83739394Y-87632592D01*
X83635719Y-87664042D01*
X83554918Y-87672000D01*
X83500882Y-87672000D01*
X83420081Y-87664042D01*
X83316406Y-87632592D01*
X83220858Y-87581521D01*
X83137110Y-87512790D01*
X83068379Y-87429042D01*
X83017308Y-87333494D01*
X82985858Y-87229819D01*
X82975239Y-87122000D01*
X82985858Y-87014181D01*
X83017308Y-86910506D01*
X83068379Y-86814958D01*
X83137110Y-86731210D01*
X83220858Y-86662479D01*
X83316406Y-86611408D01*
X83420081Y-86579958D01*
X83500882Y-86572000D01*
X83554918Y-86572000D01*
X83635719Y-86579958D01*
X83635719Y-86579958D01*
G37*
G36*
X82365719Y-86579958D02*
X82469394Y-86611408D01*
X82564942Y-86662479D01*
X82648690Y-86731210D01*
X82717421Y-86814958D01*
X82768492Y-86910506D01*
X82799942Y-87014181D01*
X82810561Y-87122000D01*
X82799942Y-87229819D01*
X82768492Y-87333494D01*
X82717421Y-87429042D01*
X82648690Y-87512790D01*
X82564942Y-87581521D01*
X82469394Y-87632592D01*
X82365719Y-87664042D01*
X82284918Y-87672000D01*
X82230882Y-87672000D01*
X82150081Y-87664042D01*
X82046406Y-87632592D01*
X81950858Y-87581521D01*
X81867110Y-87512790D01*
X81798379Y-87429042D01*
X81747308Y-87333494D01*
X81715858Y-87229819D01*
X81705239Y-87122000D01*
X81715858Y-87014181D01*
X81747308Y-86910506D01*
X81798379Y-86814958D01*
X81867110Y-86731210D01*
X81950858Y-86662479D01*
X82046406Y-86611408D01*
X82150081Y-86579958D01*
X82230882Y-86572000D01*
X82284918Y-86572000D01*
X82365719Y-86579958D01*
X82365719Y-86579958D01*
G37*
G36*
X89900000Y-87250000D02*
X89300000Y-87250000D01*
X89300000Y-86650000D01*
X89900000Y-86650000D01*
X89900000Y-87250000D01*
X89900000Y-87250000D01*
G37*
G36*
X98700000Y-87250000D02*
X98100000Y-87250000D01*
X98100000Y-86650000D01*
X98700000Y-86650000D01*
X98700000Y-87250000D01*
X98700000Y-87250000D01*
G37*
G36*
X90800000Y-86700000D02*
X90200000Y-86700000D01*
X90200000Y-86100000D01*
X90800000Y-86100000D01*
X90800000Y-86700000D01*
X90800000Y-86700000D01*
G37*
G36*
X97750000Y-86700000D02*
X97150000Y-86700000D01*
X97150000Y-86100000D01*
X97750000Y-86100000D01*
X97750000Y-86700000D01*
X97750000Y-86700000D01*
G37*
G36*
X83635719Y-85309958D02*
X83739394Y-85341408D01*
X83834942Y-85392479D01*
X83918690Y-85461210D01*
X83987421Y-85544958D01*
X84038492Y-85640506D01*
X84069942Y-85744181D01*
X84080561Y-85852000D01*
X84069942Y-85959819D01*
X84038492Y-86063494D01*
X83987421Y-86159042D01*
X83918690Y-86242790D01*
X83834942Y-86311521D01*
X83739394Y-86362592D01*
X83635719Y-86394042D01*
X83554918Y-86402000D01*
X83500882Y-86402000D01*
X83420081Y-86394042D01*
X83316406Y-86362592D01*
X83220858Y-86311521D01*
X83137110Y-86242790D01*
X83068379Y-86159042D01*
X83017308Y-86063494D01*
X82985858Y-85959819D01*
X82975239Y-85852000D01*
X82985858Y-85744181D01*
X83017308Y-85640506D01*
X83068379Y-85544958D01*
X83137110Y-85461210D01*
X83220858Y-85392479D01*
X83316406Y-85341408D01*
X83420081Y-85309958D01*
X83500882Y-85302000D01*
X83554918Y-85302000D01*
X83635719Y-85309958D01*
X83635719Y-85309958D01*
G37*
G36*
X82365719Y-85309958D02*
X82469394Y-85341408D01*
X82564942Y-85392479D01*
X82648690Y-85461210D01*
X82717421Y-85544958D01*
X82768492Y-85640506D01*
X82799942Y-85744181D01*
X82810561Y-85852000D01*
X82799942Y-85959819D01*
X82768492Y-86063494D01*
X82717421Y-86159042D01*
X82648690Y-86242790D01*
X82564942Y-86311521D01*
X82469394Y-86362592D01*
X82365719Y-86394042D01*
X82284918Y-86402000D01*
X82230882Y-86402000D01*
X82150081Y-86394042D01*
X82046406Y-86362592D01*
X81950858Y-86311521D01*
X81867110Y-86242790D01*
X81798379Y-86159042D01*
X81747308Y-86063494D01*
X81715858Y-85959819D01*
X81705239Y-85852000D01*
X81715858Y-85744181D01*
X81747308Y-85640506D01*
X81798379Y-85544958D01*
X81867110Y-85461210D01*
X81950858Y-85392479D01*
X82046406Y-85341408D01*
X82150081Y-85309958D01*
X82230882Y-85302000D01*
X82284918Y-85302000D01*
X82365719Y-85309958D01*
X82365719Y-85309958D01*
G37*
G36*
X98700000Y-86150000D02*
X98100000Y-86150000D01*
X98100000Y-85550000D01*
X98700000Y-85550000D01*
X98700000Y-86150000D01*
X98700000Y-86150000D01*
G37*
G36*
X89900000Y-86150000D02*
X89300000Y-86150000D01*
X89300000Y-85550000D01*
X89900000Y-85550000D01*
X89900000Y-86150000D01*
X89900000Y-86150000D01*
G37*
G36*
X102201396Y-85077313D02*
X102239907Y-85088995D01*
X102275400Y-85107966D01*
X102306506Y-85133494D01*
X102332034Y-85164600D01*
X102351005Y-85200093D01*
X102362687Y-85238604D01*
X102367000Y-85282393D01*
X102367000Y-85913607D01*
X102362687Y-85957396D01*
X102351005Y-85995907D01*
X102332034Y-86031400D01*
X102306506Y-86062506D01*
X102275400Y-86088034D01*
X102239907Y-86107005D01*
X102201396Y-86118687D01*
X102157607Y-86123000D01*
X101601393Y-86123000D01*
X101557604Y-86118687D01*
X101519093Y-86107005D01*
X101483600Y-86088034D01*
X101452494Y-86062506D01*
X101426966Y-86031400D01*
X101407995Y-85995907D01*
X101396313Y-85957396D01*
X101392000Y-85913607D01*
X101392000Y-85282393D01*
X101396313Y-85238604D01*
X101407995Y-85200093D01*
X101426966Y-85164600D01*
X101452494Y-85133494D01*
X101483600Y-85107966D01*
X101519093Y-85088995D01*
X101557604Y-85077313D01*
X101601393Y-85073000D01*
X102157607Y-85073000D01*
X102201396Y-85077313D01*
X102201396Y-85077313D01*
G37*
G36*
X100626396Y-85077313D02*
X100664907Y-85088995D01*
X100700400Y-85107966D01*
X100731506Y-85133494D01*
X100757034Y-85164600D01*
X100776005Y-85200093D01*
X100787687Y-85238604D01*
X100792000Y-85282393D01*
X100792000Y-85913607D01*
X100787687Y-85957396D01*
X100776005Y-85995907D01*
X100757034Y-86031400D01*
X100731506Y-86062506D01*
X100700400Y-86088034D01*
X100664907Y-86107005D01*
X100626396Y-86118687D01*
X100582607Y-86123000D01*
X100026393Y-86123000D01*
X99982604Y-86118687D01*
X99944093Y-86107005D01*
X99908600Y-86088034D01*
X99877494Y-86062506D01*
X99851966Y-86031400D01*
X99832995Y-85995907D01*
X99821313Y-85957396D01*
X99817000Y-85913607D01*
X99817000Y-85282393D01*
X99821313Y-85238604D01*
X99832995Y-85200093D01*
X99851966Y-85164600D01*
X99877494Y-85133494D01*
X99908600Y-85107966D01*
X99944093Y-85088995D01*
X99982604Y-85077313D01*
X100026393Y-85073000D01*
X100582607Y-85073000D01*
X100626396Y-85077313D01*
X100626396Y-85077313D01*
G37*
G36*
X97750000Y-85600000D02*
X97150000Y-85600000D01*
X97150000Y-85000000D01*
X97750000Y-85000000D01*
X97750000Y-85600000D01*
X97750000Y-85600000D01*
G37*
G36*
X90800000Y-85600000D02*
X90200000Y-85600000D01*
X90200000Y-85000000D01*
X90800000Y-85000000D01*
X90800000Y-85600000D01*
X90800000Y-85600000D01*
G37*
G36*
X83635719Y-84039958D02*
X83739394Y-84071408D01*
X83834942Y-84122479D01*
X83918690Y-84191210D01*
X83987421Y-84274958D01*
X84038492Y-84370506D01*
X84069942Y-84474181D01*
X84080561Y-84582000D01*
X84069942Y-84689819D01*
X84038492Y-84793494D01*
X83987421Y-84889042D01*
X83918690Y-84972790D01*
X83834942Y-85041521D01*
X83739394Y-85092592D01*
X83635719Y-85124042D01*
X83554918Y-85132000D01*
X83500882Y-85132000D01*
X83420081Y-85124042D01*
X83316406Y-85092592D01*
X83220858Y-85041521D01*
X83137110Y-84972790D01*
X83068379Y-84889042D01*
X83017308Y-84793494D01*
X82985858Y-84689819D01*
X82975239Y-84582000D01*
X82985858Y-84474181D01*
X83017308Y-84370506D01*
X83068379Y-84274958D01*
X83137110Y-84191210D01*
X83220858Y-84122479D01*
X83316406Y-84071408D01*
X83420081Y-84039958D01*
X83500882Y-84032000D01*
X83554918Y-84032000D01*
X83635719Y-84039958D01*
X83635719Y-84039958D01*
G37*
G36*
X82807900Y-85132000D02*
X81707900Y-85132000D01*
X81707900Y-84032000D01*
X82807900Y-84032000D01*
X82807900Y-85132000D01*
X82807900Y-85132000D01*
G37*
G36*
X98700000Y-85050000D02*
X98100000Y-85050000D01*
X98100000Y-84450000D01*
X98700000Y-84450000D01*
X98700000Y-85050000D01*
X98700000Y-85050000D01*
G37*
G36*
X89900000Y-85050000D02*
X89300000Y-85050000D01*
X89300000Y-84450000D01*
X89900000Y-84450000D01*
X89900000Y-85050000D01*
X89900000Y-85050000D01*
G37*
G36*
X102201396Y-83615714D02*
X102239907Y-83627396D01*
X102275400Y-83646367D01*
X102306506Y-83671895D01*
X102332034Y-83703001D01*
X102351005Y-83738494D01*
X102362687Y-83777005D01*
X102367000Y-83820794D01*
X102367000Y-84452008D01*
X102362687Y-84495797D01*
X102351005Y-84534308D01*
X102332034Y-84569801D01*
X102306506Y-84600907D01*
X102275400Y-84626435D01*
X102239907Y-84645406D01*
X102201396Y-84657088D01*
X102157607Y-84661401D01*
X101601393Y-84661401D01*
X101557604Y-84657088D01*
X101519093Y-84645406D01*
X101483600Y-84626435D01*
X101452494Y-84600907D01*
X101426966Y-84569801D01*
X101407995Y-84534308D01*
X101396313Y-84495797D01*
X101392000Y-84452008D01*
X101392000Y-83820794D01*
X101396313Y-83777005D01*
X101407995Y-83738494D01*
X101426966Y-83703001D01*
X101452494Y-83671895D01*
X101483600Y-83646367D01*
X101519093Y-83627396D01*
X101557604Y-83615714D01*
X101601393Y-83611401D01*
X102157607Y-83611401D01*
X102201396Y-83615714D01*
X102201396Y-83615714D01*
G37*
G36*
X100626396Y-83615714D02*
X100664907Y-83627396D01*
X100700400Y-83646367D01*
X100731506Y-83671895D01*
X100757034Y-83703001D01*
X100776005Y-83738494D01*
X100787687Y-83777005D01*
X100792000Y-83820794D01*
X100792000Y-84452008D01*
X100787687Y-84495797D01*
X100776005Y-84534308D01*
X100757034Y-84569801D01*
X100731506Y-84600907D01*
X100700400Y-84626435D01*
X100664907Y-84645406D01*
X100626396Y-84657088D01*
X100582607Y-84661401D01*
X100026393Y-84661401D01*
X99982604Y-84657088D01*
X99944093Y-84645406D01*
X99908600Y-84626435D01*
X99877494Y-84600907D01*
X99851966Y-84569801D01*
X99832995Y-84534308D01*
X99821313Y-84495797D01*
X99817000Y-84452008D01*
X99817000Y-83820794D01*
X99821313Y-83777005D01*
X99832995Y-83738494D01*
X99851966Y-83703001D01*
X99877494Y-83671895D01*
X99908600Y-83646367D01*
X99944093Y-83627396D01*
X99982604Y-83615714D01*
X100026393Y-83611401D01*
X100582607Y-83611401D01*
X100626396Y-83615714D01*
X100626396Y-83615714D01*
G37*
G36*
X90800000Y-84500000D02*
X90200000Y-84500000D01*
X90200000Y-83900000D01*
X90800000Y-83900000D01*
X90800000Y-84500000D01*
X90800000Y-84500000D01*
G37*
G36*
X97750000Y-84500000D02*
X97150000Y-84500000D01*
X97150000Y-83900000D01*
X97750000Y-83900000D01*
X97750000Y-84500000D01*
X97750000Y-84500000D01*
G37*
G36*
X89900000Y-83950000D02*
X89300000Y-83950000D01*
X89300000Y-83350000D01*
X89900000Y-83350000D01*
X89900000Y-83950000D01*
X89900000Y-83950000D01*
G37*
G36*
X98700000Y-83950000D02*
X98100000Y-83950000D01*
X98100000Y-83350000D01*
X98700000Y-83350000D01*
X98700000Y-83950000D01*
X98700000Y-83950000D01*
G37*
G36*
X91550000Y-83800000D02*
X90950000Y-83800000D01*
X90950000Y-83200000D01*
X91550000Y-83200000D01*
X91550000Y-83800000D01*
X91550000Y-83800000D01*
G37*
G36*
X93750000Y-83800000D02*
X93150000Y-83800000D01*
X93150000Y-83200000D01*
X93750000Y-83200000D01*
X93750000Y-83800000D01*
X93750000Y-83800000D01*
G37*
G36*
X92650000Y-83800000D02*
X92050000Y-83800000D01*
X92050000Y-83200000D01*
X92650000Y-83200000D01*
X92650000Y-83800000D01*
X92650000Y-83800000D01*
G37*
G36*
X95950000Y-83800000D02*
X95350000Y-83800000D01*
X95350000Y-83200000D01*
X95950000Y-83200000D01*
X95950000Y-83800000D01*
X95950000Y-83800000D01*
G37*
G36*
X97050000Y-83800000D02*
X96450000Y-83800000D01*
X96450000Y-83200000D01*
X97050000Y-83200000D01*
X97050000Y-83800000D01*
X97050000Y-83800000D01*
G37*
G36*
X94850000Y-83800000D02*
X94250000Y-83800000D01*
X94250000Y-83200000D01*
X94850000Y-83200000D01*
X94850000Y-83800000D01*
X94850000Y-83800000D01*
G37*
G36*
X109347200Y-83498800D02*
X108447200Y-83498800D01*
X108447200Y-82398800D01*
X109347200Y-82398800D01*
X109347200Y-83498800D01*
X109347200Y-83498800D01*
G37*
G36*
X111557200Y-83498800D02*
X110657200Y-83498800D01*
X110657200Y-82398800D01*
X111557200Y-82398800D01*
X111557200Y-83498800D01*
X111557200Y-83498800D01*
G37*
G36*
X102201396Y-82105714D02*
X102239907Y-82117396D01*
X102275400Y-82136367D01*
X102306506Y-82161895D01*
X102332034Y-82193001D01*
X102351005Y-82228494D01*
X102362687Y-82267005D01*
X102367000Y-82310794D01*
X102367000Y-82942008D01*
X102362687Y-82985797D01*
X102351005Y-83024308D01*
X102332034Y-83059801D01*
X102306506Y-83090907D01*
X102275400Y-83116435D01*
X102239907Y-83135406D01*
X102201396Y-83147088D01*
X102157607Y-83151401D01*
X101601393Y-83151401D01*
X101557604Y-83147088D01*
X101519093Y-83135406D01*
X101483600Y-83116435D01*
X101452494Y-83090907D01*
X101426966Y-83059801D01*
X101407995Y-83024308D01*
X101396313Y-82985797D01*
X101392000Y-82942008D01*
X101392000Y-82310794D01*
X101396313Y-82267005D01*
X101407995Y-82228494D01*
X101426966Y-82193001D01*
X101452494Y-82161895D01*
X101483600Y-82136367D01*
X101519093Y-82117396D01*
X101557604Y-82105714D01*
X101601393Y-82101401D01*
X102157607Y-82101401D01*
X102201396Y-82105714D01*
X102201396Y-82105714D01*
G37*
G36*
X100626396Y-82105714D02*
X100664907Y-82117396D01*
X100700400Y-82136367D01*
X100731506Y-82161895D01*
X100757034Y-82193001D01*
X100776005Y-82228494D01*
X100787687Y-82267005D01*
X100792000Y-82310794D01*
X100792000Y-82942008D01*
X100787687Y-82985797D01*
X100776005Y-83024308D01*
X100757034Y-83059801D01*
X100731506Y-83090907D01*
X100700400Y-83116435D01*
X100664907Y-83135406D01*
X100626396Y-83147088D01*
X100582607Y-83151401D01*
X100026393Y-83151401D01*
X99982604Y-83147088D01*
X99944093Y-83135406D01*
X99908600Y-83116435D01*
X99877494Y-83090907D01*
X99851966Y-83059801D01*
X99832995Y-83024308D01*
X99821313Y-82985797D01*
X99817000Y-82942008D01*
X99817000Y-82310794D01*
X99821313Y-82267005D01*
X99832995Y-82228494D01*
X99851966Y-82193001D01*
X99877494Y-82161895D01*
X99908600Y-82136367D01*
X99944093Y-82117396D01*
X99982604Y-82105714D01*
X100026393Y-82101401D01*
X100582607Y-82101401D01*
X100626396Y-82105714D01*
X100626396Y-82105714D01*
G37*
G36*
X92100000Y-82850000D02*
X91500000Y-82850000D01*
X91500000Y-82250000D01*
X92100000Y-82250000D01*
X92100000Y-82850000D01*
X92100000Y-82850000D01*
G37*
G36*
X97600000Y-82850000D02*
X97000000Y-82850000D01*
X97000000Y-82250000D01*
X97600000Y-82250000D01*
X97600000Y-82850000D01*
X97600000Y-82850000D01*
G37*
G36*
X96500000Y-82850000D02*
X95900000Y-82850000D01*
X95900000Y-82250000D01*
X96500000Y-82250000D01*
X96500000Y-82850000D01*
X96500000Y-82850000D01*
G37*
G36*
X95400000Y-82850000D02*
X94800000Y-82850000D01*
X94800000Y-82250000D01*
X95400000Y-82250000D01*
X95400000Y-82850000D01*
X95400000Y-82850000D01*
G37*
G36*
X94300000Y-82850000D02*
X93700000Y-82850000D01*
X93700000Y-82250000D01*
X94300000Y-82250000D01*
X94300000Y-82850000D01*
X94300000Y-82850000D01*
G37*
G36*
X93200000Y-82850000D02*
X92600000Y-82850000D01*
X92600000Y-82250000D01*
X93200000Y-82250000D01*
X93200000Y-82850000D01*
X93200000Y-82850000D01*
G37*
G36*
X91000000Y-82850000D02*
X90400000Y-82850000D01*
X90400000Y-82250000D01*
X91000000Y-82250000D01*
X91000000Y-82850000D01*
X91000000Y-82850000D01*
G37*
G36*
X89900000Y-82850000D02*
X89300000Y-82850000D01*
X89300000Y-82250000D01*
X89900000Y-82250000D01*
X89900000Y-82850000D01*
X89900000Y-82850000D01*
G37*
G36*
X98700000Y-82850000D02*
X98100000Y-82850000D01*
X98100000Y-82250000D01*
X98700000Y-82250000D01*
X98700000Y-82850000D01*
X98700000Y-82850000D01*
G37*
G36*
X109047200Y-81948800D02*
X107447200Y-81948800D01*
X107447200Y-81148800D01*
X109047200Y-81148800D01*
X109047200Y-81948800D01*
X109047200Y-81948800D01*
G37*
G36*
X110153045Y-80318015D02*
X110243131Y-80355330D01*
X110244041Y-80355707D01*
X110325928Y-80410422D01*
X110395578Y-80480072D01*
X110450293Y-80561959D01*
X110487985Y-80652956D01*
X110507200Y-80749555D01*
X110507200Y-80848045D01*
X110487985Y-80944644D01*
X110450293Y-81035641D01*
X110395578Y-81117528D01*
X110325928Y-81187178D01*
X110244041Y-81241893D01*
X110244040Y-81241894D01*
X110244039Y-81241894D01*
X110153045Y-81279585D01*
X110056446Y-81298800D01*
X109957954Y-81298800D01*
X109861355Y-81279585D01*
X109770361Y-81241894D01*
X109770360Y-81241894D01*
X109770359Y-81241893D01*
X109688472Y-81187178D01*
X109618822Y-81117528D01*
X109564107Y-81035641D01*
X109526415Y-80944644D01*
X109507200Y-80848045D01*
X109507200Y-80749555D01*
X109526415Y-80652956D01*
X109564107Y-80561959D01*
X109618822Y-80480072D01*
X109688472Y-80410422D01*
X109770359Y-80355707D01*
X109771269Y-80355330D01*
X109861355Y-80318015D01*
X109957954Y-80298800D01*
X110056446Y-80298800D01*
X110153045Y-80318015D01*
X110153045Y-80318015D01*
G37*
G36*
X99153396Y-80251313D02*
X99191907Y-80262995D01*
X99227400Y-80281966D01*
X99258506Y-80307494D01*
X99284034Y-80338600D01*
X99303005Y-80374093D01*
X99314687Y-80412604D01*
X99319000Y-80456393D01*
X99319000Y-81087607D01*
X99314687Y-81131396D01*
X99303005Y-81169907D01*
X99284034Y-81205400D01*
X99258506Y-81236506D01*
X99227400Y-81262034D01*
X99191907Y-81281005D01*
X99153396Y-81292687D01*
X99109607Y-81297000D01*
X98553393Y-81297000D01*
X98509604Y-81292687D01*
X98471093Y-81281005D01*
X98435600Y-81262034D01*
X98404494Y-81236506D01*
X98378966Y-81205400D01*
X98359995Y-81169907D01*
X98348313Y-81131396D01*
X98344000Y-81087607D01*
X98344000Y-80456393D01*
X98348313Y-80412604D01*
X98359995Y-80374093D01*
X98378966Y-80338600D01*
X98404494Y-80307494D01*
X98435600Y-80281966D01*
X98471093Y-80262995D01*
X98509604Y-80251313D01*
X98553393Y-80247000D01*
X99109607Y-80247000D01*
X99153396Y-80251313D01*
X99153396Y-80251313D01*
G37*
G36*
X97578396Y-80251313D02*
X97616907Y-80262995D01*
X97652400Y-80281966D01*
X97683506Y-80307494D01*
X97709034Y-80338600D01*
X97728005Y-80374093D01*
X97739687Y-80412604D01*
X97744000Y-80456393D01*
X97744000Y-81087607D01*
X97739687Y-81131396D01*
X97728005Y-81169907D01*
X97709034Y-81205400D01*
X97683506Y-81236506D01*
X97652400Y-81262034D01*
X97616907Y-81281005D01*
X97578396Y-81292687D01*
X97534607Y-81297000D01*
X96978393Y-81297000D01*
X96934604Y-81292687D01*
X96896093Y-81281005D01*
X96860600Y-81262034D01*
X96829494Y-81236506D01*
X96803966Y-81205400D01*
X96784995Y-81169907D01*
X96773313Y-81131396D01*
X96769000Y-81087607D01*
X96769000Y-80456393D01*
X96773313Y-80412604D01*
X96784995Y-80374093D01*
X96803966Y-80338600D01*
X96829494Y-80307494D01*
X96860600Y-80281966D01*
X96896093Y-80262995D01*
X96934604Y-80251313D01*
X96978393Y-80247000D01*
X97534607Y-80247000D01*
X97578396Y-80251313D01*
X97578396Y-80251313D01*
G37*
G36*
X109047200Y-78948800D02*
X107447200Y-78948800D01*
X107447200Y-78148800D01*
X109047200Y-78148800D01*
X109047200Y-78948800D01*
X109047200Y-78948800D01*
G37*
G36*
X90578300Y-78305800D02*
X88278300Y-78305800D01*
X88278300Y-77055800D01*
X90578300Y-77055800D01*
X90578300Y-78305800D01*
X90578300Y-78305800D01*
G37*
G36*
X110153045Y-77318015D02*
X110228986Y-77349471D01*
X110244041Y-77355707D01*
X110325928Y-77410422D01*
X110395578Y-77480072D01*
X110450293Y-77561959D01*
X110450294Y-77561961D01*
X110487985Y-77652955D01*
X110507200Y-77749554D01*
X110507200Y-77848046D01*
X110487985Y-77944645D01*
X110450294Y-78035639D01*
X110450293Y-78035641D01*
X110395578Y-78117528D01*
X110325928Y-78187178D01*
X110244041Y-78241893D01*
X110244040Y-78241894D01*
X110244039Y-78241894D01*
X110153045Y-78279585D01*
X110056446Y-78298800D01*
X109957954Y-78298800D01*
X109861355Y-78279585D01*
X109770361Y-78241894D01*
X109770360Y-78241894D01*
X109770359Y-78241893D01*
X109688472Y-78187178D01*
X109618822Y-78117528D01*
X109564107Y-78035641D01*
X109564106Y-78035639D01*
X109526415Y-77944645D01*
X109507200Y-77848046D01*
X109507200Y-77749554D01*
X109526415Y-77652955D01*
X109564106Y-77561961D01*
X109564107Y-77561959D01*
X109618822Y-77480072D01*
X109688472Y-77410422D01*
X109770359Y-77355707D01*
X109785414Y-77349471D01*
X109861355Y-77318015D01*
X109957954Y-77298800D01*
X110056446Y-77298800D01*
X110153045Y-77318015D01*
X110153045Y-77318015D01*
G37*
G36*
X96359396Y-77203313D02*
X96397907Y-77214995D01*
X96433400Y-77233966D01*
X96464506Y-77259494D01*
X96490034Y-77290600D01*
X96509005Y-77326093D01*
X96520687Y-77364604D01*
X96525000Y-77408393D01*
X96525000Y-78039607D01*
X96520687Y-78083396D01*
X96509005Y-78121907D01*
X96490034Y-78157400D01*
X96464506Y-78188506D01*
X96433400Y-78214034D01*
X96397907Y-78233005D01*
X96359396Y-78244687D01*
X96315607Y-78249000D01*
X95759393Y-78249000D01*
X95715604Y-78244687D01*
X95677093Y-78233005D01*
X95641600Y-78214034D01*
X95610494Y-78188506D01*
X95584966Y-78157400D01*
X95565995Y-78121907D01*
X95554313Y-78083396D01*
X95550000Y-78039607D01*
X95550000Y-77408393D01*
X95554313Y-77364604D01*
X95565995Y-77326093D01*
X95584966Y-77290600D01*
X95610494Y-77259494D01*
X95641600Y-77233966D01*
X95677093Y-77214995D01*
X95715604Y-77203313D01*
X95759393Y-77199000D01*
X96315607Y-77199000D01*
X96359396Y-77203313D01*
X96359396Y-77203313D01*
G37*
G36*
X94784396Y-77203313D02*
X94822907Y-77214995D01*
X94858400Y-77233966D01*
X94889506Y-77259494D01*
X94915034Y-77290600D01*
X94934005Y-77326093D01*
X94945687Y-77364604D01*
X94950000Y-77408393D01*
X94950000Y-78039607D01*
X94945687Y-78083396D01*
X94934005Y-78121907D01*
X94915034Y-78157400D01*
X94889506Y-78188506D01*
X94858400Y-78214034D01*
X94822907Y-78233005D01*
X94784396Y-78244687D01*
X94740607Y-78249000D01*
X94184393Y-78249000D01*
X94140604Y-78244687D01*
X94102093Y-78233005D01*
X94066600Y-78214034D01*
X94035494Y-78188506D01*
X94009966Y-78157400D01*
X93990995Y-78121907D01*
X93979313Y-78083396D01*
X93975000Y-78039607D01*
X93975000Y-77408393D01*
X93979313Y-77364604D01*
X93990995Y-77326093D01*
X94009966Y-77290600D01*
X94035494Y-77259494D01*
X94066600Y-77233966D01*
X94102093Y-77214995D01*
X94140604Y-77203313D01*
X94184393Y-77199000D01*
X94740607Y-77199000D01*
X94784396Y-77203313D01*
X94784396Y-77203313D01*
G37*
G36*
X87953300Y-77905800D02*
X86603300Y-77905800D01*
X86603300Y-76645800D01*
X87953300Y-76645800D01*
X87953300Y-77905800D01*
X87953300Y-77905800D01*
G37*
G36*
X78928300Y-77905800D02*
X77628300Y-77905800D01*
X77628300Y-76645800D01*
X78928300Y-76645800D01*
X78928300Y-77905800D01*
X78928300Y-77905800D01*
G37*
G36*
X109047200Y-77448800D02*
X107447200Y-77448800D01*
X107447200Y-76648800D01*
X109047200Y-76648800D01*
X109047200Y-77448800D01*
X109047200Y-77448800D01*
G37*
G36*
X96359396Y-75679313D02*
X96397907Y-75690995D01*
X96433400Y-75709966D01*
X96464506Y-75735494D01*
X96490034Y-75766600D01*
X96509005Y-75802093D01*
X96520687Y-75840604D01*
X96525000Y-75884393D01*
X96525000Y-76515607D01*
X96520687Y-76559396D01*
X96509005Y-76597907D01*
X96490034Y-76633400D01*
X96464506Y-76664506D01*
X96433400Y-76690034D01*
X96397907Y-76709005D01*
X96359396Y-76720687D01*
X96315607Y-76725000D01*
X95759393Y-76725000D01*
X95715604Y-76720687D01*
X95677093Y-76709005D01*
X95641600Y-76690034D01*
X95610494Y-76664506D01*
X95584966Y-76633400D01*
X95565995Y-76597907D01*
X95554313Y-76559396D01*
X95550000Y-76515607D01*
X95550000Y-75884393D01*
X95554313Y-75840604D01*
X95565995Y-75802093D01*
X95584966Y-75766600D01*
X95610494Y-75735494D01*
X95641600Y-75709966D01*
X95677093Y-75690995D01*
X95715604Y-75679313D01*
X95759393Y-75675000D01*
X96315607Y-75675000D01*
X96359396Y-75679313D01*
X96359396Y-75679313D01*
G37*
G36*
X94784396Y-75679313D02*
X94822907Y-75690995D01*
X94858400Y-75709966D01*
X94889506Y-75735494D01*
X94915034Y-75766600D01*
X94934005Y-75802093D01*
X94945687Y-75840604D01*
X94950000Y-75884393D01*
X94950000Y-76515607D01*
X94945687Y-76559396D01*
X94934005Y-76597907D01*
X94915034Y-76633400D01*
X94889506Y-76664506D01*
X94858400Y-76690034D01*
X94822907Y-76709005D01*
X94784396Y-76720687D01*
X94740607Y-76725000D01*
X94184393Y-76725000D01*
X94140604Y-76720687D01*
X94102093Y-76709005D01*
X94066600Y-76690034D01*
X94035494Y-76664506D01*
X94009966Y-76633400D01*
X93990995Y-76597907D01*
X93979313Y-76559396D01*
X93975000Y-76515607D01*
X93975000Y-75884393D01*
X93979313Y-75840604D01*
X93990995Y-75802093D01*
X94009966Y-75766600D01*
X94035494Y-75735494D01*
X94066600Y-75709966D01*
X94102093Y-75690995D01*
X94140604Y-75679313D01*
X94184393Y-75675000D01*
X94740607Y-75675000D01*
X94784396Y-75679313D01*
X94784396Y-75679313D01*
G37*
G36*
X77778300Y-76275800D02*
X76528300Y-76275800D01*
X76528300Y-74675800D01*
X77778300Y-74675800D01*
X77778300Y-76275800D01*
X77778300Y-76275800D01*
G37*
G36*
X111557200Y-76198800D02*
X110657200Y-76198800D01*
X110657200Y-75098800D01*
X111557200Y-75098800D01*
X111557200Y-76198800D01*
X111557200Y-76198800D01*
G37*
G36*
X109347200Y-76198800D02*
X108447200Y-76198800D01*
X108447200Y-75098800D01*
X109347200Y-75098800D01*
X109347200Y-76198800D01*
X109347200Y-76198800D01*
G37*
G36*
X90578300Y-75785800D02*
X89238300Y-75785800D01*
X89238300Y-74885800D01*
X90578300Y-74885800D01*
X90578300Y-75785800D01*
X90578300Y-75785800D01*
G37*
G36*
X99556000Y-75747000D02*
X98396000Y-75747000D01*
X98396000Y-74997000D01*
X99556000Y-74997000D01*
X99556000Y-75747000D01*
X99556000Y-75747000D01*
G37*
G36*
X101756000Y-75747000D02*
X100596000Y-75747000D01*
X100596000Y-74997000D01*
X101756000Y-74997000D01*
X101756000Y-75747000D01*
X101756000Y-75747000D01*
G37*
G36*
X99556000Y-74797000D02*
X98396000Y-74797000D01*
X98396000Y-74047000D01*
X99556000Y-74047000D01*
X99556000Y-74797000D01*
X99556000Y-74797000D01*
G37*
G36*
X90578300Y-74685800D02*
X89238300Y-74685800D01*
X89238300Y-73785800D01*
X90578300Y-73785800D01*
X90578300Y-74685800D01*
X90578300Y-74685800D01*
G37*
G36*
X103229396Y-72948313D02*
X103267907Y-72959995D01*
X103303400Y-72978966D01*
X103334506Y-73004494D01*
X103360034Y-73035600D01*
X103379005Y-73071093D01*
X103390687Y-73109604D01*
X103395000Y-73153393D01*
X103395000Y-73709607D01*
X103390687Y-73753396D01*
X103379005Y-73791907D01*
X103360034Y-73827400D01*
X103334506Y-73858506D01*
X103303400Y-73884034D01*
X103267907Y-73903005D01*
X103229396Y-73914687D01*
X103185607Y-73919000D01*
X102554393Y-73919000D01*
X102510604Y-73914687D01*
X102472093Y-73903005D01*
X102436600Y-73884034D01*
X102405494Y-73858506D01*
X102379966Y-73827400D01*
X102360995Y-73791907D01*
X102349313Y-73753396D01*
X102345000Y-73709607D01*
X102345000Y-73153393D01*
X102349313Y-73109604D01*
X102360995Y-73071093D01*
X102379966Y-73035600D01*
X102405494Y-73004494D01*
X102436600Y-72978966D01*
X102472093Y-72959995D01*
X102510604Y-72948313D01*
X102554393Y-72944000D01*
X103185607Y-72944000D01*
X103229396Y-72948313D01*
X103229396Y-72948313D01*
G37*
G36*
X101756000Y-73847000D02*
X100596000Y-73847000D01*
X100596000Y-73097000D01*
X101756000Y-73097000D01*
X101756000Y-73847000D01*
X101756000Y-73847000D01*
G37*
G36*
X99556000Y-73847000D02*
X98396000Y-73847000D01*
X98396000Y-73097000D01*
X99556000Y-73097000D01*
X99556000Y-73847000D01*
X99556000Y-73847000D01*
G37*
G36*
X90578300Y-73585800D02*
X89238300Y-73585800D01*
X89238300Y-72685800D01*
X90578300Y-72685800D01*
X90578300Y-73585800D01*
X90578300Y-73585800D01*
G37*
G36*
X90578300Y-72485800D02*
X89238300Y-72485800D01*
X89238300Y-71585800D01*
X90578300Y-71585800D01*
X90578300Y-72485800D01*
X90578300Y-72485800D01*
G37*
G36*
X103229396Y-71373313D02*
X103267907Y-71384995D01*
X103303400Y-71403966D01*
X103334506Y-71429494D01*
X103360034Y-71460600D01*
X103379005Y-71496093D01*
X103390687Y-71534604D01*
X103395000Y-71578393D01*
X103395000Y-72134607D01*
X103390687Y-72178396D01*
X103379005Y-72216907D01*
X103360034Y-72252400D01*
X103334506Y-72283506D01*
X103303400Y-72309034D01*
X103267907Y-72328005D01*
X103229396Y-72339687D01*
X103185607Y-72344000D01*
X102554393Y-72344000D01*
X102510604Y-72339687D01*
X102472093Y-72328005D01*
X102436600Y-72309034D01*
X102405494Y-72283506D01*
X102379966Y-72252400D01*
X102360995Y-72216907D01*
X102349313Y-72178396D01*
X102345000Y-72134607D01*
X102345000Y-71578393D01*
X102349313Y-71534604D01*
X102360995Y-71496093D01*
X102379966Y-71460600D01*
X102405494Y-71429494D01*
X102436600Y-71403966D01*
X102472093Y-71384995D01*
X102510604Y-71373313D01*
X102554393Y-71369000D01*
X103185607Y-71369000D01*
X103229396Y-71373313D01*
X103229396Y-71373313D01*
G37*
G36*
X100931396Y-71107313D02*
X100969907Y-71118995D01*
X101005400Y-71137966D01*
X101036506Y-71163494D01*
X101062034Y-71194600D01*
X101081005Y-71230093D01*
X101092687Y-71268604D01*
X101097000Y-71312393D01*
X101097000Y-71943607D01*
X101092687Y-71987396D01*
X101081005Y-72025907D01*
X101062034Y-72061400D01*
X101036506Y-72092506D01*
X101005400Y-72118034D01*
X100969907Y-72137005D01*
X100931396Y-72148687D01*
X100887607Y-72153000D01*
X100331393Y-72153000D01*
X100287604Y-72148687D01*
X100249093Y-72137005D01*
X100213600Y-72118034D01*
X100182494Y-72092506D01*
X100156966Y-72061400D01*
X100137995Y-72025907D01*
X100126313Y-71987396D01*
X100122000Y-71943607D01*
X100122000Y-71312393D01*
X100126313Y-71268604D01*
X100137995Y-71230093D01*
X100156966Y-71194600D01*
X100182494Y-71163494D01*
X100213600Y-71137966D01*
X100249093Y-71118995D01*
X100287604Y-71107313D01*
X100331393Y-71103000D01*
X100887607Y-71103000D01*
X100931396Y-71107313D01*
X100931396Y-71107313D01*
G37*
G36*
X99356396Y-71107313D02*
X99394907Y-71118995D01*
X99430400Y-71137966D01*
X99461506Y-71163494D01*
X99487034Y-71194600D01*
X99506005Y-71230093D01*
X99517687Y-71268604D01*
X99522000Y-71312393D01*
X99522000Y-71943607D01*
X99517687Y-71987396D01*
X99506005Y-72025907D01*
X99487034Y-72061400D01*
X99461506Y-72092506D01*
X99430400Y-72118034D01*
X99394907Y-72137005D01*
X99356396Y-72148687D01*
X99312607Y-72153000D01*
X98756393Y-72153000D01*
X98712604Y-72148687D01*
X98674093Y-72137005D01*
X98638600Y-72118034D01*
X98607494Y-72092506D01*
X98581966Y-72061400D01*
X98562995Y-72025907D01*
X98551313Y-71987396D01*
X98547000Y-71943607D01*
X98547000Y-71312393D01*
X98551313Y-71268604D01*
X98562995Y-71230093D01*
X98581966Y-71194600D01*
X98607494Y-71163494D01*
X98638600Y-71137966D01*
X98674093Y-71118995D01*
X98712604Y-71107313D01*
X98756393Y-71103000D01*
X99312607Y-71103000D01*
X99356396Y-71107313D01*
X99356396Y-71107313D01*
G37*
G36*
X95199727Y-70436507D02*
X95238238Y-70448189D01*
X95273731Y-70467160D01*
X95304837Y-70492688D01*
X95330365Y-70523794D01*
X95349336Y-70559287D01*
X95361018Y-70597798D01*
X95365331Y-70641587D01*
X95365331Y-71272801D01*
X95361018Y-71316590D01*
X95349336Y-71355101D01*
X95330365Y-71390594D01*
X95304837Y-71421700D01*
X95273731Y-71447228D01*
X95238238Y-71466199D01*
X95199727Y-71477881D01*
X95155938Y-71482194D01*
X94599724Y-71482194D01*
X94555935Y-71477881D01*
X94517424Y-71466199D01*
X94481931Y-71447228D01*
X94450825Y-71421700D01*
X94425297Y-71390594D01*
X94406326Y-71355101D01*
X94394644Y-71316590D01*
X94390331Y-71272801D01*
X94390331Y-70641587D01*
X94394644Y-70597798D01*
X94406326Y-70559287D01*
X94425297Y-70523794D01*
X94450825Y-70492688D01*
X94481931Y-70467160D01*
X94517424Y-70448189D01*
X94555935Y-70436507D01*
X94599724Y-70432194D01*
X95155938Y-70432194D01*
X95199727Y-70436507D01*
X95199727Y-70436507D01*
G37*
G36*
X93624727Y-70436507D02*
X93663238Y-70448189D01*
X93698731Y-70467160D01*
X93729837Y-70492688D01*
X93755365Y-70523794D01*
X93774336Y-70559287D01*
X93786018Y-70597798D01*
X93790331Y-70641587D01*
X93790331Y-71272801D01*
X93786018Y-71316590D01*
X93774336Y-71355101D01*
X93755365Y-71390594D01*
X93729837Y-71421700D01*
X93698731Y-71447228D01*
X93663238Y-71466199D01*
X93624727Y-71477881D01*
X93580938Y-71482194D01*
X93024724Y-71482194D01*
X92980935Y-71477881D01*
X92942424Y-71466199D01*
X92906931Y-71447228D01*
X92875825Y-71421700D01*
X92850297Y-71390594D01*
X92831326Y-71355101D01*
X92819644Y-71316590D01*
X92815331Y-71272801D01*
X92815331Y-70641587D01*
X92819644Y-70597798D01*
X92831326Y-70559287D01*
X92850297Y-70523794D01*
X92875825Y-70492688D01*
X92906931Y-70467160D01*
X92942424Y-70448189D01*
X92980935Y-70436507D01*
X93024724Y-70432194D01*
X93580938Y-70432194D01*
X93624727Y-70436507D01*
X93624727Y-70436507D01*
G37*
G36*
X90578300Y-71385800D02*
X89238300Y-71385800D01*
X89238300Y-70485800D01*
X90578300Y-70485800D01*
X90578300Y-71385800D01*
X90578300Y-71385800D01*
G37*
G36*
X109000819Y-69759958D02*
X109104494Y-69791408D01*
X109200042Y-69842479D01*
X109283790Y-69911210D01*
X109352521Y-69994958D01*
X109403592Y-70090506D01*
X109435042Y-70194181D01*
X109445661Y-70302000D01*
X109435042Y-70409819D01*
X109403592Y-70513494D01*
X109352521Y-70609042D01*
X109283790Y-70692790D01*
X109200042Y-70761521D01*
X109104494Y-70812592D01*
X109000819Y-70844042D01*
X108920018Y-70852000D01*
X108315982Y-70852000D01*
X108235181Y-70844042D01*
X108131506Y-70812592D01*
X108035958Y-70761521D01*
X107952210Y-70692790D01*
X107883479Y-70609042D01*
X107832408Y-70513494D01*
X107800958Y-70409819D01*
X107790339Y-70302000D01*
X107800958Y-70194181D01*
X107832408Y-70090506D01*
X107883479Y-69994958D01*
X107952210Y-69911210D01*
X108035958Y-69842479D01*
X108131506Y-69791408D01*
X108235181Y-69759958D01*
X108315982Y-69752000D01*
X108920018Y-69752000D01*
X109000819Y-69759958D01*
X109000819Y-69759958D01*
G37*
G36*
X99356396Y-69583313D02*
X99394907Y-69594995D01*
X99430400Y-69613966D01*
X99461506Y-69639494D01*
X99487034Y-69670600D01*
X99506005Y-69706093D01*
X99517687Y-69744604D01*
X99522000Y-69788393D01*
X99522000Y-70419607D01*
X99517687Y-70463396D01*
X99506005Y-70501907D01*
X99487034Y-70537400D01*
X99461506Y-70568506D01*
X99430400Y-70594034D01*
X99394907Y-70613005D01*
X99356396Y-70624687D01*
X99312607Y-70629000D01*
X98756393Y-70629000D01*
X98712604Y-70624687D01*
X98674093Y-70613005D01*
X98638600Y-70594034D01*
X98607494Y-70568506D01*
X98581966Y-70537400D01*
X98562995Y-70501907D01*
X98551313Y-70463396D01*
X98547000Y-70419607D01*
X98547000Y-69788393D01*
X98551313Y-69744604D01*
X98562995Y-69706093D01*
X98581966Y-69670600D01*
X98607494Y-69639494D01*
X98638600Y-69613966D01*
X98674093Y-69594995D01*
X98712604Y-69583313D01*
X98756393Y-69579000D01*
X99312607Y-69579000D01*
X99356396Y-69583313D01*
X99356396Y-69583313D01*
G37*
G36*
X100931396Y-69583313D02*
X100969907Y-69594995D01*
X101005400Y-69613966D01*
X101036506Y-69639494D01*
X101062034Y-69670600D01*
X101081005Y-69706093D01*
X101092687Y-69744604D01*
X101097000Y-69788393D01*
X101097000Y-70419607D01*
X101092687Y-70463396D01*
X101081005Y-70501907D01*
X101062034Y-70537400D01*
X101036506Y-70568506D01*
X101005400Y-70594034D01*
X100969907Y-70613005D01*
X100931396Y-70624687D01*
X100887607Y-70629000D01*
X100331393Y-70629000D01*
X100287604Y-70624687D01*
X100249093Y-70613005D01*
X100213600Y-70594034D01*
X100182494Y-70568506D01*
X100156966Y-70537400D01*
X100137995Y-70501907D01*
X100126313Y-70463396D01*
X100122000Y-70419607D01*
X100122000Y-69788393D01*
X100126313Y-69744604D01*
X100137995Y-69706093D01*
X100156966Y-69670600D01*
X100182494Y-69639494D01*
X100213600Y-69613966D01*
X100249093Y-69594995D01*
X100287604Y-69583313D01*
X100331393Y-69579000D01*
X100887607Y-69579000D01*
X100931396Y-69583313D01*
X100931396Y-69583313D01*
G37*
G36*
X103229396Y-69392313D02*
X103267907Y-69403995D01*
X103303400Y-69422966D01*
X103334506Y-69448494D01*
X103360034Y-69479600D01*
X103379005Y-69515093D01*
X103390687Y-69553604D01*
X103395000Y-69597393D01*
X103395000Y-70153607D01*
X103390687Y-70197396D01*
X103379005Y-70235907D01*
X103360034Y-70271400D01*
X103334506Y-70302506D01*
X103303400Y-70328034D01*
X103267907Y-70347005D01*
X103229396Y-70358687D01*
X103185607Y-70363000D01*
X102554393Y-70363000D01*
X102510604Y-70358687D01*
X102472093Y-70347005D01*
X102436600Y-70328034D01*
X102405494Y-70302506D01*
X102379966Y-70271400D01*
X102360995Y-70235907D01*
X102349313Y-70197396D01*
X102345000Y-70153607D01*
X102345000Y-69597393D01*
X102349313Y-69553604D01*
X102360995Y-69515093D01*
X102379966Y-69479600D01*
X102405494Y-69448494D01*
X102436600Y-69422966D01*
X102472093Y-69403995D01*
X102510604Y-69392313D01*
X102554393Y-69388000D01*
X103185607Y-69388000D01*
X103229396Y-69392313D01*
X103229396Y-69392313D01*
G37*
G36*
X90578300Y-70285800D02*
X89238300Y-70285800D01*
X89238300Y-69385800D01*
X90578300Y-69385800D01*
X90578300Y-70285800D01*
X90578300Y-70285800D01*
G37*
G36*
X106020917Y-68634597D02*
X106119880Y-68664617D01*
X106211086Y-68713367D01*
X106291027Y-68778973D01*
X106356633Y-68858914D01*
X106405383Y-68950119D01*
X106435403Y-69049082D01*
X106443000Y-69126212D01*
X106443000Y-69477787D01*
X106437023Y-69538471D01*
X106435403Y-69554917D01*
X106405383Y-69653881D01*
X106396446Y-69670600D01*
X106356633Y-69745086D01*
X106291027Y-69825027D01*
X106211086Y-69890633D01*
X106119881Y-69939383D01*
X106020918Y-69969403D01*
X105918000Y-69979540D01*
X105815083Y-69969403D01*
X105716120Y-69939383D01*
X105624915Y-69890633D01*
X105544974Y-69825027D01*
X105479368Y-69745086D01*
X105430618Y-69653881D01*
X105400597Y-69554918D01*
X105393000Y-69477788D01*
X105393000Y-69126213D01*
X105400597Y-69049083D01*
X105430617Y-68950120D01*
X105479367Y-68858914D01*
X105544973Y-68778973D01*
X105624914Y-68713367D01*
X105716119Y-68664617D01*
X105815082Y-68634597D01*
X105918000Y-68624460D01*
X106020917Y-68634597D01*
X106020917Y-68634597D01*
G37*
G36*
X93624727Y-68912507D02*
X93663238Y-68924189D01*
X93698731Y-68943160D01*
X93729837Y-68968688D01*
X93755365Y-68999794D01*
X93774336Y-69035287D01*
X93786018Y-69073798D01*
X93790331Y-69117587D01*
X93790331Y-69748801D01*
X93786018Y-69792590D01*
X93774336Y-69831101D01*
X93755365Y-69866594D01*
X93729837Y-69897700D01*
X93698731Y-69923228D01*
X93663238Y-69942199D01*
X93624727Y-69953881D01*
X93580938Y-69958194D01*
X93024724Y-69958194D01*
X92980935Y-69953881D01*
X92942424Y-69942199D01*
X92906931Y-69923228D01*
X92875825Y-69897700D01*
X92850297Y-69866594D01*
X92831326Y-69831101D01*
X92819644Y-69792590D01*
X92815331Y-69748801D01*
X92815331Y-69117587D01*
X92819644Y-69073798D01*
X92831326Y-69035287D01*
X92850297Y-68999794D01*
X92875825Y-68968688D01*
X92906931Y-68943160D01*
X92942424Y-68924189D01*
X92980935Y-68912507D01*
X93024724Y-68908194D01*
X93580938Y-68908194D01*
X93624727Y-68912507D01*
X93624727Y-68912507D01*
G37*
G36*
X95199727Y-68912507D02*
X95238238Y-68924189D01*
X95273731Y-68943160D01*
X95304837Y-68968688D01*
X95330365Y-68999794D01*
X95349336Y-69035287D01*
X95361018Y-69073798D01*
X95365331Y-69117587D01*
X95365331Y-69748801D01*
X95361018Y-69792590D01*
X95349336Y-69831101D01*
X95330365Y-69866594D01*
X95304837Y-69897700D01*
X95273731Y-69923228D01*
X95238238Y-69942199D01*
X95199727Y-69953881D01*
X95155938Y-69958194D01*
X94599724Y-69958194D01*
X94555935Y-69953881D01*
X94517424Y-69942199D01*
X94481931Y-69923228D01*
X94450825Y-69897700D01*
X94425297Y-69866594D01*
X94406326Y-69831101D01*
X94394644Y-69792590D01*
X94390331Y-69748801D01*
X94390331Y-69117587D01*
X94394644Y-69073798D01*
X94406326Y-69035287D01*
X94425297Y-68999794D01*
X94450825Y-68968688D01*
X94481931Y-68943160D01*
X94517424Y-68924189D01*
X94555935Y-68912507D01*
X94599724Y-68908194D01*
X95155938Y-68908194D01*
X95199727Y-68912507D01*
X95199727Y-68912507D01*
G37*
G36*
X90578300Y-69185800D02*
X89238300Y-69185800D01*
X89238300Y-68285800D01*
X90578300Y-68285800D01*
X90578300Y-69185800D01*
X90578300Y-69185800D01*
G37*
G36*
X103229396Y-67817313D02*
X103267907Y-67828995D01*
X103303400Y-67847966D01*
X103334506Y-67873494D01*
X103360034Y-67904600D01*
X103379005Y-67940093D01*
X103390687Y-67978604D01*
X103395000Y-68022393D01*
X103395000Y-68578607D01*
X103390687Y-68622396D01*
X103379005Y-68660907D01*
X103360034Y-68696400D01*
X103334506Y-68727506D01*
X103303400Y-68753034D01*
X103267907Y-68772005D01*
X103229396Y-68783687D01*
X103185607Y-68788000D01*
X102554393Y-68788000D01*
X102510604Y-68783687D01*
X102472093Y-68772005D01*
X102436600Y-68753034D01*
X102405494Y-68727506D01*
X102379966Y-68696400D01*
X102360995Y-68660907D01*
X102349313Y-68622396D01*
X102345000Y-68578607D01*
X102345000Y-68022393D01*
X102349313Y-67978604D01*
X102360995Y-67940093D01*
X102379966Y-67904600D01*
X102405494Y-67873494D01*
X102436600Y-67847966D01*
X102472093Y-67828995D01*
X102510604Y-67817313D01*
X102554393Y-67813000D01*
X103185607Y-67813000D01*
X103229396Y-67817313D01*
X103229396Y-67817313D01*
G37*
G36*
X101756000Y-68635000D02*
X100596000Y-68635000D01*
X100596000Y-67885000D01*
X101756000Y-67885000D01*
X101756000Y-68635000D01*
X101756000Y-68635000D01*
G37*
G36*
X99556000Y-68635000D02*
X98396000Y-68635000D01*
X98396000Y-67885000D01*
X99556000Y-67885000D01*
X99556000Y-68635000D01*
X99556000Y-68635000D01*
G37*
G36*
X77778300Y-68495800D02*
X76528300Y-68495800D01*
X76528300Y-66895800D01*
X77778300Y-66895800D01*
X77778300Y-68495800D01*
X77778300Y-68495800D01*
G37*
G36*
X106643000Y-68352000D02*
X105193000Y-68352000D01*
X105193000Y-65252000D01*
X106643000Y-65252000D01*
X106643000Y-68352000D01*
X106643000Y-68352000D01*
G37*
G36*
X90578300Y-68085800D02*
X89238300Y-68085800D01*
X89238300Y-67185800D01*
X90578300Y-67185800D01*
X90578300Y-68085800D01*
X90578300Y-68085800D01*
G37*
G36*
X101756000Y-67685000D02*
X100596000Y-67685000D01*
X100596000Y-66935000D01*
X101756000Y-66935000D01*
X101756000Y-67685000D01*
X101756000Y-67685000D01*
G37*
G36*
X99556000Y-67685000D02*
X98396000Y-67685000D01*
X98396000Y-66935000D01*
X99556000Y-66935000D01*
X99556000Y-67685000D01*
X99556000Y-67685000D01*
G37*
G36*
X103229396Y-65836313D02*
X103267907Y-65847995D01*
X103303400Y-65866966D01*
X103334506Y-65892494D01*
X103360034Y-65923600D01*
X103379005Y-65959093D01*
X103390687Y-65997604D01*
X103395000Y-66041393D01*
X103395000Y-66597607D01*
X103390687Y-66641396D01*
X103379005Y-66679907D01*
X103360034Y-66715400D01*
X103334506Y-66746506D01*
X103303400Y-66772034D01*
X103267907Y-66791005D01*
X103229396Y-66802687D01*
X103185607Y-66807000D01*
X102554393Y-66807000D01*
X102510604Y-66802687D01*
X102472093Y-66791005D01*
X102436600Y-66772034D01*
X102405494Y-66746506D01*
X102379966Y-66715400D01*
X102360995Y-66679907D01*
X102349313Y-66641396D01*
X102345000Y-66597607D01*
X102345000Y-66041393D01*
X102349313Y-65997604D01*
X102360995Y-65959093D01*
X102379966Y-65923600D01*
X102405494Y-65892494D01*
X102436600Y-65866966D01*
X102472093Y-65847995D01*
X102510604Y-65836313D01*
X102554393Y-65832000D01*
X103185607Y-65832000D01*
X103229396Y-65836313D01*
X103229396Y-65836313D01*
G37*
G36*
X101756000Y-66735000D02*
X100596000Y-66735000D01*
X100596000Y-65985000D01*
X101756000Y-65985000D01*
X101756000Y-66735000D01*
X101756000Y-66735000D01*
G37*
G36*
X99556000Y-66735000D02*
X98396000Y-66735000D01*
X98396000Y-65985000D01*
X99556000Y-65985000D01*
X99556000Y-66735000D01*
X99556000Y-66735000D01*
G37*
G36*
X99432096Y-64261513D02*
X99470607Y-64273195D01*
X99506100Y-64292166D01*
X99537206Y-64317694D01*
X99562734Y-64348800D01*
X99581705Y-64384293D01*
X99593387Y-64422804D01*
X99597700Y-64466593D01*
X99597700Y-65022807D01*
X99593387Y-65066596D01*
X99581705Y-65105107D01*
X99562734Y-65140600D01*
X99537206Y-65171706D01*
X99506100Y-65197234D01*
X99470607Y-65216205D01*
X99432096Y-65227887D01*
X99388307Y-65232200D01*
X98757093Y-65232200D01*
X98713304Y-65227887D01*
X98674793Y-65216205D01*
X98639300Y-65197234D01*
X98608194Y-65171706D01*
X98582666Y-65140600D01*
X98563695Y-65105107D01*
X98552013Y-65066596D01*
X98547700Y-65022807D01*
X98547700Y-64466593D01*
X98552013Y-64422804D01*
X98563695Y-64384293D01*
X98582666Y-64348800D01*
X98608194Y-64317694D01*
X98639300Y-64292166D01*
X98674793Y-64273195D01*
X98713304Y-64261513D01*
X98757093Y-64257200D01*
X99388307Y-64257200D01*
X99432096Y-64261513D01*
X99432096Y-64261513D01*
G37*
G36*
X103229396Y-64261313D02*
X103267907Y-64272995D01*
X103303400Y-64291966D01*
X103334506Y-64317494D01*
X103360034Y-64348600D01*
X103379005Y-64384093D01*
X103390687Y-64422604D01*
X103395000Y-64466393D01*
X103395000Y-65022607D01*
X103390687Y-65066396D01*
X103379005Y-65104907D01*
X103360034Y-65140400D01*
X103334506Y-65171506D01*
X103303400Y-65197034D01*
X103267907Y-65216005D01*
X103229396Y-65227687D01*
X103185607Y-65232000D01*
X102554393Y-65232000D01*
X102510604Y-65227687D01*
X102472093Y-65216005D01*
X102436600Y-65197034D01*
X102405494Y-65171506D01*
X102379966Y-65140400D01*
X102360995Y-65104907D01*
X102349313Y-65066396D01*
X102345000Y-65022607D01*
X102345000Y-64466393D01*
X102349313Y-64422604D01*
X102360995Y-64384093D01*
X102379966Y-64348600D01*
X102405494Y-64317494D01*
X102436600Y-64291966D01*
X102472093Y-64272995D01*
X102510604Y-64261313D01*
X102554393Y-64257000D01*
X103185607Y-64257000D01*
X103229396Y-64261313D01*
X103229396Y-64261313D01*
G37*
G36*
X100943396Y-64248813D02*
X100981907Y-64260495D01*
X101017400Y-64279466D01*
X101048506Y-64304994D01*
X101074034Y-64336100D01*
X101093005Y-64371593D01*
X101104687Y-64410104D01*
X101109000Y-64453893D01*
X101109000Y-65010107D01*
X101104687Y-65053896D01*
X101093005Y-65092407D01*
X101074034Y-65127900D01*
X101048506Y-65159006D01*
X101017400Y-65184534D01*
X100981907Y-65203505D01*
X100943396Y-65215187D01*
X100899607Y-65219500D01*
X100268393Y-65219500D01*
X100224604Y-65215187D01*
X100186093Y-65203505D01*
X100150600Y-65184534D01*
X100119494Y-65159006D01*
X100093966Y-65127900D01*
X100074995Y-65092407D01*
X100063313Y-65053896D01*
X100059000Y-65010107D01*
X100059000Y-64453893D01*
X100063313Y-64410104D01*
X100074995Y-64371593D01*
X100093966Y-64336100D01*
X100119494Y-64304994D01*
X100150600Y-64279466D01*
X100186093Y-64260495D01*
X100224604Y-64248813D01*
X100268393Y-64244500D01*
X100899607Y-64244500D01*
X100943396Y-64248813D01*
X100943396Y-64248813D01*
G37*
G36*
X106020917Y-63634597D02*
X106119880Y-63664617D01*
X106211086Y-63713367D01*
X106291027Y-63778973D01*
X106356633Y-63858914D01*
X106405383Y-63950119D01*
X106435403Y-64049082D01*
X106443000Y-64126212D01*
X106443000Y-64477787D01*
X106435403Y-64554917D01*
X106405383Y-64653881D01*
X106381008Y-64699483D01*
X106356633Y-64745086D01*
X106291027Y-64825027D01*
X106211086Y-64890633D01*
X106119881Y-64939383D01*
X106020918Y-64969403D01*
X105918000Y-64979540D01*
X105815083Y-64969403D01*
X105716120Y-64939383D01*
X105624915Y-64890633D01*
X105544974Y-64825027D01*
X105479368Y-64745086D01*
X105430618Y-64653881D01*
X105400597Y-64554918D01*
X105393000Y-64477788D01*
X105393000Y-64126213D01*
X105400597Y-64049083D01*
X105430617Y-63950120D01*
X105479367Y-63858914D01*
X105544973Y-63778973D01*
X105624914Y-63713367D01*
X105716119Y-63664617D01*
X105815082Y-63634597D01*
X105918000Y-63624460D01*
X106020917Y-63634597D01*
X106020917Y-63634597D01*
G37*
G36*
X79098300Y-64015800D02*
X76798300Y-64015800D01*
X76798300Y-62765800D01*
X79098300Y-62765800D01*
X79098300Y-64015800D01*
X79098300Y-64015800D01*
G37*
G36*
X109000819Y-62759958D02*
X109104494Y-62791408D01*
X109200042Y-62842479D01*
X109283790Y-62911210D01*
X109352521Y-62994958D01*
X109403592Y-63090506D01*
X109435042Y-63194181D01*
X109445661Y-63302000D01*
X109435042Y-63409819D01*
X109405644Y-63506729D01*
X109403591Y-63513496D01*
X109400294Y-63519664D01*
X109352521Y-63609042D01*
X109283790Y-63692790D01*
X109200042Y-63761521D01*
X109104494Y-63812592D01*
X109000819Y-63844042D01*
X108920018Y-63852000D01*
X108315982Y-63852000D01*
X108235181Y-63844042D01*
X108131506Y-63812592D01*
X108035958Y-63761521D01*
X107952210Y-63692790D01*
X107883479Y-63609042D01*
X107835706Y-63519664D01*
X107832409Y-63513496D01*
X107830356Y-63506729D01*
X107800958Y-63409819D01*
X107790339Y-63302000D01*
X107800958Y-63194181D01*
X107832408Y-63090506D01*
X107883479Y-62994958D01*
X107952210Y-62911210D01*
X108035958Y-62842479D01*
X108131506Y-62791408D01*
X108235181Y-62759958D01*
X108315982Y-62752000D01*
X108920018Y-62752000D01*
X109000819Y-62759958D01*
X109000819Y-62759958D01*
G37*
G36*
X90578300Y-63815800D02*
X87978300Y-63815800D01*
X87978300Y-62765800D01*
X90578300Y-62765800D01*
X90578300Y-63815800D01*
X90578300Y-63815800D01*
G37*
G36*
X99432096Y-62686513D02*
X99470607Y-62698195D01*
X99506100Y-62717166D01*
X99537206Y-62742694D01*
X99562734Y-62773800D01*
X99581705Y-62809293D01*
X99593387Y-62847804D01*
X99597700Y-62891593D01*
X99597700Y-63447807D01*
X99593387Y-63491596D01*
X99581705Y-63530107D01*
X99562734Y-63565600D01*
X99537206Y-63596706D01*
X99506100Y-63622234D01*
X99470607Y-63641205D01*
X99432096Y-63652887D01*
X99388307Y-63657200D01*
X98757093Y-63657200D01*
X98713304Y-63652887D01*
X98674793Y-63641205D01*
X98639300Y-63622234D01*
X98608194Y-63596706D01*
X98582666Y-63565600D01*
X98563695Y-63530107D01*
X98552013Y-63491596D01*
X98547700Y-63447807D01*
X98547700Y-62891593D01*
X98552013Y-62847804D01*
X98563695Y-62809293D01*
X98582666Y-62773800D01*
X98608194Y-62742694D01*
X98639300Y-62717166D01*
X98674793Y-62698195D01*
X98713304Y-62686513D01*
X98757093Y-62682200D01*
X99388307Y-62682200D01*
X99432096Y-62686513D01*
X99432096Y-62686513D01*
G37*
G36*
X100943396Y-62673813D02*
X100981907Y-62685495D01*
X101017400Y-62704466D01*
X101048506Y-62729994D01*
X101074034Y-62761100D01*
X101093005Y-62796593D01*
X101104687Y-62835104D01*
X101109000Y-62878893D01*
X101109000Y-63435107D01*
X101104687Y-63478896D01*
X101093005Y-63517407D01*
X101074034Y-63552900D01*
X101048506Y-63584006D01*
X101017400Y-63609534D01*
X100981907Y-63628505D01*
X100943396Y-63640187D01*
X100899607Y-63644500D01*
X100268393Y-63644500D01*
X100224604Y-63640187D01*
X100186093Y-63628505D01*
X100150600Y-63609534D01*
X100119494Y-63584006D01*
X100093966Y-63552900D01*
X100074995Y-63517407D01*
X100063313Y-63478896D01*
X100059000Y-63435107D01*
X100059000Y-62878893D01*
X100063313Y-62835104D01*
X100074995Y-62796593D01*
X100093966Y-62761100D01*
X100119494Y-62729994D01*
X100150600Y-62704466D01*
X100186093Y-62685495D01*
X100224604Y-62673813D01*
X100268393Y-62669500D01*
X100899607Y-62669500D01*
X100943396Y-62673813D01*
X100943396Y-62673813D01*
G37*
G36*
X100943396Y-61264313D02*
X100981907Y-61275995D01*
X101017400Y-61294966D01*
X101048506Y-61320494D01*
X101074034Y-61351600D01*
X101093005Y-61387093D01*
X101104687Y-61425604D01*
X101109000Y-61469393D01*
X101109000Y-62025607D01*
X101104687Y-62069396D01*
X101093005Y-62107907D01*
X101074034Y-62143400D01*
X101048506Y-62174506D01*
X101017400Y-62200034D01*
X100981907Y-62219005D01*
X100943396Y-62230687D01*
X100899607Y-62235000D01*
X100268393Y-62235000D01*
X100224604Y-62230687D01*
X100186093Y-62219005D01*
X100150600Y-62200034D01*
X100119494Y-62174506D01*
X100093966Y-62143400D01*
X100074995Y-62107907D01*
X100063313Y-62069396D01*
X100059000Y-62025607D01*
X100059000Y-61469393D01*
X100063313Y-61425604D01*
X100074995Y-61387093D01*
X100093966Y-61351600D01*
X100119494Y-61320494D01*
X100150600Y-61294966D01*
X100186093Y-61275995D01*
X100224604Y-61264313D01*
X100268393Y-61260000D01*
X100899607Y-61260000D01*
X100943396Y-61264313D01*
X100943396Y-61264313D01*
G37*
G36*
X99419396Y-61264313D02*
X99457907Y-61275995D01*
X99493400Y-61294966D01*
X99524506Y-61320494D01*
X99550034Y-61351600D01*
X99569005Y-61387093D01*
X99580687Y-61425604D01*
X99585000Y-61469393D01*
X99585000Y-62025607D01*
X99580687Y-62069396D01*
X99569005Y-62107907D01*
X99550034Y-62143400D01*
X99524506Y-62174506D01*
X99493400Y-62200034D01*
X99457907Y-62219005D01*
X99419396Y-62230687D01*
X99375607Y-62235000D01*
X98744393Y-62235000D01*
X98700604Y-62230687D01*
X98662093Y-62219005D01*
X98626600Y-62200034D01*
X98595494Y-62174506D01*
X98569966Y-62143400D01*
X98550995Y-62107907D01*
X98539313Y-62069396D01*
X98535000Y-62025607D01*
X98535000Y-61469393D01*
X98539313Y-61425604D01*
X98550995Y-61387093D01*
X98569966Y-61351600D01*
X98595494Y-61320494D01*
X98626600Y-61294966D01*
X98662093Y-61275995D01*
X98700604Y-61264313D01*
X98744393Y-61260000D01*
X99375607Y-61260000D01*
X99419396Y-61264313D01*
X99419396Y-61264313D01*
G37*
G36*
X108297396Y-60693313D02*
X108335907Y-60704995D01*
X108371400Y-60723966D01*
X108402506Y-60749494D01*
X108428034Y-60780600D01*
X108447005Y-60816093D01*
X108458687Y-60854604D01*
X108463000Y-60898393D01*
X108463000Y-61529607D01*
X108458687Y-61573396D01*
X108447005Y-61611907D01*
X108428034Y-61647400D01*
X108402506Y-61678506D01*
X108371400Y-61704034D01*
X108335907Y-61723005D01*
X108297396Y-61734687D01*
X108253607Y-61739000D01*
X107697393Y-61739000D01*
X107653604Y-61734687D01*
X107615093Y-61723005D01*
X107579600Y-61704034D01*
X107548494Y-61678506D01*
X107522966Y-61647400D01*
X107503995Y-61611907D01*
X107492313Y-61573396D01*
X107488000Y-61529607D01*
X107488000Y-60898393D01*
X107492313Y-60854604D01*
X107503995Y-60816093D01*
X107522966Y-60780600D01*
X107548494Y-60749494D01*
X107579600Y-60723966D01*
X107615093Y-60704995D01*
X107653604Y-60693313D01*
X107697393Y-60689000D01*
X108253607Y-60689000D01*
X108297396Y-60693313D01*
X108297396Y-60693313D01*
G37*
G36*
X106722396Y-60693313D02*
X106760907Y-60704995D01*
X106796400Y-60723966D01*
X106827506Y-60749494D01*
X106853034Y-60780600D01*
X106872005Y-60816093D01*
X106883687Y-60854604D01*
X106888000Y-60898393D01*
X106888000Y-61529607D01*
X106883687Y-61573396D01*
X106872005Y-61611907D01*
X106853034Y-61647400D01*
X106827506Y-61678506D01*
X106796400Y-61704034D01*
X106760907Y-61723005D01*
X106722396Y-61734687D01*
X106678607Y-61739000D01*
X106122393Y-61739000D01*
X106078604Y-61734687D01*
X106040093Y-61723005D01*
X106004600Y-61704034D01*
X105973494Y-61678506D01*
X105947966Y-61647400D01*
X105928995Y-61611907D01*
X105917313Y-61573396D01*
X105913000Y-61529607D01*
X105913000Y-60898393D01*
X105917313Y-60854604D01*
X105928995Y-60816093D01*
X105947966Y-60780600D01*
X105973494Y-60749494D01*
X106004600Y-60723966D01*
X106040093Y-60704995D01*
X106078604Y-60693313D01*
X106122393Y-60689000D01*
X106678607Y-60689000D01*
X106722396Y-60693313D01*
X106722396Y-60693313D01*
G37*
G36*
X82135396Y-60693313D02*
X82173907Y-60704995D01*
X82209400Y-60723966D01*
X82240506Y-60749494D01*
X82266034Y-60780600D01*
X82285005Y-60816093D01*
X82296687Y-60854604D01*
X82301000Y-60898393D01*
X82301000Y-61529607D01*
X82296687Y-61573396D01*
X82285005Y-61611907D01*
X82266034Y-61647400D01*
X82240506Y-61678506D01*
X82209400Y-61704034D01*
X82173907Y-61723005D01*
X82135396Y-61734687D01*
X82091607Y-61739000D01*
X81535393Y-61739000D01*
X81491604Y-61734687D01*
X81453093Y-61723005D01*
X81417600Y-61704034D01*
X81386494Y-61678506D01*
X81360966Y-61647400D01*
X81341995Y-61611907D01*
X81330313Y-61573396D01*
X81326000Y-61529607D01*
X81326000Y-60898393D01*
X81330313Y-60854604D01*
X81341995Y-60816093D01*
X81360966Y-60780600D01*
X81386494Y-60749494D01*
X81417600Y-60723966D01*
X81453093Y-60704995D01*
X81491604Y-60693313D01*
X81535393Y-60689000D01*
X82091607Y-60689000D01*
X82135396Y-60693313D01*
X82135396Y-60693313D01*
G37*
G36*
X80560396Y-60693313D02*
X80598907Y-60704995D01*
X80634400Y-60723966D01*
X80665506Y-60749494D01*
X80691034Y-60780600D01*
X80710005Y-60816093D01*
X80721687Y-60854604D01*
X80726000Y-60898393D01*
X80726000Y-61529607D01*
X80721687Y-61573396D01*
X80710005Y-61611907D01*
X80691034Y-61647400D01*
X80665506Y-61678506D01*
X80634400Y-61704034D01*
X80598907Y-61723005D01*
X80560396Y-61734687D01*
X80516607Y-61739000D01*
X79960393Y-61739000D01*
X79916604Y-61734687D01*
X79878093Y-61723005D01*
X79842600Y-61704034D01*
X79811494Y-61678506D01*
X79785966Y-61647400D01*
X79766995Y-61611907D01*
X79755313Y-61573396D01*
X79751000Y-61529607D01*
X79751000Y-60898393D01*
X79755313Y-60854604D01*
X79766995Y-60816093D01*
X79785966Y-60780600D01*
X79811494Y-60749494D01*
X79842600Y-60723966D01*
X79878093Y-60704995D01*
X79916604Y-60693313D01*
X79960393Y-60689000D01*
X80516607Y-60689000D01*
X80560396Y-60693313D01*
X80560396Y-60693313D01*
G37*
G36*
X109833396Y-60756313D02*
X109871907Y-60767995D01*
X109907400Y-60786966D01*
X109938506Y-60812494D01*
X109964034Y-60843600D01*
X109983005Y-60879093D01*
X109994687Y-60917604D01*
X109999000Y-60961393D01*
X109999000Y-61517607D01*
X109994687Y-61561396D01*
X109983005Y-61599907D01*
X109964034Y-61635400D01*
X109938506Y-61666506D01*
X109907400Y-61692034D01*
X109871907Y-61711005D01*
X109833396Y-61722687D01*
X109789607Y-61727000D01*
X109158393Y-61727000D01*
X109114604Y-61722687D01*
X109076093Y-61711005D01*
X109040600Y-61692034D01*
X109009494Y-61666506D01*
X108983966Y-61635400D01*
X108964995Y-61599907D01*
X108953313Y-61561396D01*
X108949000Y-61517607D01*
X108949000Y-60961393D01*
X108953313Y-60917604D01*
X108964995Y-60879093D01*
X108983966Y-60843600D01*
X109009494Y-60812494D01*
X109040600Y-60786966D01*
X109076093Y-60767995D01*
X109114604Y-60756313D01*
X109158393Y-60752000D01*
X109789607Y-60752000D01*
X109833396Y-60756313D01*
X109833396Y-60756313D01*
G37*
G36*
X83671396Y-60756313D02*
X83709907Y-60767995D01*
X83745400Y-60786966D01*
X83776506Y-60812494D01*
X83802034Y-60843600D01*
X83821005Y-60879093D01*
X83832687Y-60917604D01*
X83837000Y-60961393D01*
X83837000Y-61517607D01*
X83832687Y-61561396D01*
X83821005Y-61599907D01*
X83802034Y-61635400D01*
X83776506Y-61666506D01*
X83745400Y-61692034D01*
X83709907Y-61711005D01*
X83671396Y-61722687D01*
X83627607Y-61727000D01*
X82996393Y-61727000D01*
X82952604Y-61722687D01*
X82914093Y-61711005D01*
X82878600Y-61692034D01*
X82847494Y-61666506D01*
X82821966Y-61635400D01*
X82802995Y-61599907D01*
X82791313Y-61561396D01*
X82787000Y-61517607D01*
X82787000Y-60961393D01*
X82791313Y-60917604D01*
X82802995Y-60879093D01*
X82821966Y-60843600D01*
X82847494Y-60812494D01*
X82878600Y-60786966D01*
X82914093Y-60767995D01*
X82952604Y-60756313D01*
X82996393Y-60752000D01*
X83627607Y-60752000D01*
X83671396Y-60756313D01*
X83671396Y-60756313D01*
G37*
G36*
X99419396Y-59689313D02*
X99457907Y-59700995D01*
X99493400Y-59719966D01*
X99524506Y-59745494D01*
X99550034Y-59776600D01*
X99569005Y-59812093D01*
X99580687Y-59850604D01*
X99585000Y-59894393D01*
X99585000Y-60450607D01*
X99580687Y-60494396D01*
X99569005Y-60532907D01*
X99550034Y-60568400D01*
X99524506Y-60599506D01*
X99493400Y-60625034D01*
X99457907Y-60644005D01*
X99419396Y-60655687D01*
X99375607Y-60660000D01*
X98744393Y-60660000D01*
X98700604Y-60655687D01*
X98662093Y-60644005D01*
X98626600Y-60625034D01*
X98595494Y-60599506D01*
X98569966Y-60568400D01*
X98550995Y-60532907D01*
X98539313Y-60494396D01*
X98535000Y-60450607D01*
X98535000Y-59894393D01*
X98539313Y-59850604D01*
X98550995Y-59812093D01*
X98569966Y-59776600D01*
X98595494Y-59745494D01*
X98626600Y-59719966D01*
X98662093Y-59700995D01*
X98700604Y-59689313D01*
X98744393Y-59685000D01*
X99375607Y-59685000D01*
X99419396Y-59689313D01*
X99419396Y-59689313D01*
G37*
G36*
X100943396Y-59689313D02*
X100981907Y-59700995D01*
X101017400Y-59719966D01*
X101048506Y-59745494D01*
X101074034Y-59776600D01*
X101093005Y-59812093D01*
X101104687Y-59850604D01*
X101109000Y-59894393D01*
X101109000Y-60450607D01*
X101104687Y-60494396D01*
X101093005Y-60532907D01*
X101074034Y-60568400D01*
X101048506Y-60599506D01*
X101017400Y-60625034D01*
X100981907Y-60644005D01*
X100943396Y-60655687D01*
X100899607Y-60660000D01*
X100268393Y-60660000D01*
X100224604Y-60655687D01*
X100186093Y-60644005D01*
X100150600Y-60625034D01*
X100119494Y-60599506D01*
X100093966Y-60568400D01*
X100074995Y-60532907D01*
X100063313Y-60494396D01*
X100059000Y-60450607D01*
X100059000Y-59894393D01*
X100063313Y-59850604D01*
X100074995Y-59812093D01*
X100093966Y-59776600D01*
X100119494Y-59745494D01*
X100150600Y-59719966D01*
X100186093Y-59700995D01*
X100224604Y-59689313D01*
X100268393Y-59685000D01*
X100899607Y-59685000D01*
X100943396Y-59689313D01*
X100943396Y-59689313D01*
G37*
G36*
X109833396Y-59181313D02*
X109871907Y-59192995D01*
X109907400Y-59211966D01*
X109938506Y-59237494D01*
X109964034Y-59268600D01*
X109983005Y-59304093D01*
X109994687Y-59342604D01*
X109999000Y-59386393D01*
X109999000Y-59942607D01*
X109994687Y-59986396D01*
X109983005Y-60024907D01*
X109964034Y-60060400D01*
X109938506Y-60091506D01*
X109907400Y-60117034D01*
X109871907Y-60136005D01*
X109833396Y-60147687D01*
X109789607Y-60152000D01*
X109158393Y-60152000D01*
X109114604Y-60147687D01*
X109076093Y-60136005D01*
X109040600Y-60117034D01*
X109009494Y-60091506D01*
X108983966Y-60060400D01*
X108964995Y-60024907D01*
X108953313Y-59986396D01*
X108949000Y-59942607D01*
X108949000Y-59386393D01*
X108953313Y-59342604D01*
X108964995Y-59304093D01*
X108983966Y-59268600D01*
X109009494Y-59237494D01*
X109040600Y-59211966D01*
X109076093Y-59192995D01*
X109114604Y-59181313D01*
X109158393Y-59177000D01*
X109789607Y-59177000D01*
X109833396Y-59181313D01*
X109833396Y-59181313D01*
G37*
G36*
X83671396Y-59181313D02*
X83709907Y-59192995D01*
X83745400Y-59211966D01*
X83776506Y-59237494D01*
X83802034Y-59268600D01*
X83821005Y-59304093D01*
X83832687Y-59342604D01*
X83837000Y-59386393D01*
X83837000Y-59942607D01*
X83832687Y-59986396D01*
X83821005Y-60024907D01*
X83802034Y-60060400D01*
X83776506Y-60091506D01*
X83745400Y-60117034D01*
X83709907Y-60136005D01*
X83671396Y-60147687D01*
X83627607Y-60152000D01*
X82996393Y-60152000D01*
X82952604Y-60147687D01*
X82914093Y-60136005D01*
X82878600Y-60117034D01*
X82847494Y-60091506D01*
X82821966Y-60060400D01*
X82802995Y-60024907D01*
X82791313Y-59986396D01*
X82787000Y-59942607D01*
X82787000Y-59386393D01*
X82791313Y-59342604D01*
X82802995Y-59304093D01*
X82821966Y-59268600D01*
X82847494Y-59237494D01*
X82878600Y-59211966D01*
X82914093Y-59192995D01*
X82952604Y-59181313D01*
X82996393Y-59177000D01*
X83627607Y-59177000D01*
X83671396Y-59181313D01*
X83671396Y-59181313D01*
G37*
G36*
X82450000Y-59950000D02*
X82000000Y-59950000D01*
X82000000Y-56050000D01*
X82450000Y-56050000D01*
X82450000Y-59950000D01*
X82450000Y-59950000D01*
G37*
G36*
X106150000Y-59950000D02*
X105700000Y-59950000D01*
X105700000Y-56050000D01*
X106150000Y-56050000D01*
X106150000Y-59950000D01*
X106150000Y-59950000D01*
G37*
G36*
X80000000Y-59950000D02*
X79550000Y-59950000D01*
X79550000Y-56050000D01*
X80000000Y-56050000D01*
X80000000Y-59950000D01*
X80000000Y-59950000D01*
G37*
G36*
X108600000Y-59950000D02*
X108150000Y-59950000D01*
X108150000Y-56050000D01*
X108600000Y-56050000D01*
X108600000Y-59950000D01*
X108600000Y-59950000D01*
G37*
G36*
X81700000Y-59200000D02*
X81200000Y-59200000D01*
X81200000Y-58150000D01*
X81700000Y-58150000D01*
X81700000Y-59200000D01*
X81700000Y-59200000D01*
G37*
G36*
X80800000Y-59200000D02*
X80300000Y-59200000D01*
X80300000Y-58150000D01*
X80800000Y-58150000D01*
X80800000Y-59200000D01*
X80800000Y-59200000D01*
G37*
G36*
X106950000Y-59200000D02*
X106450000Y-59200000D01*
X106450000Y-58150000D01*
X106950000Y-58150000D01*
X106950000Y-59200000D01*
X106950000Y-59200000D01*
G37*
G36*
X107850000Y-59200000D02*
X107350000Y-59200000D01*
X107350000Y-58150000D01*
X107850000Y-58150000D01*
X107850000Y-59200000D01*
X107850000Y-59200000D01*
G37*
G36*
X80800000Y-57850000D02*
X80300000Y-57850000D01*
X80300000Y-56800000D01*
X80800000Y-56800000D01*
X80800000Y-57850000D01*
X80800000Y-57850000D01*
G37*
G36*
X81700000Y-57850000D02*
X81200000Y-57850000D01*
X81200000Y-56800000D01*
X81700000Y-56800000D01*
X81700000Y-57850000D01*
X81700000Y-57850000D01*
G37*
G36*
X106950000Y-57850000D02*
X106450000Y-57850000D01*
X106450000Y-56800000D01*
X106950000Y-56800000D01*
X106950000Y-57850000D01*
X106950000Y-57850000D01*
G37*
G36*
X107850000Y-57850000D02*
X107350000Y-57850000D01*
X107350000Y-56800000D01*
X107850000Y-56800000D01*
X107850000Y-57850000D01*
X107850000Y-57850000D01*
G37*
G36*
X79011058Y-50085115D02*
X79338648Y-50220807D01*
X79633472Y-50417802D01*
X79884198Y-50668528D01*
X80081193Y-50963352D01*
X80216885Y-51290942D01*
X80286060Y-51638710D01*
X80286060Y-51993290D01*
X80216885Y-52341058D01*
X80081193Y-52668648D01*
X79884198Y-52963472D01*
X79633472Y-53214198D01*
X79338648Y-53411193D01*
X79011058Y-53546885D01*
X78663290Y-53616060D01*
X78308710Y-53616060D01*
X77960942Y-53546885D01*
X77633352Y-53411193D01*
X77338528Y-53214198D01*
X77087802Y-52963472D01*
X76890807Y-52668648D01*
X76755115Y-52341058D01*
X76685940Y-51993290D01*
X76685940Y-51638710D01*
X76755115Y-51290942D01*
X76890807Y-50963352D01*
X77087802Y-50668528D01*
X77338528Y-50417802D01*
X77633352Y-50220807D01*
X77960942Y-50085115D01*
X78308710Y-50015940D01*
X78663290Y-50015940D01*
X79011058Y-50085115D01*
X79011058Y-50085115D01*
G37*
G36*
X109999058Y-50085115D02*
X110326648Y-50220807D01*
X110621472Y-50417802D01*
X110872198Y-50668528D01*
X111069193Y-50963352D01*
X111204885Y-51290942D01*
X111274060Y-51638710D01*
X111274060Y-51993290D01*
X111204885Y-52341058D01*
X111069193Y-52668648D01*
X110872198Y-52963472D01*
X110621472Y-53214198D01*
X110326648Y-53411193D01*
X109999058Y-53546885D01*
X109651290Y-53616060D01*
X109296710Y-53616060D01*
X108948942Y-53546885D01*
X108621352Y-53411193D01*
X108326528Y-53214198D01*
X108075802Y-52963472D01*
X107878807Y-52668648D01*
X107743115Y-52341058D01*
X107673940Y-51993290D01*
X107673940Y-51638710D01*
X107743115Y-51290942D01*
X107878807Y-50963352D01*
X108075802Y-50668528D01*
X108326528Y-50417802D01*
X108621352Y-50220807D01*
X108948942Y-50085115D01*
X109296710Y-50015940D01*
X109651290Y-50015940D01*
X109999058Y-50085115D01*
X109999058Y-50085115D01*
G37*
M02*
