G04 #@! TF.GenerationSoftware,KiCad,Pcbnew,5.0.2-bee76a0~70~ubuntu18.04.1*
G04 #@! TF.CreationDate,2019-06-28T20:51:35+02:00*
G04 #@! TF.ProjectId,rythm_badge_tudelft,72797468-6d5f-4626-9164-67655f747564,rev?*
G04 #@! TF.SameCoordinates,Original*
G04 #@! TF.FileFunction,Legend,Top*
G04 #@! TF.FilePolarity,Positive*
%FSLAX46Y46*%
G04 Gerber Fmt 4.6, Leading zero omitted, Abs format (unit mm)*
G04 Created by KiCad (PCBNEW 5.0.2-bee76a0~70~ubuntu18.04.1) date vr 28 jun 2019 20:51:35 CEST*
%MOMM*%
%LPD*%
G01*
G04 APERTURE LIST*
%ADD10C,0.300000*%
%ADD11C,0.127000*%
%ADD12C,0.200000*%
%ADD13C,0.120000*%
%ADD14C,0.100000*%
%ADD15C,0.150000*%
G04 APERTURE END LIST*
D10*
X84972273Y-56551190D02*
X85150250Y-56613095D01*
X85459773Y-56613095D01*
X85591321Y-56551190D01*
X85660964Y-56489285D01*
X85738345Y-56365476D01*
X85753821Y-56241666D01*
X85707392Y-56117857D01*
X85653226Y-56055952D01*
X85537154Y-55994047D01*
X85297273Y-55932142D01*
X85181202Y-55870238D01*
X85127035Y-55808333D01*
X85080607Y-55684523D01*
X85096083Y-55560714D01*
X85173464Y-55436904D01*
X85243107Y-55375000D01*
X85374654Y-55313095D01*
X85684178Y-55313095D01*
X85862154Y-55375000D01*
X86450250Y-56613095D02*
X86334178Y-56551190D01*
X86280011Y-56489285D01*
X86233583Y-56365476D01*
X86280011Y-55994047D01*
X86357392Y-55870238D01*
X86427035Y-55808333D01*
X86558583Y-55746428D01*
X86744297Y-55746428D01*
X86860369Y-55808333D01*
X86914535Y-55870238D01*
X86960964Y-55994047D01*
X86914535Y-56365476D01*
X86837154Y-56489285D01*
X86767511Y-56551190D01*
X86635964Y-56613095D01*
X86450250Y-56613095D01*
X88005607Y-56551190D02*
X87874059Y-56613095D01*
X87626440Y-56613095D01*
X87510369Y-56551190D01*
X87456202Y-56489285D01*
X87409773Y-56365476D01*
X87456202Y-55994047D01*
X87533583Y-55870238D01*
X87603226Y-55808333D01*
X87734773Y-55746428D01*
X87982392Y-55746428D01*
X88098464Y-55808333D01*
X88555011Y-56613095D02*
X88663345Y-55746428D01*
X88717511Y-55313095D02*
X88647869Y-55375000D01*
X88702035Y-55436904D01*
X88771678Y-55375000D01*
X88717511Y-55313095D01*
X88702035Y-55436904D01*
X89731202Y-56613095D02*
X89816321Y-55932142D01*
X89769892Y-55808333D01*
X89653821Y-55746428D01*
X89406202Y-55746428D01*
X89274654Y-55808333D01*
X89738940Y-56551190D02*
X89607392Y-56613095D01*
X89297869Y-56613095D01*
X89181797Y-56551190D01*
X89135369Y-56427380D01*
X89150845Y-56303571D01*
X89228226Y-56179761D01*
X89359773Y-56117857D01*
X89669297Y-56117857D01*
X89800845Y-56055952D01*
X90535964Y-56613095D02*
X90419892Y-56551190D01*
X90373464Y-56427380D01*
X90512750Y-55313095D01*
X91216916Y-56613095D02*
X91100845Y-56551190D01*
X91054416Y-56427380D01*
X91193702Y-55313095D01*
X91696678Y-55746428D02*
X91897869Y-56613095D01*
X92315726Y-55746428D02*
X91897869Y-56613095D01*
X91735369Y-56922619D01*
X91665726Y-56984523D01*
X91534178Y-57046428D01*
X93693107Y-56613095D02*
X93855607Y-55313095D01*
X94350845Y-55313095D01*
X94466916Y-55375000D01*
X94521083Y-55436904D01*
X94567511Y-55560714D01*
X94544297Y-55746428D01*
X94466916Y-55870238D01*
X94397273Y-55932142D01*
X94265726Y-55994047D01*
X93770488Y-55994047D01*
X95496083Y-56551190D02*
X95364535Y-56613095D01*
X95116916Y-56613095D01*
X95000845Y-56551190D01*
X94954416Y-56427380D01*
X95016321Y-55932142D01*
X95093702Y-55808333D01*
X95225250Y-55746428D01*
X95472869Y-55746428D01*
X95588940Y-55808333D01*
X95635369Y-55932142D01*
X95619892Y-56055952D01*
X94985369Y-56179761D01*
X96107392Y-56613095D02*
X96215726Y-55746428D01*
X96184773Y-55994047D02*
X96262154Y-55870238D01*
X96331797Y-55808333D01*
X96463345Y-55746428D01*
X96587154Y-55746428D01*
X97477035Y-56551190D02*
X97345488Y-56613095D01*
X97097869Y-56613095D01*
X96981797Y-56551190D01*
X96927630Y-56489285D01*
X96881202Y-56365476D01*
X96927630Y-55994047D01*
X97005011Y-55870238D01*
X97074654Y-55808333D01*
X97206202Y-55746428D01*
X97453821Y-55746428D01*
X97569892Y-55808333D01*
X98529416Y-56551190D02*
X98397869Y-56613095D01*
X98150250Y-56613095D01*
X98034178Y-56551190D01*
X97987750Y-56427380D01*
X98049654Y-55932142D01*
X98127035Y-55808333D01*
X98258583Y-55746428D01*
X98506202Y-55746428D01*
X98622273Y-55808333D01*
X98668702Y-55932142D01*
X98653226Y-56055952D01*
X98018702Y-56179761D01*
X99249059Y-55746428D02*
X99086559Y-57046428D01*
X99241321Y-55808333D02*
X99372869Y-55746428D01*
X99620488Y-55746428D01*
X99736559Y-55808333D01*
X99790726Y-55870238D01*
X99837154Y-55994047D01*
X99790726Y-56365476D01*
X99713345Y-56489285D01*
X99643702Y-56551190D01*
X99512154Y-56613095D01*
X99264535Y-56613095D01*
X99148464Y-56551190D01*
X100239535Y-55746428D02*
X100734773Y-55746428D01*
X100479416Y-55313095D02*
X100340130Y-56427380D01*
X100386559Y-56551190D01*
X100502630Y-56613095D01*
X100626440Y-56613095D01*
X101059773Y-56613095D02*
X101168107Y-55746428D01*
X101222273Y-55313095D02*
X101152630Y-55375000D01*
X101206797Y-55436904D01*
X101276440Y-55375000D01*
X101222273Y-55313095D01*
X101206797Y-55436904D01*
X101663345Y-55746428D02*
X101864535Y-56613095D01*
X102282392Y-55746428D01*
X103172273Y-56551190D02*
X103040726Y-56613095D01*
X102793107Y-56613095D01*
X102677035Y-56551190D01*
X102630607Y-56427380D01*
X102692511Y-55932142D01*
X102769892Y-55808333D01*
X102901440Y-55746428D01*
X103149059Y-55746428D01*
X103265130Y-55808333D01*
X103311559Y-55932142D01*
X103296083Y-56055952D01*
X102661559Y-56179761D01*
X87827630Y-58739285D02*
X87757988Y-58801190D01*
X87564535Y-58863095D01*
X87440726Y-58863095D01*
X87262750Y-58801190D01*
X87154416Y-58677380D01*
X87107988Y-58553571D01*
X87077035Y-58305952D01*
X87100250Y-58120238D01*
X87193107Y-57872619D01*
X87270488Y-57748809D01*
X87409773Y-57625000D01*
X87603226Y-57563095D01*
X87727035Y-57563095D01*
X87905011Y-57625000D01*
X87959178Y-57686904D01*
X88555011Y-58863095D02*
X88438940Y-58801190D01*
X88384773Y-58739285D01*
X88338345Y-58615476D01*
X88384773Y-58244047D01*
X88462154Y-58120238D01*
X88531797Y-58058333D01*
X88663345Y-57996428D01*
X88849059Y-57996428D01*
X88965130Y-58058333D01*
X89019297Y-58120238D01*
X89065726Y-58244047D01*
X89019297Y-58615476D01*
X88941916Y-58739285D01*
X88872273Y-58801190D01*
X88740726Y-58863095D01*
X88555011Y-58863095D01*
X89545488Y-58863095D02*
X89653821Y-57996428D01*
X89638345Y-58120238D02*
X89707988Y-58058333D01*
X89839535Y-57996428D01*
X90025250Y-57996428D01*
X90141321Y-58058333D01*
X90187750Y-58182142D01*
X90102630Y-58863095D01*
X90187750Y-58182142D02*
X90265130Y-58058333D01*
X90396678Y-57996428D01*
X90582392Y-57996428D01*
X90698464Y-58058333D01*
X90744892Y-58182142D01*
X90659773Y-58863095D01*
X91387154Y-57996428D02*
X91224654Y-59296428D01*
X91379416Y-58058333D02*
X91510964Y-57996428D01*
X91758583Y-57996428D01*
X91874654Y-58058333D01*
X91928821Y-58120238D01*
X91975250Y-58244047D01*
X91928821Y-58615476D01*
X91851440Y-58739285D01*
X91781797Y-58801190D01*
X91650250Y-58863095D01*
X91402630Y-58863095D01*
X91286559Y-58801190D01*
X93120488Y-57996428D02*
X93012154Y-58863095D01*
X92563345Y-57996428D02*
X92478226Y-58677380D01*
X92524654Y-58801190D01*
X92640726Y-58863095D01*
X92826440Y-58863095D01*
X92957988Y-58801190D01*
X93027630Y-58739285D01*
X93553821Y-57996428D02*
X94049059Y-57996428D01*
X93793702Y-57563095D02*
X93654416Y-58677380D01*
X93700845Y-58801190D01*
X93816916Y-58863095D01*
X93940726Y-58863095D01*
X94374059Y-58863095D02*
X94482392Y-57996428D01*
X94536559Y-57563095D02*
X94466916Y-57625000D01*
X94521083Y-57686904D01*
X94590726Y-57625000D01*
X94536559Y-57563095D01*
X94521083Y-57686904D01*
X95101440Y-57996428D02*
X94993107Y-58863095D01*
X95085964Y-58120238D02*
X95155607Y-58058333D01*
X95287154Y-57996428D01*
X95472869Y-57996428D01*
X95588940Y-58058333D01*
X95635369Y-58182142D01*
X95550250Y-58863095D01*
X96834773Y-57996428D02*
X96703226Y-59048809D01*
X96625845Y-59172619D01*
X96556202Y-59234523D01*
X96424654Y-59296428D01*
X96238940Y-59296428D01*
X96122869Y-59234523D01*
X96734178Y-58801190D02*
X96602630Y-58863095D01*
X96355011Y-58863095D01*
X96238940Y-58801190D01*
X96184773Y-58739285D01*
X96138345Y-58615476D01*
X96184773Y-58244047D01*
X96262154Y-58120238D01*
X96331797Y-58058333D01*
X96463345Y-57996428D01*
X96710964Y-57996428D01*
X96827035Y-58058333D01*
X98955011Y-58863095D02*
X98335964Y-58863095D01*
X98498464Y-57563095D01*
X99945488Y-58863095D02*
X100030607Y-58182142D01*
X99984178Y-58058333D01*
X99868107Y-57996428D01*
X99620488Y-57996428D01*
X99488940Y-58058333D01*
X99953226Y-58801190D02*
X99821678Y-58863095D01*
X99512154Y-58863095D01*
X99396083Y-58801190D01*
X99349654Y-58677380D01*
X99365130Y-58553571D01*
X99442511Y-58429761D01*
X99574059Y-58367857D01*
X99883583Y-58367857D01*
X100015130Y-58305952D01*
X100564535Y-58863095D02*
X100727035Y-57563095D01*
X100665130Y-58058333D02*
X100796678Y-57996428D01*
X101044297Y-57996428D01*
X101160369Y-58058333D01*
X101214535Y-58120238D01*
X101260964Y-58244047D01*
X101214535Y-58615476D01*
X101137154Y-58739285D01*
X101067511Y-58801190D01*
X100935964Y-58863095D01*
X100688345Y-58863095D01*
X100572273Y-58801190D01*
D11*
G04 #@! TO.C,J5*
X90833300Y-63465800D02*
X91778300Y-63465800D01*
X91778300Y-63465800D02*
X91778300Y-77605800D01*
X91778300Y-77605800D02*
X90833300Y-77605800D01*
X76828300Y-68735800D02*
X76828300Y-74435800D01*
D12*
X92543300Y-66725800D02*
G75*
G03X92543300Y-66725800I-100000J0D01*
G01*
D13*
G04 #@! TO.C,SW1*
X108557200Y-77898800D02*
X108557200Y-77698800D01*
X112697200Y-80698800D02*
X112907200Y-80498800D01*
X112697200Y-79398800D02*
X112907200Y-79598800D01*
X111407200Y-80698800D02*
X112697200Y-80698800D01*
X112907200Y-80498800D02*
X112907200Y-79598800D01*
X112697200Y-79398800D02*
X111407200Y-79398800D01*
X111407200Y-82148800D02*
X111407200Y-76448800D01*
X108557200Y-80898800D02*
X108557200Y-79198800D01*
X109607200Y-82748800D02*
X110397200Y-82748800D01*
X110397200Y-75848800D02*
X109607200Y-75848800D01*
G04 #@! TO.C,J2*
X81127900Y-90357000D02*
X81950370Y-90357000D01*
X83835430Y-90357000D02*
X84657900Y-90357000D01*
X82565430Y-90357000D02*
X83220370Y-90357000D01*
X81127900Y-85342000D02*
X81127900Y-90357000D01*
X84657900Y-83887000D02*
X84657900Y-90357000D01*
X81127900Y-85342000D02*
X81694429Y-85342000D01*
X82821371Y-85342000D02*
X82964429Y-85342000D01*
X83017900Y-85288529D02*
X83017900Y-85145471D01*
X83017900Y-84018529D02*
X83017900Y-83887000D01*
X83017900Y-83887000D02*
X83220370Y-83887000D01*
X83835430Y-83887000D02*
X84657900Y-83887000D01*
X81127900Y-84582000D02*
X81127900Y-83822000D01*
X81127900Y-83822000D02*
X82257900Y-83822000D01*
G04 #@! TO.C,D3*
X101319000Y-65429500D02*
X101319000Y-63144500D01*
X99849000Y-65429500D02*
X101319000Y-65429500D01*
X99849000Y-63144500D02*
X99849000Y-65429500D01*
G04 #@! TO.C,D1*
X98337700Y-63157200D02*
X98337700Y-65442200D01*
X98337700Y-65442200D02*
X99807700Y-65442200D01*
X99807700Y-65442200D02*
X99807700Y-63157200D01*
D14*
G04 #@! TO.C,U2*
X79498600Y-55866400D02*
X82498600Y-55866400D01*
X79498600Y-60133600D02*
X82498600Y-60133600D01*
G04 #@! TO.C,U3*
X105648600Y-55866400D02*
X108648600Y-55866400D01*
X105648600Y-60133600D02*
X108648600Y-60133600D01*
D13*
G04 #@! TO.C,C1*
X100929221Y-86108000D02*
X101254779Y-86108000D01*
X100929221Y-85088000D02*
X101254779Y-85088000D01*
G04 #@! TO.C,C2*
X97881221Y-81282000D02*
X98206779Y-81282000D01*
X97881221Y-80262000D02*
X98206779Y-80262000D01*
G04 #@! TO.C,C3*
X99659221Y-70614000D02*
X99984779Y-70614000D01*
X99659221Y-69594000D02*
X99984779Y-69594000D01*
G04 #@! TO.C,C4*
X83822000Y-60614779D02*
X83822000Y-60289221D01*
X82802000Y-60614779D02*
X82802000Y-60289221D01*
G04 #@! TO.C,C5*
X107350779Y-60704000D02*
X107025221Y-60704000D01*
X107350779Y-61724000D02*
X107025221Y-61724000D01*
G04 #@! TO.C,C6*
X102360000Y-68925221D02*
X102360000Y-69250779D01*
X103380000Y-68925221D02*
X103380000Y-69250779D01*
G04 #@! TO.C,C7*
X81188779Y-60704000D02*
X80863221Y-60704000D01*
X81188779Y-61724000D02*
X80863221Y-61724000D01*
G04 #@! TO.C,C8*
X109984000Y-60614779D02*
X109984000Y-60289221D01*
X108964000Y-60614779D02*
X108964000Y-60289221D01*
G04 #@! TO.C,C9*
X104485221Y-90680000D02*
X104810779Y-90680000D01*
X104485221Y-89660000D02*
X104810779Y-89660000D01*
G04 #@! TO.C,C10*
X99659221Y-72138000D02*
X99984779Y-72138000D01*
X99659221Y-71118000D02*
X99984779Y-71118000D01*
G04 #@! TO.C,C11*
X93927552Y-71467194D02*
X94253110Y-71467194D01*
X93927552Y-70447194D02*
X94253110Y-70447194D01*
G04 #@! TO.C,C12*
X93927552Y-69943194D02*
X94253110Y-69943194D01*
X93927552Y-68923194D02*
X94253110Y-68923194D01*
G04 #@! TO.C,C13*
X103380000Y-72806779D02*
X103380000Y-72481221D01*
X102360000Y-72806779D02*
X102360000Y-72481221D01*
G04 #@! TO.C,D2*
X96735000Y-76989000D02*
X94450000Y-76989000D01*
X96735000Y-78459000D02*
X96735000Y-76989000D01*
X94450000Y-78459000D02*
X96735000Y-78459000D01*
D14*
G04 #@! TO.C,J1*
X106318000Y-70902000D02*
X106318000Y-71052000D01*
X106018000Y-70902000D02*
X106318000Y-70902000D01*
X105668000Y-70602000D02*
X106018000Y-70902000D01*
X105668000Y-70152000D02*
X105668000Y-70602000D01*
X105668000Y-62702000D02*
X106368000Y-62702000D01*
X105668000Y-63202000D02*
X105668000Y-62702000D01*
X111368000Y-62702000D02*
X111368000Y-63102000D01*
X110768000Y-62702000D02*
X111368000Y-62702000D01*
X111368000Y-70902000D02*
X111368000Y-70252000D01*
X110818000Y-70902000D02*
X111368000Y-70902000D01*
G04 #@! TO.C,MOD1*
X89000000Y-81900000D02*
X89000000Y-82400000D01*
X89000000Y-81900000D02*
X89500000Y-81900000D01*
X89000000Y-96100000D02*
X89000000Y-95600000D01*
X89000000Y-96100000D02*
X89500000Y-96100000D01*
X99000000Y-96100000D02*
X98500000Y-96100000D01*
X99000000Y-96100000D02*
X99000000Y-95600000D01*
X99000000Y-81900000D02*
X99000000Y-82400000D01*
X99000000Y-81900000D02*
X98500000Y-81900000D01*
X98200000Y-91700000D02*
X98600000Y-91700000D01*
X94000000Y-96100000D02*
X93750000Y-96100000D01*
X94000000Y-96100000D02*
X94250000Y-96100000D01*
X94000000Y-81900000D02*
X93750000Y-81900000D01*
X94000000Y-81900000D02*
X94250000Y-81900000D01*
X99000000Y-89000000D02*
X99000000Y-88750000D01*
X99000000Y-89000000D02*
X99000000Y-89250000D01*
X89000000Y-89000000D02*
X89000000Y-88750000D01*
X89000000Y-89000000D02*
X89000000Y-89250000D01*
D13*
G04 #@! TO.C,R1*
X101254779Y-82116401D02*
X100929221Y-82116401D01*
X101254779Y-83136401D02*
X100929221Y-83136401D01*
G04 #@! TO.C,R2*
X100929221Y-84646401D02*
X101254779Y-84646401D01*
X100929221Y-83626401D02*
X101254779Y-83626401D01*
G04 #@! TO.C,R3*
X100074000Y-60797221D02*
X100074000Y-61122779D01*
X101094000Y-60797221D02*
X101094000Y-61122779D01*
G04 #@! TO.C,R4*
X95087221Y-76710000D02*
X95412779Y-76710000D01*
X95087221Y-75690000D02*
X95412779Y-75690000D01*
G04 #@! TO.C,R5*
X103380000Y-65694779D02*
X103380000Y-65369221D01*
X102360000Y-65694779D02*
X102360000Y-65369221D01*
G04 #@! TO.C,R6*
X99570000Y-61122779D02*
X99570000Y-60797221D01*
X98550000Y-61122779D02*
X98550000Y-60797221D01*
G04 #@! TO.C,U1*
X100976000Y-65700000D02*
X98526000Y-65700000D01*
X99176000Y-68920000D02*
X100976000Y-68920000D01*
G04 #@! TO.C,U4*
X100744000Y-90010000D02*
X100744000Y-89785000D01*
X101144000Y-90010000D02*
X100744000Y-90010000D01*
X102964000Y-90010000D02*
X102964000Y-89785000D01*
X102564000Y-90010000D02*
X102964000Y-90010000D01*
X102964000Y-87790000D02*
X102964000Y-88015000D01*
X102564000Y-87790000D02*
X102964000Y-87790000D01*
G04 #@! TO.C,U5*
X100976000Y-72812000D02*
X98526000Y-72812000D01*
X99176000Y-76032000D02*
X100976000Y-76032000D01*
G04 #@! TO.C,SW1*
D15*
X105827580Y-83054509D02*
X105827580Y-82864033D01*
X105875200Y-82768795D01*
X105970438Y-82673557D01*
X106160914Y-82625938D01*
X106494247Y-82625938D01*
X106684723Y-82673557D01*
X106779961Y-82768795D01*
X106827580Y-82864033D01*
X106827580Y-83054509D01*
X106779961Y-83149747D01*
X106684723Y-83244985D01*
X106494247Y-83292604D01*
X106160914Y-83292604D01*
X105970438Y-83244985D01*
X105875200Y-83149747D01*
X105827580Y-83054509D01*
X106827580Y-82197366D02*
X105827580Y-82197366D01*
X106827580Y-81625938D01*
X105827580Y-81625938D01*
X105779961Y-80435461D02*
X107065676Y-81292604D01*
X105827580Y-79911652D02*
X105827580Y-79721176D01*
X105875200Y-79625938D01*
X105970438Y-79530700D01*
X106160914Y-79483080D01*
X106494247Y-79483080D01*
X106684723Y-79530700D01*
X106779961Y-79625938D01*
X106827580Y-79721176D01*
X106827580Y-79911652D01*
X106779961Y-80006890D01*
X106684723Y-80102128D01*
X106494247Y-80149747D01*
X106160914Y-80149747D01*
X105970438Y-80102128D01*
X105875200Y-80006890D01*
X105827580Y-79911652D01*
X106303771Y-78721176D02*
X106303771Y-79054509D01*
X106827580Y-79054509D02*
X105827580Y-79054509D01*
X105827580Y-78578319D01*
X106303771Y-77864033D02*
X106303771Y-78197366D01*
X106827580Y-78197366D02*
X105827580Y-78197366D01*
X105827580Y-77721176D01*
G04 #@! TO.C,J2*
X82559566Y-82339380D02*
X82559566Y-83053666D01*
X82511947Y-83196523D01*
X82416709Y-83291761D01*
X82273852Y-83339380D01*
X82178614Y-83339380D01*
X82988138Y-82434619D02*
X83035757Y-82387000D01*
X83130995Y-82339380D01*
X83369090Y-82339380D01*
X83464328Y-82387000D01*
X83511947Y-82434619D01*
X83559566Y-82529857D01*
X83559566Y-82625095D01*
X83511947Y-82767952D01*
X82940519Y-83339380D01*
X83559566Y-83339380D01*
G04 #@! TO.C,D3*
X101463695Y-63584080D02*
X101463695Y-62584080D01*
X101701790Y-62584080D01*
X101844647Y-62631700D01*
X101939885Y-62726938D01*
X101987504Y-62822176D01*
X102035123Y-63012652D01*
X102035123Y-63155509D01*
X101987504Y-63345985D01*
X101939885Y-63441223D01*
X101844647Y-63536461D01*
X101701790Y-63584080D01*
X101463695Y-63584080D01*
X102654171Y-62584080D02*
X102844647Y-62584080D01*
X102939885Y-62631700D01*
X103035123Y-62726938D01*
X103082742Y-62917414D01*
X103082742Y-63250747D01*
X103035123Y-63441223D01*
X102939885Y-63536461D01*
X102844647Y-63584080D01*
X102654171Y-63584080D01*
X102558933Y-63536461D01*
X102463695Y-63441223D01*
X102416076Y-63250747D01*
X102416076Y-62917414D01*
X102463695Y-62726938D01*
X102558933Y-62631700D01*
X102654171Y-62584080D01*
X103511314Y-63584080D02*
X103511314Y-62584080D01*
X104082742Y-63584080D01*
X104082742Y-62584080D01*
X104558933Y-63060271D02*
X104892266Y-63060271D01*
X105035123Y-63584080D02*
X104558933Y-63584080D01*
X104558933Y-62584080D01*
X105035123Y-62584080D01*
G04 #@! TO.C,D1*
X95000914Y-64161942D02*
X94953295Y-64209561D01*
X94810438Y-64257180D01*
X94715200Y-64257180D01*
X94572342Y-64209561D01*
X94477104Y-64114323D01*
X94429485Y-64019085D01*
X94381866Y-63828609D01*
X94381866Y-63685752D01*
X94429485Y-63495276D01*
X94477104Y-63400038D01*
X94572342Y-63304800D01*
X94715200Y-63257180D01*
X94810438Y-63257180D01*
X94953295Y-63304800D01*
X95000914Y-63352419D01*
X95429485Y-64257180D02*
X95429485Y-63257180D01*
X95429485Y-63733371D02*
X96000914Y-63733371D01*
X96000914Y-64257180D02*
X96000914Y-63257180D01*
X97048533Y-64257180D02*
X96715200Y-63780990D01*
X96477104Y-64257180D02*
X96477104Y-63257180D01*
X96858057Y-63257180D01*
X96953295Y-63304800D01*
X97000914Y-63352419D01*
X97048533Y-63447657D01*
X97048533Y-63590514D01*
X97000914Y-63685752D01*
X96953295Y-63733371D01*
X96858057Y-63780990D01*
X96477104Y-63780990D01*
X98000914Y-63304800D02*
X97905676Y-63257180D01*
X97762819Y-63257180D01*
X97619961Y-63304800D01*
X97524723Y-63400038D01*
X97477104Y-63495276D01*
X97429485Y-63685752D01*
X97429485Y-63828609D01*
X97477104Y-64019085D01*
X97524723Y-64114323D01*
X97619961Y-64209561D01*
X97762819Y-64257180D01*
X97858057Y-64257180D01*
X98000914Y-64209561D01*
X98048533Y-64161942D01*
X98048533Y-63828609D01*
X97858057Y-63828609D01*
G04 #@! TO.C,C1*
X103465333Y-85955142D02*
X103417714Y-86002761D01*
X103274857Y-86050380D01*
X103179619Y-86050380D01*
X103036761Y-86002761D01*
X102941523Y-85907523D01*
X102893904Y-85812285D01*
X102846285Y-85621809D01*
X102846285Y-85478952D01*
X102893904Y-85288476D01*
X102941523Y-85193238D01*
X103036761Y-85098000D01*
X103179619Y-85050380D01*
X103274857Y-85050380D01*
X103417714Y-85098000D01*
X103465333Y-85145619D01*
X104417714Y-86050380D02*
X103846285Y-86050380D01*
X104132000Y-86050380D02*
X104132000Y-85050380D01*
X104036761Y-85193238D01*
X103941523Y-85288476D01*
X103846285Y-85336095D01*
G04 #@! TO.C,C2*
X100417333Y-81129142D02*
X100369714Y-81176761D01*
X100226857Y-81224380D01*
X100131619Y-81224380D01*
X99988761Y-81176761D01*
X99893523Y-81081523D01*
X99845904Y-80986285D01*
X99798285Y-80795809D01*
X99798285Y-80652952D01*
X99845904Y-80462476D01*
X99893523Y-80367238D01*
X99988761Y-80272000D01*
X100131619Y-80224380D01*
X100226857Y-80224380D01*
X100369714Y-80272000D01*
X100417333Y-80319619D01*
X100798285Y-80319619D02*
X100845904Y-80272000D01*
X100941142Y-80224380D01*
X101179238Y-80224380D01*
X101274476Y-80272000D01*
X101322095Y-80319619D01*
X101369714Y-80414857D01*
X101369714Y-80510095D01*
X101322095Y-80652952D01*
X100750666Y-81224380D01*
X101369714Y-81224380D01*
G04 #@! TO.C,C3*
X97216933Y-70537342D02*
X97169314Y-70584961D01*
X97026457Y-70632580D01*
X96931219Y-70632580D01*
X96788361Y-70584961D01*
X96693123Y-70489723D01*
X96645504Y-70394485D01*
X96597885Y-70204009D01*
X96597885Y-70061152D01*
X96645504Y-69870676D01*
X96693123Y-69775438D01*
X96788361Y-69680200D01*
X96931219Y-69632580D01*
X97026457Y-69632580D01*
X97169314Y-69680200D01*
X97216933Y-69727819D01*
X97550266Y-69632580D02*
X98169314Y-69632580D01*
X97835980Y-70013533D01*
X97978838Y-70013533D01*
X98074076Y-70061152D01*
X98121695Y-70108771D01*
X98169314Y-70204009D01*
X98169314Y-70442104D01*
X98121695Y-70537342D01*
X98074076Y-70584961D01*
X97978838Y-70632580D01*
X97693123Y-70632580D01*
X97597885Y-70584961D01*
X97550266Y-70537342D01*
G04 #@! TO.C,C4*
X83653333Y-58523142D02*
X83605714Y-58570761D01*
X83462857Y-58618380D01*
X83367619Y-58618380D01*
X83224761Y-58570761D01*
X83129523Y-58475523D01*
X83081904Y-58380285D01*
X83034285Y-58189809D01*
X83034285Y-58046952D01*
X83081904Y-57856476D01*
X83129523Y-57761238D01*
X83224761Y-57666000D01*
X83367619Y-57618380D01*
X83462857Y-57618380D01*
X83605714Y-57666000D01*
X83653333Y-57713619D01*
X84510476Y-57951714D02*
X84510476Y-58618380D01*
X84272380Y-57570761D02*
X84034285Y-58285047D01*
X84653333Y-58285047D01*
G04 #@! TO.C,C5*
X104481333Y-61571142D02*
X104433714Y-61618761D01*
X104290857Y-61666380D01*
X104195619Y-61666380D01*
X104052761Y-61618761D01*
X103957523Y-61523523D01*
X103909904Y-61428285D01*
X103862285Y-61237809D01*
X103862285Y-61094952D01*
X103909904Y-60904476D01*
X103957523Y-60809238D01*
X104052761Y-60714000D01*
X104195619Y-60666380D01*
X104290857Y-60666380D01*
X104433714Y-60714000D01*
X104481333Y-60761619D01*
X105386095Y-60666380D02*
X104909904Y-60666380D01*
X104862285Y-61142571D01*
X104909904Y-61094952D01*
X105005142Y-61047333D01*
X105243238Y-61047333D01*
X105338476Y-61094952D01*
X105386095Y-61142571D01*
X105433714Y-61237809D01*
X105433714Y-61475904D01*
X105386095Y-61571142D01*
X105338476Y-61618761D01*
X105243238Y-61666380D01*
X105005142Y-61666380D01*
X104909904Y-61618761D01*
X104862285Y-61571142D01*
G04 #@! TO.C,C6*
X104657142Y-69254666D02*
X104704761Y-69302285D01*
X104752380Y-69445142D01*
X104752380Y-69540380D01*
X104704761Y-69683238D01*
X104609523Y-69778476D01*
X104514285Y-69826095D01*
X104323809Y-69873714D01*
X104180952Y-69873714D01*
X103990476Y-69826095D01*
X103895238Y-69778476D01*
X103800000Y-69683238D01*
X103752380Y-69540380D01*
X103752380Y-69445142D01*
X103800000Y-69302285D01*
X103847619Y-69254666D01*
X103752380Y-68397523D02*
X103752380Y-68588000D01*
X103800000Y-68683238D01*
X103847619Y-68730857D01*
X103990476Y-68826095D01*
X104180952Y-68873714D01*
X104561904Y-68873714D01*
X104657142Y-68826095D01*
X104704761Y-68778476D01*
X104752380Y-68683238D01*
X104752380Y-68492761D01*
X104704761Y-68397523D01*
X104657142Y-68349904D01*
X104561904Y-68302285D01*
X104323809Y-68302285D01*
X104228571Y-68349904D01*
X104180952Y-68397523D01*
X104133333Y-68492761D01*
X104133333Y-68683238D01*
X104180952Y-68778476D01*
X104228571Y-68826095D01*
X104323809Y-68873714D01*
G04 #@! TO.C,C7*
X78379554Y-61465543D02*
X78331935Y-61513162D01*
X78189078Y-61560781D01*
X78093840Y-61560781D01*
X77950982Y-61513162D01*
X77855744Y-61417924D01*
X77808125Y-61322686D01*
X77760506Y-61132210D01*
X77760506Y-60989353D01*
X77808125Y-60798877D01*
X77855744Y-60703639D01*
X77950982Y-60608401D01*
X78093840Y-60560781D01*
X78189078Y-60560781D01*
X78331935Y-60608401D01*
X78379554Y-60656020D01*
X78712887Y-60560781D02*
X79379554Y-60560781D01*
X78950982Y-61560781D01*
G04 #@! TO.C,C8*
X110069333Y-58523142D02*
X110021714Y-58570761D01*
X109878857Y-58618380D01*
X109783619Y-58618380D01*
X109640761Y-58570761D01*
X109545523Y-58475523D01*
X109497904Y-58380285D01*
X109450285Y-58189809D01*
X109450285Y-58046952D01*
X109497904Y-57856476D01*
X109545523Y-57761238D01*
X109640761Y-57666000D01*
X109783619Y-57618380D01*
X109878857Y-57618380D01*
X110021714Y-57666000D01*
X110069333Y-57713619D01*
X110640761Y-58046952D02*
X110545523Y-57999333D01*
X110497904Y-57951714D01*
X110450285Y-57856476D01*
X110450285Y-57808857D01*
X110497904Y-57713619D01*
X110545523Y-57666000D01*
X110640761Y-57618380D01*
X110831238Y-57618380D01*
X110926476Y-57666000D01*
X110974095Y-57713619D01*
X111021714Y-57808857D01*
X111021714Y-57856476D01*
X110974095Y-57951714D01*
X110926476Y-57999333D01*
X110831238Y-58046952D01*
X110640761Y-58046952D01*
X110545523Y-58094571D01*
X110497904Y-58142190D01*
X110450285Y-58237428D01*
X110450285Y-58427904D01*
X110497904Y-58523142D01*
X110545523Y-58570761D01*
X110640761Y-58618380D01*
X110831238Y-58618380D01*
X110926476Y-58570761D01*
X110974095Y-58523142D01*
X111021714Y-58427904D01*
X111021714Y-58237428D01*
X110974095Y-58142190D01*
X110926476Y-58094571D01*
X110831238Y-58046952D01*
G04 #@! TO.C,C9*
X107021333Y-90527142D02*
X106973714Y-90574761D01*
X106830857Y-90622380D01*
X106735619Y-90622380D01*
X106592761Y-90574761D01*
X106497523Y-90479523D01*
X106449904Y-90384285D01*
X106402285Y-90193809D01*
X106402285Y-90050952D01*
X106449904Y-89860476D01*
X106497523Y-89765238D01*
X106592761Y-89670000D01*
X106735619Y-89622380D01*
X106830857Y-89622380D01*
X106973714Y-89670000D01*
X107021333Y-89717619D01*
X107497523Y-90622380D02*
X107688000Y-90622380D01*
X107783238Y-90574761D01*
X107830857Y-90527142D01*
X107926095Y-90384285D01*
X107973714Y-90193809D01*
X107973714Y-89812857D01*
X107926095Y-89717619D01*
X107878476Y-89670000D01*
X107783238Y-89622380D01*
X107592761Y-89622380D01*
X107497523Y-89670000D01*
X107449904Y-89717619D01*
X107402285Y-89812857D01*
X107402285Y-90050952D01*
X107449904Y-90146190D01*
X107497523Y-90193809D01*
X107592761Y-90241428D01*
X107783238Y-90241428D01*
X107878476Y-90193809D01*
X107926095Y-90146190D01*
X107973714Y-90050952D01*
G04 #@! TO.C,C10*
X96308942Y-72061342D02*
X96261323Y-72108961D01*
X96118466Y-72156580D01*
X96023228Y-72156580D01*
X95880371Y-72108961D01*
X95785133Y-72013723D01*
X95737514Y-71918485D01*
X95689895Y-71728009D01*
X95689895Y-71585152D01*
X95737514Y-71394676D01*
X95785133Y-71299438D01*
X95880371Y-71204200D01*
X96023228Y-71156580D01*
X96118466Y-71156580D01*
X96261323Y-71204200D01*
X96308942Y-71251819D01*
X97261323Y-72156580D02*
X96689895Y-72156580D01*
X96975609Y-72156580D02*
X96975609Y-71156580D01*
X96880371Y-71299438D01*
X96785133Y-71394676D01*
X96689895Y-71442295D01*
X97880371Y-71156580D02*
X97975609Y-71156580D01*
X98070847Y-71204200D01*
X98118466Y-71251819D01*
X98166085Y-71347057D01*
X98213704Y-71537533D01*
X98213704Y-71775628D01*
X98166085Y-71966104D01*
X98118466Y-72061342D01*
X98070847Y-72108961D01*
X97975609Y-72156580D01*
X97880371Y-72156580D01*
X97785133Y-72108961D01*
X97737514Y-72061342D01*
X97689895Y-71966104D01*
X97642276Y-71775628D01*
X97642276Y-71537533D01*
X97689895Y-71347057D01*
X97737514Y-71251819D01*
X97785133Y-71204200D01*
X97880371Y-71156580D01*
G04 #@! TO.C,C11*
X93565742Y-72772542D02*
X93518123Y-72820161D01*
X93375266Y-72867780D01*
X93280028Y-72867780D01*
X93137171Y-72820161D01*
X93041933Y-72724923D01*
X92994314Y-72629685D01*
X92946695Y-72439209D01*
X92946695Y-72296352D01*
X92994314Y-72105876D01*
X93041933Y-72010638D01*
X93137171Y-71915400D01*
X93280028Y-71867780D01*
X93375266Y-71867780D01*
X93518123Y-71915400D01*
X93565742Y-71963019D01*
X94518123Y-72867780D02*
X93946695Y-72867780D01*
X94232409Y-72867780D02*
X94232409Y-71867780D01*
X94137171Y-72010638D01*
X94041933Y-72105876D01*
X93946695Y-72153495D01*
X95470504Y-72867780D02*
X94899076Y-72867780D01*
X95184790Y-72867780D02*
X95184790Y-71867780D01*
X95089552Y-72010638D01*
X94994314Y-72105876D01*
X94899076Y-72153495D01*
G04 #@! TO.C,C12*
X93540342Y-68403742D02*
X93492723Y-68451361D01*
X93349866Y-68498980D01*
X93254628Y-68498980D01*
X93111771Y-68451361D01*
X93016533Y-68356123D01*
X92968914Y-68260885D01*
X92921295Y-68070409D01*
X92921295Y-67927552D01*
X92968914Y-67737076D01*
X93016533Y-67641838D01*
X93111771Y-67546600D01*
X93254628Y-67498980D01*
X93349866Y-67498980D01*
X93492723Y-67546600D01*
X93540342Y-67594219D01*
X94492723Y-68498980D02*
X93921295Y-68498980D01*
X94207009Y-68498980D02*
X94207009Y-67498980D01*
X94111771Y-67641838D01*
X94016533Y-67737076D01*
X93921295Y-67784695D01*
X94873676Y-67594219D02*
X94921295Y-67546600D01*
X95016533Y-67498980D01*
X95254628Y-67498980D01*
X95349866Y-67546600D01*
X95397485Y-67594219D01*
X95445104Y-67689457D01*
X95445104Y-67784695D01*
X95397485Y-67927552D01*
X94826057Y-68498980D01*
X95445104Y-68498980D01*
G04 #@! TO.C,C13*
X102989142Y-75287142D02*
X102941523Y-75334761D01*
X102798666Y-75382380D01*
X102703428Y-75382380D01*
X102560571Y-75334761D01*
X102465333Y-75239523D01*
X102417714Y-75144285D01*
X102370095Y-74953809D01*
X102370095Y-74810952D01*
X102417714Y-74620476D01*
X102465333Y-74525238D01*
X102560571Y-74430000D01*
X102703428Y-74382380D01*
X102798666Y-74382380D01*
X102941523Y-74430000D01*
X102989142Y-74477619D01*
X103941523Y-75382380D02*
X103370095Y-75382380D01*
X103655809Y-75382380D02*
X103655809Y-74382380D01*
X103560571Y-74525238D01*
X103465333Y-74620476D01*
X103370095Y-74668095D01*
X104274857Y-74382380D02*
X104893904Y-74382380D01*
X104560571Y-74763333D01*
X104703428Y-74763333D01*
X104798666Y-74810952D01*
X104846285Y-74858571D01*
X104893904Y-74953809D01*
X104893904Y-75191904D01*
X104846285Y-75287142D01*
X104798666Y-75334761D01*
X104703428Y-75382380D01*
X104417714Y-75382380D01*
X104322476Y-75334761D01*
X104274857Y-75287142D01*
G04 #@! TO.C,D2*
X94003904Y-79700380D02*
X94003904Y-78700380D01*
X94242000Y-78700380D01*
X94384857Y-78748000D01*
X94480095Y-78843238D01*
X94527714Y-78938476D01*
X94575333Y-79128952D01*
X94575333Y-79271809D01*
X94527714Y-79462285D01*
X94480095Y-79557523D01*
X94384857Y-79652761D01*
X94242000Y-79700380D01*
X94003904Y-79700380D01*
X94956285Y-78795619D02*
X95003904Y-78748000D01*
X95099142Y-78700380D01*
X95337238Y-78700380D01*
X95432476Y-78748000D01*
X95480095Y-78795619D01*
X95527714Y-78890857D01*
X95527714Y-78986095D01*
X95480095Y-79128952D01*
X94908666Y-79700380D01*
X95527714Y-79700380D01*
G04 #@! TO.C,J1*
X107402380Y-67135333D02*
X108116666Y-67135333D01*
X108259523Y-67182952D01*
X108354761Y-67278190D01*
X108402380Y-67421047D01*
X108402380Y-67516285D01*
X108402380Y-66135333D02*
X108402380Y-66706761D01*
X108402380Y-66421047D02*
X107402380Y-66421047D01*
X107545238Y-66516285D01*
X107640476Y-66611523D01*
X107688095Y-66706761D01*
G04 #@! TO.C,MOD1*
X87812571Y-91439619D02*
X87860190Y-91296761D01*
X87907809Y-91249142D01*
X88003047Y-91201523D01*
X88145904Y-91201523D01*
X88241142Y-91249142D01*
X88288761Y-91296761D01*
X88336380Y-91392000D01*
X88336380Y-91772952D01*
X87336380Y-91772952D01*
X87336380Y-91439619D01*
X87384000Y-91344380D01*
X87431619Y-91296761D01*
X87526857Y-91249142D01*
X87622095Y-91249142D01*
X87717333Y-91296761D01*
X87764952Y-91344380D01*
X87812571Y-91439619D01*
X87812571Y-91772952D01*
X88336380Y-90772952D02*
X87336380Y-90772952D01*
X88050666Y-90439619D01*
X87336380Y-90106285D01*
X88336380Y-90106285D01*
X88336380Y-89630095D02*
X87336380Y-89630095D01*
X87336380Y-89392000D01*
X87384000Y-89249142D01*
X87479238Y-89153904D01*
X87574476Y-89106285D01*
X87764952Y-89058666D01*
X87907809Y-89058666D01*
X88098285Y-89106285D01*
X88193523Y-89153904D01*
X88288761Y-89249142D01*
X88336380Y-89392000D01*
X88336380Y-89630095D01*
X87955428Y-88630095D02*
X87955428Y-87868190D01*
X87336380Y-87487238D02*
X87336380Y-86868190D01*
X87717333Y-87201523D01*
X87717333Y-87058666D01*
X87764952Y-86963428D01*
X87812571Y-86915809D01*
X87907809Y-86868190D01*
X88145904Y-86868190D01*
X88241142Y-86915809D01*
X88288761Y-86963428D01*
X88336380Y-87058666D01*
X88336380Y-87344380D01*
X88288761Y-87439619D01*
X88241142Y-87487238D01*
X87336380Y-86249142D02*
X87336380Y-86153904D01*
X87384000Y-86058666D01*
X87431619Y-86011047D01*
X87526857Y-85963428D01*
X87717333Y-85915809D01*
X87955428Y-85915809D01*
X88145904Y-85963428D01*
X88241142Y-86011047D01*
X88288761Y-86058666D01*
X88336380Y-86153904D01*
X88336380Y-86249142D01*
X88288761Y-86344380D01*
X88241142Y-86392000D01*
X88145904Y-86439619D01*
X87955428Y-86487238D01*
X87717333Y-86487238D01*
X87526857Y-86439619D01*
X87431619Y-86392000D01*
X87384000Y-86344380D01*
X87336380Y-86249142D01*
X87336380Y-85296761D02*
X87336380Y-85201523D01*
X87384000Y-85106285D01*
X87431619Y-85058666D01*
X87526857Y-85011047D01*
X87717333Y-84963428D01*
X87955428Y-84963428D01*
X88145904Y-85011047D01*
X88241142Y-85058666D01*
X88288761Y-85106285D01*
X88336380Y-85201523D01*
X88336380Y-85296761D01*
X88288761Y-85392000D01*
X88241142Y-85439619D01*
X88145904Y-85487238D01*
X87955428Y-85534857D01*
X87717333Y-85534857D01*
X87526857Y-85487238D01*
X87431619Y-85439619D01*
X87384000Y-85392000D01*
X87336380Y-85296761D01*
G04 #@! TO.C,R1*
X103465333Y-83002380D02*
X103132000Y-82526190D01*
X102893904Y-83002380D02*
X102893904Y-82002380D01*
X103274857Y-82002380D01*
X103370095Y-82050000D01*
X103417714Y-82097619D01*
X103465333Y-82192857D01*
X103465333Y-82335714D01*
X103417714Y-82430952D01*
X103370095Y-82478571D01*
X103274857Y-82526190D01*
X102893904Y-82526190D01*
X104417714Y-83002380D02*
X103846285Y-83002380D01*
X104132000Y-83002380D02*
X104132000Y-82002380D01*
X104036761Y-82145238D01*
X103941523Y-82240476D01*
X103846285Y-82288095D01*
G04 #@! TO.C,R2*
X103465333Y-84526380D02*
X103132000Y-84050190D01*
X102893904Y-84526380D02*
X102893904Y-83526380D01*
X103274857Y-83526380D01*
X103370095Y-83574000D01*
X103417714Y-83621619D01*
X103465333Y-83716857D01*
X103465333Y-83859714D01*
X103417714Y-83954952D01*
X103370095Y-84002571D01*
X103274857Y-84050190D01*
X102893904Y-84050190D01*
X103846285Y-83621619D02*
X103893904Y-83574000D01*
X103989142Y-83526380D01*
X104227238Y-83526380D01*
X104322476Y-83574000D01*
X104370095Y-83621619D01*
X104417714Y-83716857D01*
X104417714Y-83812095D01*
X104370095Y-83954952D01*
X103798666Y-84526380D01*
X104417714Y-84526380D01*
G04 #@! TO.C,R3*
X102195333Y-61920380D02*
X101862000Y-61444190D01*
X101623904Y-61920380D02*
X101623904Y-60920380D01*
X102004857Y-60920380D01*
X102100095Y-60968000D01*
X102147714Y-61015619D01*
X102195333Y-61110857D01*
X102195333Y-61253714D01*
X102147714Y-61348952D01*
X102100095Y-61396571D01*
X102004857Y-61444190D01*
X101623904Y-61444190D01*
X102528666Y-60920380D02*
X103147714Y-60920380D01*
X102814380Y-61301333D01*
X102957238Y-61301333D01*
X103052476Y-61348952D01*
X103100095Y-61396571D01*
X103147714Y-61491809D01*
X103147714Y-61729904D01*
X103100095Y-61825142D01*
X103052476Y-61872761D01*
X102957238Y-61920380D01*
X102671523Y-61920380D01*
X102576285Y-61872761D01*
X102528666Y-61825142D01*
G04 #@! TO.C,R4*
X94575333Y-75128380D02*
X94242000Y-74652190D01*
X94003904Y-75128380D02*
X94003904Y-74128380D01*
X94384857Y-74128380D01*
X94480095Y-74176000D01*
X94527714Y-74223619D01*
X94575333Y-74318857D01*
X94575333Y-74461714D01*
X94527714Y-74556952D01*
X94480095Y-74604571D01*
X94384857Y-74652190D01*
X94003904Y-74652190D01*
X95432476Y-74461714D02*
X95432476Y-75128380D01*
X95194380Y-74080761D02*
X94956285Y-74795047D01*
X95575333Y-74795047D01*
G04 #@! TO.C,R5*
X104846380Y-64936666D02*
X104370190Y-65270000D01*
X104846380Y-65508095D02*
X103846380Y-65508095D01*
X103846380Y-65127142D01*
X103894000Y-65031904D01*
X103941619Y-64984285D01*
X104036857Y-64936666D01*
X104179714Y-64936666D01*
X104274952Y-64984285D01*
X104322571Y-65031904D01*
X104370190Y-65127142D01*
X104370190Y-65508095D01*
X103846380Y-64031904D02*
X103846380Y-64508095D01*
X104322571Y-64555714D01*
X104274952Y-64508095D01*
X104227333Y-64412857D01*
X104227333Y-64174761D01*
X104274952Y-64079523D01*
X104322571Y-64031904D01*
X104417809Y-63984285D01*
X104655904Y-63984285D01*
X104751142Y-64031904D01*
X104798761Y-64079523D01*
X104846380Y-64174761D01*
X104846380Y-64412857D01*
X104798761Y-64508095D01*
X104751142Y-64555714D01*
G04 #@! TO.C,R6*
X97115333Y-61920380D02*
X96782000Y-61444190D01*
X96543904Y-61920380D02*
X96543904Y-60920380D01*
X96924857Y-60920380D01*
X97020095Y-60968000D01*
X97067714Y-61015619D01*
X97115333Y-61110857D01*
X97115333Y-61253714D01*
X97067714Y-61348952D01*
X97020095Y-61396571D01*
X96924857Y-61444190D01*
X96543904Y-61444190D01*
X97972476Y-60920380D02*
X97782000Y-60920380D01*
X97686761Y-60968000D01*
X97639142Y-61015619D01*
X97543904Y-61158476D01*
X97496285Y-61348952D01*
X97496285Y-61729904D01*
X97543904Y-61825142D01*
X97591523Y-61872761D01*
X97686761Y-61920380D01*
X97877238Y-61920380D01*
X97972476Y-61872761D01*
X98020095Y-61825142D01*
X98067714Y-61729904D01*
X98067714Y-61491809D01*
X98020095Y-61396571D01*
X97972476Y-61348952D01*
X97877238Y-61301333D01*
X97686761Y-61301333D01*
X97591523Y-61348952D01*
X97543904Y-61396571D01*
X97496285Y-61491809D01*
G04 #@! TO.C,U1*
X92711923Y-65670180D02*
X93283352Y-65670180D01*
X92997638Y-66670180D02*
X92997638Y-65670180D01*
X93616685Y-66670180D02*
X93616685Y-65670180D01*
X93997638Y-65670180D01*
X94092876Y-65717800D01*
X94140495Y-65765419D01*
X94188114Y-65860657D01*
X94188114Y-66003514D01*
X94140495Y-66098752D01*
X94092876Y-66146371D01*
X93997638Y-66193990D01*
X93616685Y-66193990D01*
X95045257Y-66003514D02*
X95045257Y-66670180D01*
X94807161Y-65622561D02*
X94569066Y-66336847D01*
X95188114Y-66336847D01*
X95759542Y-65670180D02*
X95854780Y-65670180D01*
X95950019Y-65717800D01*
X95997638Y-65765419D01*
X96045257Y-65860657D01*
X96092876Y-66051133D01*
X96092876Y-66289228D01*
X96045257Y-66479704D01*
X95997638Y-66574942D01*
X95950019Y-66622561D01*
X95854780Y-66670180D01*
X95759542Y-66670180D01*
X95664304Y-66622561D01*
X95616685Y-66574942D01*
X95569066Y-66479704D01*
X95521447Y-66289228D01*
X95521447Y-66051133D01*
X95569066Y-65860657D01*
X95616685Y-65765419D01*
X95664304Y-65717800D01*
X95759542Y-65670180D01*
X96997638Y-65670180D02*
X96521447Y-65670180D01*
X96473828Y-66146371D01*
X96521447Y-66098752D01*
X96616685Y-66051133D01*
X96854780Y-66051133D01*
X96950019Y-66098752D01*
X96997638Y-66146371D01*
X97045257Y-66241609D01*
X97045257Y-66479704D01*
X96997638Y-66574942D01*
X96950019Y-66622561D01*
X96854780Y-66670180D01*
X96616685Y-66670180D01*
X96521447Y-66622561D01*
X96473828Y-66574942D01*
X97378590Y-65670180D02*
X98045257Y-65670180D01*
X97616685Y-66670180D01*
G04 #@! TO.C,U4*
X104229233Y-88463380D02*
X103753042Y-88463380D01*
X103753042Y-87463380D01*
X104514947Y-88415761D02*
X104657804Y-88463380D01*
X104895900Y-88463380D01*
X104991138Y-88415761D01*
X105038757Y-88368142D01*
X105086376Y-88272904D01*
X105086376Y-88177666D01*
X105038757Y-88082428D01*
X104991138Y-88034809D01*
X104895900Y-87987190D01*
X104705423Y-87939571D01*
X104610185Y-87891952D01*
X104562566Y-87844333D01*
X104514947Y-87749095D01*
X104514947Y-87653857D01*
X104562566Y-87558619D01*
X104610185Y-87511000D01*
X104705423Y-87463380D01*
X104943519Y-87463380D01*
X105086376Y-87511000D01*
X105514947Y-88463380D02*
X105514947Y-87463380D01*
X105848280Y-88177666D01*
X106181614Y-87463380D01*
X106181614Y-88463380D01*
X107086376Y-87463380D02*
X106895900Y-87463380D01*
X106800661Y-87511000D01*
X106753042Y-87558619D01*
X106657804Y-87701476D01*
X106610185Y-87891952D01*
X106610185Y-88272904D01*
X106657804Y-88368142D01*
X106705423Y-88415761D01*
X106800661Y-88463380D01*
X106991138Y-88463380D01*
X107086376Y-88415761D01*
X107133995Y-88368142D01*
X107181614Y-88272904D01*
X107181614Y-88034809D01*
X107133995Y-87939571D01*
X107086376Y-87891952D01*
X106991138Y-87844333D01*
X106800661Y-87844333D01*
X106705423Y-87891952D01*
X106657804Y-87939571D01*
X106610185Y-88034809D01*
X107610185Y-88463380D02*
X107610185Y-87463380D01*
X107848280Y-87463380D01*
X107991138Y-87511000D01*
X108086376Y-87606238D01*
X108133995Y-87701476D01*
X108181614Y-87891952D01*
X108181614Y-88034809D01*
X108133995Y-88225285D01*
X108086376Y-88320523D01*
X107991138Y-88415761D01*
X107848280Y-88463380D01*
X107610185Y-88463380D01*
X108562566Y-88415761D02*
X108705423Y-88463380D01*
X108943519Y-88463380D01*
X109038757Y-88415761D01*
X109086376Y-88368142D01*
X109133995Y-88272904D01*
X109133995Y-88177666D01*
X109086376Y-88082428D01*
X109038757Y-88034809D01*
X108943519Y-87987190D01*
X108753042Y-87939571D01*
X108657804Y-87891952D01*
X108610185Y-87844333D01*
X108562566Y-87749095D01*
X108562566Y-87653857D01*
X108610185Y-87558619D01*
X108657804Y-87511000D01*
X108753042Y-87463380D01*
X108991138Y-87463380D01*
X109133995Y-87511000D01*
X109467328Y-87463380D02*
X110086376Y-87463380D01*
X109753042Y-87844333D01*
X109895900Y-87844333D01*
X109991138Y-87891952D01*
X110038757Y-87939571D01*
X110086376Y-88034809D01*
X110086376Y-88272904D01*
X110038757Y-88368142D01*
X109991138Y-88415761D01*
X109895900Y-88463380D01*
X109610185Y-88463380D01*
X109514947Y-88415761D01*
X109467328Y-88368142D01*
G04 #@! TO.C,U5*
X98115809Y-77414380D02*
X98115809Y-76414380D01*
X98449142Y-77128666D01*
X98782476Y-76414380D01*
X98782476Y-77414380D01*
X99258666Y-77414380D02*
X99258666Y-76414380D01*
X100306285Y-77319142D02*
X100258666Y-77366761D01*
X100115809Y-77414380D01*
X100020571Y-77414380D01*
X99877714Y-77366761D01*
X99782476Y-77271523D01*
X99734857Y-77176285D01*
X99687238Y-76985809D01*
X99687238Y-76842952D01*
X99734857Y-76652476D01*
X99782476Y-76557238D01*
X99877714Y-76462000D01*
X100020571Y-76414380D01*
X100115809Y-76414380D01*
X100258666Y-76462000D01*
X100306285Y-76509619D01*
X101211047Y-76414380D02*
X100734857Y-76414380D01*
X100687238Y-76890571D01*
X100734857Y-76842952D01*
X100830095Y-76795333D01*
X101068190Y-76795333D01*
X101163428Y-76842952D01*
X101211047Y-76890571D01*
X101258666Y-76985809D01*
X101258666Y-77223904D01*
X101211047Y-77319142D01*
X101163428Y-77366761D01*
X101068190Y-77414380D01*
X100830095Y-77414380D01*
X100734857Y-77366761D01*
X100687238Y-77319142D01*
X102163428Y-76414380D02*
X101687238Y-76414380D01*
X101639619Y-76890571D01*
X101687238Y-76842952D01*
X101782476Y-76795333D01*
X102020571Y-76795333D01*
X102115809Y-76842952D01*
X102163428Y-76890571D01*
X102211047Y-76985809D01*
X102211047Y-77223904D01*
X102163428Y-77319142D01*
X102115809Y-77366761D01*
X102020571Y-77414380D01*
X101782476Y-77414380D01*
X101687238Y-77366761D01*
X101639619Y-77319142D01*
X102830095Y-76414380D02*
X102925333Y-76414380D01*
X103020571Y-76462000D01*
X103068190Y-76509619D01*
X103115809Y-76604857D01*
X103163428Y-76795333D01*
X103163428Y-77033428D01*
X103115809Y-77223904D01*
X103068190Y-77319142D01*
X103020571Y-77366761D01*
X102925333Y-77414380D01*
X102830095Y-77414380D01*
X102734857Y-77366761D01*
X102687238Y-77319142D01*
X102639619Y-77223904D01*
X102592000Y-77033428D01*
X102592000Y-76795333D01*
X102639619Y-76604857D01*
X102687238Y-76509619D01*
X102734857Y-76462000D01*
X102830095Y-76414380D01*
X104115809Y-77414380D02*
X103544380Y-77414380D01*
X103830095Y-77414380D02*
X103830095Y-76414380D01*
X103734857Y-76557238D01*
X103639619Y-76652476D01*
X103544380Y-76700095D01*
G04 #@! TD*
M02*
