M48
;DRILL file {KiCad 5.0.2-bee76a0~70~ubuntu18.04.1} date vr 28 jun 2019 20:51:29 CEST
;FORMAT={-:-/ absolute / inch / decimal}
FMAT,2
INCH,TZ
T1C0.0118
T2C0.0197
T3C0.0217
T4C0.0256
T5C0.0472
T6C0.0354
%
G90
G05
T1
X3.1713Y-2.2569
X3.181Y-2.31
X3.263Y-3.208
X3.296Y-3.186
X3.35Y-3.476
X3.511Y-3.207
X3.587Y-2.755
X3.589Y-2.715
X3.622Y-3.146
X3.654Y-3.147
X3.6885Y-3.1478
X3.829Y-3.18
X3.8967Y-2.9674
X4.009Y-3.4975
X4.011Y-3.253
X4.2008Y-2.2569
X4.2008Y-2.31
T4
X3.2385Y-3.33
X3.2385Y-3.38
X3.2385Y-3.43
X3.2385Y-3.48
X3.2385Y-3.53
X3.2885Y-3.33
X3.2885Y-3.38
X3.2885Y-3.43
X3.2885Y-3.48
X3.2885Y-3.53
T5
X4.31Y-2.04
X3.09Y-2.04
T6
X4.331Y-3.0629
X4.331Y-3.1811
T2
X4.2635Y-2.4922G85X4.2891Y-2.4922
G05
X4.2635Y-2.7678G85X4.2891Y-2.7678
G05
T3
X4.17Y-2.5375G85X4.17Y-2.5257
G05
X4.17Y-2.7343G85X4.17Y-2.7225
G05
T0
M30
