G04 #@! TF.GenerationSoftware,KiCad,Pcbnew,5.0.2-bee76a0~70~ubuntu18.04.1*
G04 #@! TF.CreationDate,2019-06-28T20:51:35+02:00*
G04 #@! TF.ProjectId,rythm_badge_tudelft,72797468-6d5f-4626-9164-67655f747564,rev?*
G04 #@! TF.SameCoordinates,Original*
G04 #@! TF.FileFunction,Copper,L2,Bot*
G04 #@! TF.FilePolarity,Positive*
%FSLAX46Y46*%
G04 Gerber Fmt 4.6, Leading zero omitted, Abs format (unit mm)*
G04 Created by KiCad (PCBNEW 5.0.2-bee76a0~70~ubuntu18.04.1) date vr 28 jun 2019 20:51:35 CEST*
%MOMM*%
%LPD*%
G01*
G04 APERTURE LIST*
G04 #@! TA.AperFunction,ComponentPad*
%ADD10R,1.000000X1.000000*%
G04 #@! TD*
G04 #@! TA.AperFunction,ComponentPad*
%ADD11O,1.000000X1.000000*%
G04 #@! TD*
G04 #@! TA.AperFunction,ComponentPad*
%ADD12C,3.500120*%
G04 #@! TD*
G04 #@! TA.AperFunction,ComponentPad*
%ADD13O,1.550000X1.000000*%
G04 #@! TD*
G04 #@! TA.AperFunction,ComponentPad*
%ADD14O,0.950000X1.250000*%
G04 #@! TD*
G04 #@! TA.AperFunction,ViaPad*
%ADD15C,0.600000*%
G04 #@! TD*
G04 #@! TA.AperFunction,Conductor*
%ADD16C,0.200000*%
G04 #@! TD*
G04 #@! TA.AperFunction,Conductor*
%ADD17C,0.152400*%
G04 #@! TD*
G04 #@! TA.AperFunction,Conductor*
%ADD18C,0.250000*%
G04 #@! TD*
G04 APERTURE END LIST*
D10*
G04 #@! TO.P,J2,1*
G04 #@! TO.N,/VDD*
X82257900Y-84582000D03*
D11*
G04 #@! TO.P,J2,2*
G04 #@! TO.N,/SWDIO*
X83527900Y-84582000D03*
G04 #@! TO.P,J2,3*
G04 #@! TO.N,GND*
X82257900Y-85852000D03*
G04 #@! TO.P,J2,4*
G04 #@! TO.N,/SWCLK*
X83527900Y-85852000D03*
G04 #@! TO.P,J2,5*
G04 #@! TO.N,GND*
X82257900Y-87122000D03*
G04 #@! TO.P,J2,6*
G04 #@! TO.N,Net-(J2-Pad6)*
X83527900Y-87122000D03*
G04 #@! TO.P,J2,7*
G04 #@! TO.N,GND*
X82257900Y-88392000D03*
G04 #@! TO.P,J2,8*
G04 #@! TO.N,Net-(J2-Pad8)*
X83527900Y-88392000D03*
G04 #@! TO.P,J2,9*
G04 #@! TO.N,GND*
X82257900Y-89662000D03*
G04 #@! TO.P,J2,10*
G04 #@! TO.N,Net-(J2-Pad10)*
X83527900Y-89662000D03*
G04 #@! TD*
D12*
G04 #@! TO.P,J4,1*
G04 #@! TO.N,GND*
X78486000Y-51816000D03*
G04 #@! TD*
G04 #@! TO.P,J3,1*
G04 #@! TO.N,/BAT*
X109474000Y-51816000D03*
G04 #@! TD*
D13*
G04 #@! TO.P,J1,SH*
G04 #@! TO.N,N/C*
X108618000Y-63302000D03*
X108618000Y-70302000D03*
D14*
X105918000Y-69302000D03*
X105918000Y-64302000D03*
G04 #@! TD*
D15*
G04 #@! TO.N,GND*
X89179400Y-81457800D03*
X93687900Y-79954120D03*
G04 #@! TO.N,/BAT*
X101879500Y-82626401D03*
X98976000Y-75372000D03*
G04 #@! TO.N,/VDD*
X97256500Y-80772000D03*
X101828600Y-88836882D03*
G04 #@! TO.N,/SWDIO*
X85090000Y-88290400D03*
G04 #@! TO.N,/CS*
X91160600Y-68961000D03*
X92811598Y-79933800D03*
G04 #@! TO.N,/MOSI*
X91109800Y-69977000D03*
X91998800Y-79908396D03*
G04 #@! TO.N,Net-(MOD1-Pad35)*
X106700000Y-58675000D03*
X80797588Y-58675000D03*
X83718400Y-80924400D03*
G04 #@! TO.N,Net-(MOD1-Pad36)*
X106700000Y-57325000D03*
X80550000Y-57325000D03*
X82880200Y-81483200D03*
G04 #@! TD*
D16*
G04 #@! TO.N,/BAT*
X101854000Y-82600901D02*
X101879500Y-82626401D01*
X98976000Y-75372000D02*
X98976000Y-75372000D01*
X101854000Y-78250000D02*
X101854000Y-82600901D01*
X98976000Y-75372000D02*
X101854000Y-78250000D01*
D17*
G04 #@! TO.N,/VDD*
X97256500Y-80772000D02*
X97256500Y-84264782D01*
X97256500Y-84264782D02*
X101828600Y-88836882D01*
D18*
X96719000Y-80772000D02*
X97256500Y-80772000D01*
X85356000Y-80772000D02*
X96719000Y-80772000D01*
X82296000Y-84582000D02*
X82296000Y-83832000D01*
X82296000Y-83832000D02*
X85356000Y-80772000D01*
G04 #@! TO.N,/SWDIO*
X83566000Y-84582000D02*
X85090000Y-86106000D01*
X85090000Y-87866136D02*
X85090000Y-88290400D01*
X85090000Y-86106000D02*
X85090000Y-87866136D01*
G04 #@! TO.N,/CS*
X92811598Y-79509536D02*
X92811598Y-79933800D01*
X91160600Y-68961000D02*
X92811598Y-70611998D01*
X92811598Y-70611998D02*
X92811598Y-79509536D01*
G04 #@! TO.N,/MOSI*
X91998800Y-70866000D02*
X91998800Y-79484132D01*
X91998800Y-79484132D02*
X91998800Y-79908396D01*
X91109800Y-69977000D02*
X91998800Y-70866000D01*
G04 #@! TO.N,Net-(MOD1-Pad35)*
X106700000Y-58675000D02*
X80797588Y-58675000D01*
X83693000Y-80924400D02*
X83718400Y-80924400D01*
X80187800Y-77419200D02*
X83693000Y-80924400D01*
X80797588Y-58675000D02*
X80187800Y-59284788D01*
X80187800Y-59284788D02*
X80187800Y-77419200D01*
G04 #@! TO.N,Net-(MOD1-Pad36)*
X106700000Y-57325000D02*
X80550000Y-57325000D01*
X82854800Y-81483200D02*
X82880200Y-81483200D01*
X79329001Y-77957401D02*
X82854800Y-81483200D01*
X79329001Y-59270999D02*
X79329001Y-77957401D01*
X80550000Y-57325000D02*
X80550000Y-58050000D01*
X80550000Y-58050000D02*
X79329001Y-59270999D01*
G04 #@! TD*
D17*
G04 #@! TO.N,GND*
G36*
X77390598Y-50121865D02*
X77340015Y-50155663D01*
X77134814Y-50395800D01*
X78486000Y-51746986D01*
X79837186Y-50395800D01*
X79631985Y-50155663D01*
X78909368Y-49843499D01*
X78252879Y-49833600D01*
X108834408Y-49833600D01*
X108297893Y-50055832D01*
X107713832Y-50639893D01*
X107397740Y-51403006D01*
X107397740Y-52228994D01*
X107713832Y-52992107D01*
X108297893Y-53576168D01*
X109061006Y-53892260D01*
X109886994Y-53892260D01*
X110650107Y-53576168D01*
X111234168Y-52992107D01*
X111456401Y-52455590D01*
X111456400Y-91617800D01*
X76503600Y-91617800D01*
X76503600Y-89823921D01*
X81547520Y-89823921D01*
X81641083Y-90049823D01*
X81836449Y-90256347D01*
X82095977Y-90372387D01*
X82209100Y-90331821D01*
X82209100Y-89710800D01*
X81588226Y-89710800D01*
X81547520Y-89823921D01*
X76503600Y-89823921D01*
X76503600Y-88553921D01*
X81547520Y-88553921D01*
X81641083Y-88779823D01*
X81836449Y-88986347D01*
X81927371Y-89027000D01*
X81836449Y-89067653D01*
X81641083Y-89274177D01*
X81547520Y-89500079D01*
X81588226Y-89613200D01*
X82209100Y-89613200D01*
X82209100Y-88440800D01*
X81588226Y-88440800D01*
X81547520Y-88553921D01*
X76503600Y-88553921D01*
X76503600Y-87283921D01*
X81547520Y-87283921D01*
X81641083Y-87509823D01*
X81836449Y-87716347D01*
X81927371Y-87757000D01*
X81836449Y-87797653D01*
X81641083Y-88004177D01*
X81547520Y-88230079D01*
X81588226Y-88343200D01*
X82209100Y-88343200D01*
X82209100Y-87170800D01*
X81588226Y-87170800D01*
X81547520Y-87283921D01*
X76503600Y-87283921D01*
X76503600Y-86013921D01*
X81547520Y-86013921D01*
X81641083Y-86239823D01*
X81836449Y-86446347D01*
X81927371Y-86487000D01*
X81836449Y-86527653D01*
X81641083Y-86734177D01*
X81547520Y-86960079D01*
X81588226Y-87073200D01*
X82209100Y-87073200D01*
X82209100Y-85900800D01*
X81588226Y-85900800D01*
X81547520Y-86013921D01*
X76503600Y-86013921D01*
X76503600Y-84082000D01*
X81524822Y-84082000D01*
X81524822Y-85082000D01*
X81542564Y-85171195D01*
X81593089Y-85246811D01*
X81668705Y-85297336D01*
X81757900Y-85315078D01*
X81782127Y-85315078D01*
X81641083Y-85464177D01*
X81547520Y-85690079D01*
X81588226Y-85803200D01*
X82209100Y-85803200D01*
X82209100Y-85783200D01*
X82306700Y-85783200D01*
X82306700Y-85803200D01*
X82326700Y-85803200D01*
X82326700Y-85900800D01*
X82306700Y-85900800D01*
X82306700Y-87073200D01*
X82326700Y-87073200D01*
X82326700Y-87170800D01*
X82306700Y-87170800D01*
X82306700Y-88343200D01*
X82326700Y-88343200D01*
X82326700Y-88440800D01*
X82306700Y-88440800D01*
X82306700Y-89613200D01*
X82326700Y-89613200D01*
X82326700Y-89710800D01*
X82306700Y-89710800D01*
X82306700Y-90331821D01*
X82419823Y-90372387D01*
X82679351Y-90256347D01*
X82874717Y-90049823D01*
X82888508Y-90016527D01*
X83002609Y-90187291D01*
X83243614Y-90348326D01*
X83456140Y-90390600D01*
X83599660Y-90390600D01*
X83812186Y-90348326D01*
X84053191Y-90187291D01*
X84214226Y-89946286D01*
X84270774Y-89662000D01*
X84214226Y-89377714D01*
X84053191Y-89136709D01*
X83889000Y-89027000D01*
X84053191Y-88917291D01*
X84214226Y-88676286D01*
X84270774Y-88392000D01*
X84214226Y-88107714D01*
X84053191Y-87866709D01*
X83889000Y-87757000D01*
X84053191Y-87647291D01*
X84214226Y-87406286D01*
X84270774Y-87122000D01*
X84214226Y-86837714D01*
X84053191Y-86596709D01*
X83889000Y-86487000D01*
X84053191Y-86377291D01*
X84214226Y-86136286D01*
X84270774Y-85852000D01*
X84254594Y-85770660D01*
X84736400Y-86252466D01*
X84736401Y-87831307D01*
X84736400Y-87831312D01*
X84736400Y-87896446D01*
X84641874Y-87990972D01*
X84561400Y-88185255D01*
X84561400Y-88395545D01*
X84641874Y-88589828D01*
X84790572Y-88738526D01*
X84984855Y-88819000D01*
X85195145Y-88819000D01*
X85389428Y-88738526D01*
X85538126Y-88589828D01*
X85618600Y-88395545D01*
X85618600Y-88185255D01*
X85538126Y-87990972D01*
X85443600Y-87896446D01*
X85443600Y-86140819D01*
X85450526Y-86105999D01*
X85443600Y-86071179D01*
X85443600Y-86071175D01*
X85423084Y-85968032D01*
X85378160Y-85900800D01*
X85364657Y-85880591D01*
X85364655Y-85880589D01*
X85344930Y-85851069D01*
X85315410Y-85831344D01*
X84236811Y-84752746D01*
X84270774Y-84582000D01*
X84214226Y-84297714D01*
X84053191Y-84056709D01*
X83812186Y-83895674D01*
X83599660Y-83853400D01*
X83456140Y-83853400D01*
X83243614Y-83895674D01*
X83002609Y-84056709D01*
X82989770Y-84075925D01*
X82973236Y-83992805D01*
X82922711Y-83917189D01*
X82847095Y-83866664D01*
X82775618Y-83852446D01*
X85502466Y-81125600D01*
X96862546Y-81125600D01*
X96951700Y-81214754D01*
X96951701Y-84234763D01*
X96945730Y-84264782D01*
X96969385Y-84383708D01*
X97019748Y-84459082D01*
X97019751Y-84459085D01*
X97036753Y-84484530D01*
X97062198Y-84501532D01*
X101300000Y-88739335D01*
X101300000Y-88942027D01*
X101380474Y-89136310D01*
X101529172Y-89285008D01*
X101723455Y-89365482D01*
X101933745Y-89365482D01*
X102128028Y-89285008D01*
X102276726Y-89136310D01*
X102357200Y-88942027D01*
X102357200Y-88731737D01*
X102276726Y-88537454D01*
X102128028Y-88388756D01*
X101933745Y-88308282D01*
X101731053Y-88308282D01*
X97561300Y-84138530D01*
X97561300Y-81214754D01*
X97704626Y-81071428D01*
X97785100Y-80877145D01*
X97785100Y-80666855D01*
X97704626Y-80472572D01*
X97555928Y-80323874D01*
X97361645Y-80243400D01*
X97151355Y-80243400D01*
X96957072Y-80323874D01*
X96862546Y-80418400D01*
X93022969Y-80418400D01*
X93111026Y-80381926D01*
X93259724Y-80233228D01*
X93340198Y-80038945D01*
X93340198Y-79828655D01*
X93259724Y-79634372D01*
X93165198Y-79539846D01*
X93165198Y-75247441D01*
X98349800Y-75247441D01*
X98349800Y-75496559D01*
X98445133Y-75726714D01*
X98621286Y-75902867D01*
X98851441Y-75998200D01*
X98999463Y-75998200D01*
X101427800Y-78426538D01*
X101427801Y-82192519D01*
X101348633Y-82271687D01*
X101253300Y-82501842D01*
X101253300Y-82750960D01*
X101348633Y-82981115D01*
X101524786Y-83157268D01*
X101754941Y-83252601D01*
X102004059Y-83252601D01*
X102234214Y-83157268D01*
X102410367Y-82981115D01*
X102505700Y-82750960D01*
X102505700Y-82501842D01*
X102410367Y-82271687D01*
X102280200Y-82141520D01*
X102280200Y-80663818D01*
X109328600Y-80663818D01*
X109328600Y-80933782D01*
X109431910Y-81183196D01*
X109622804Y-81374090D01*
X109872218Y-81477400D01*
X110142182Y-81477400D01*
X110391596Y-81374090D01*
X110582490Y-81183196D01*
X110685800Y-80933782D01*
X110685800Y-80663818D01*
X110582490Y-80414404D01*
X110391596Y-80223510D01*
X110142182Y-80120200D01*
X109872218Y-80120200D01*
X109622804Y-80223510D01*
X109431910Y-80414404D01*
X109328600Y-80663818D01*
X102280200Y-80663818D01*
X102280200Y-78291973D01*
X102288549Y-78250000D01*
X102255471Y-78083705D01*
X102161273Y-77942727D01*
X102125688Y-77918950D01*
X101870556Y-77663818D01*
X109328600Y-77663818D01*
X109328600Y-77933782D01*
X109431910Y-78183196D01*
X109622804Y-78374090D01*
X109872218Y-78477400D01*
X110142182Y-78477400D01*
X110391596Y-78374090D01*
X110582490Y-78183196D01*
X110685800Y-77933782D01*
X110685800Y-77663818D01*
X110582490Y-77414404D01*
X110391596Y-77223510D01*
X110142182Y-77120200D01*
X109872218Y-77120200D01*
X109622804Y-77223510D01*
X109431910Y-77414404D01*
X109328600Y-77663818D01*
X101870556Y-77663818D01*
X99602200Y-75395463D01*
X99602200Y-75247441D01*
X99506867Y-75017286D01*
X99330714Y-74841133D01*
X99100559Y-74745800D01*
X98851441Y-74745800D01*
X98621286Y-74841133D01*
X98445133Y-75017286D01*
X98349800Y-75247441D01*
X93165198Y-75247441D01*
X93165198Y-70646823D01*
X93172125Y-70611998D01*
X93144682Y-70474030D01*
X93086256Y-70386590D01*
X93086253Y-70386587D01*
X93066528Y-70357067D01*
X93037008Y-70337342D01*
X93001666Y-70302000D01*
X107600126Y-70302000D01*
X107656674Y-70586286D01*
X107817709Y-70827291D01*
X108058714Y-70988326D01*
X108271240Y-71030600D01*
X108964760Y-71030600D01*
X109177286Y-70988326D01*
X109418291Y-70827291D01*
X109579326Y-70586286D01*
X109635874Y-70302000D01*
X109579326Y-70017714D01*
X109418291Y-69776709D01*
X109177286Y-69615674D01*
X108964760Y-69573400D01*
X108271240Y-69573400D01*
X108058714Y-69615674D01*
X107817709Y-69776709D01*
X107656674Y-70017714D01*
X107600126Y-70302000D01*
X93001666Y-70302000D01*
X91782370Y-69082705D01*
X105214400Y-69082705D01*
X105214400Y-69521296D01*
X105255224Y-69726531D01*
X105410734Y-69959267D01*
X105643470Y-70114776D01*
X105918000Y-70169384D01*
X106192531Y-70114776D01*
X106425267Y-69959267D01*
X106580776Y-69726531D01*
X106621600Y-69521295D01*
X106621600Y-69082704D01*
X106580776Y-68877469D01*
X106425266Y-68644733D01*
X106192530Y-68489224D01*
X105918000Y-68434616D01*
X105643469Y-68489224D01*
X105410733Y-68644734D01*
X105255224Y-68877470D01*
X105214400Y-69082705D01*
X91782370Y-69082705D01*
X91689200Y-68989536D01*
X91689200Y-68855855D01*
X91608726Y-68661572D01*
X91460028Y-68512874D01*
X91265745Y-68432400D01*
X91055455Y-68432400D01*
X90861172Y-68512874D01*
X90712474Y-68661572D01*
X90632000Y-68855855D01*
X90632000Y-69066145D01*
X90712474Y-69260428D01*
X90861172Y-69409126D01*
X90980322Y-69458479D01*
X90810372Y-69528874D01*
X90661674Y-69677572D01*
X90581200Y-69871855D01*
X90581200Y-70082145D01*
X90661674Y-70276428D01*
X90810372Y-70425126D01*
X91004655Y-70505600D01*
X91138335Y-70505600D01*
X91645200Y-71012466D01*
X91645201Y-79449303D01*
X91645200Y-79449308D01*
X91645200Y-79514442D01*
X91550674Y-79608968D01*
X91470200Y-79803251D01*
X91470200Y-80013541D01*
X91550674Y-80207824D01*
X91699372Y-80356522D01*
X91848760Y-80418400D01*
X85390825Y-80418400D01*
X85356000Y-80411473D01*
X85218032Y-80438916D01*
X85184639Y-80461229D01*
X85101069Y-80517069D01*
X85081342Y-80546592D01*
X82070595Y-83557341D01*
X82041070Y-83577069D01*
X81985848Y-83659713D01*
X81962916Y-83694033D01*
X81935474Y-83832000D01*
X81938840Y-83848922D01*
X81757900Y-83848922D01*
X81668705Y-83866664D01*
X81593089Y-83917189D01*
X81542564Y-83992805D01*
X81524822Y-84082000D01*
X76503600Y-84082000D01*
X76503600Y-59270999D01*
X78968475Y-59270999D01*
X78975401Y-59305820D01*
X78975402Y-77922575D01*
X78968475Y-77957401D01*
X78995917Y-78095368D01*
X78995918Y-78095369D01*
X79074071Y-78212332D01*
X79103596Y-78232060D01*
X82351600Y-81480066D01*
X82351600Y-81588345D01*
X82432074Y-81782628D01*
X82580772Y-81931326D01*
X82775055Y-82011800D01*
X82985345Y-82011800D01*
X83179628Y-81931326D01*
X83328326Y-81782628D01*
X83408800Y-81588345D01*
X83408800Y-81378055D01*
X83397698Y-81351252D01*
X83418972Y-81372526D01*
X83613255Y-81453000D01*
X83823545Y-81453000D01*
X84017828Y-81372526D01*
X84166526Y-81223828D01*
X84247000Y-81029545D01*
X84247000Y-80819255D01*
X84166526Y-80624972D01*
X84017828Y-80476274D01*
X83823545Y-80395800D01*
X83664466Y-80395800D01*
X80541400Y-77272736D01*
X80541400Y-64082705D01*
X105214400Y-64082705D01*
X105214400Y-64521296D01*
X105255224Y-64726531D01*
X105410734Y-64959267D01*
X105643470Y-65114776D01*
X105918000Y-65169384D01*
X106192531Y-65114776D01*
X106425267Y-64959267D01*
X106580776Y-64726531D01*
X106621600Y-64521295D01*
X106621600Y-64082704D01*
X106580776Y-63877469D01*
X106425266Y-63644733D01*
X106192530Y-63489224D01*
X105918000Y-63434616D01*
X105643469Y-63489224D01*
X105410733Y-63644734D01*
X105255224Y-63877470D01*
X105214400Y-64082705D01*
X80541400Y-64082705D01*
X80541400Y-63302000D01*
X107600126Y-63302000D01*
X107656674Y-63586286D01*
X107817709Y-63827291D01*
X108058714Y-63988326D01*
X108271240Y-64030600D01*
X108964760Y-64030600D01*
X109177286Y-63988326D01*
X109418291Y-63827291D01*
X109579326Y-63586286D01*
X109635874Y-63302000D01*
X109579326Y-63017714D01*
X109418291Y-62776709D01*
X109177286Y-62615674D01*
X108964760Y-62573400D01*
X108271240Y-62573400D01*
X108058714Y-62615674D01*
X107817709Y-62776709D01*
X107656674Y-63017714D01*
X107600126Y-63302000D01*
X80541400Y-63302000D01*
X80541400Y-59431252D01*
X80769053Y-59203600D01*
X80902733Y-59203600D01*
X81097016Y-59123126D01*
X81191542Y-59028600D01*
X106306046Y-59028600D01*
X106400572Y-59123126D01*
X106594855Y-59203600D01*
X106805145Y-59203600D01*
X106999428Y-59123126D01*
X107148126Y-58974428D01*
X107228600Y-58780145D01*
X107228600Y-58569855D01*
X107148126Y-58375572D01*
X106999428Y-58226874D01*
X106805145Y-58146400D01*
X106594855Y-58146400D01*
X106400572Y-58226874D01*
X106306046Y-58321400D01*
X81191542Y-58321400D01*
X81097016Y-58226874D01*
X80902733Y-58146400D01*
X80891352Y-58146400D01*
X80903600Y-58084825D01*
X80903600Y-58084821D01*
X80910526Y-58050001D01*
X80903600Y-58015181D01*
X80903600Y-57718954D01*
X80943954Y-57678600D01*
X106306046Y-57678600D01*
X106400572Y-57773126D01*
X106594855Y-57853600D01*
X106805145Y-57853600D01*
X106999428Y-57773126D01*
X107148126Y-57624428D01*
X107228600Y-57430145D01*
X107228600Y-57219855D01*
X107148126Y-57025572D01*
X106999428Y-56876874D01*
X106805145Y-56796400D01*
X106594855Y-56796400D01*
X106400572Y-56876874D01*
X106306046Y-56971400D01*
X80943954Y-56971400D01*
X80849428Y-56876874D01*
X80655145Y-56796400D01*
X80444855Y-56796400D01*
X80250572Y-56876874D01*
X80101874Y-57025572D01*
X80021400Y-57219855D01*
X80021400Y-57430145D01*
X80101874Y-57624428D01*
X80196401Y-57718955D01*
X80196401Y-57903533D01*
X79103596Y-58996340D01*
X79074070Y-59016069D01*
X78995917Y-59133032D01*
X78975401Y-59236175D01*
X78975401Y-59236178D01*
X78968475Y-59270999D01*
X76503600Y-59270999D01*
X76503600Y-53236200D01*
X77134814Y-53236200D01*
X77340015Y-53476337D01*
X78062632Y-53788501D01*
X78849702Y-53800369D01*
X79581402Y-53510135D01*
X79631985Y-53476337D01*
X79837186Y-53236200D01*
X78486000Y-51885014D01*
X77134814Y-53236200D01*
X76503600Y-53236200D01*
X76503600Y-52184666D01*
X76791865Y-52911402D01*
X76825663Y-52961985D01*
X77065800Y-53167186D01*
X78416986Y-51816000D01*
X78555014Y-51816000D01*
X79906200Y-53167186D01*
X80146337Y-52961985D01*
X80297757Y-52611467D01*
X86075694Y-52611467D01*
X86075694Y-53052534D01*
X86094003Y-53156371D01*
X86244856Y-53570833D01*
X86244857Y-53570838D01*
X86278280Y-53628728D01*
X86297577Y-53662151D01*
X86297580Y-53662153D01*
X86581089Y-54000026D01*
X86661859Y-54067801D01*
X87043833Y-54288335D01*
X87043834Y-54288336D01*
X87043835Y-54288336D01*
X87068051Y-54297150D01*
X87142913Y-54324398D01*
X87142915Y-54324398D01*
X87574067Y-54400421D01*
X87600102Y-54405600D01*
X100359898Y-54405600D01*
X100385933Y-54400421D01*
X100817086Y-54324398D01*
X100817087Y-54324398D01*
X100853149Y-54311272D01*
X100916166Y-54288336D01*
X100916168Y-54288335D01*
X101298140Y-54067801D01*
X101378911Y-54000026D01*
X101662423Y-53662150D01*
X101715143Y-53570838D01*
X101715143Y-53570837D01*
X101865997Y-53156370D01*
X101884306Y-53052533D01*
X101884306Y-52611467D01*
X101865997Y-52507630D01*
X101715143Y-52093162D01*
X101662423Y-52001850D01*
X101662422Y-52001849D01*
X101378911Y-51663974D01*
X101298140Y-51596199D01*
X100916167Y-51375665D01*
X100916166Y-51375664D01*
X100853149Y-51352728D01*
X100817087Y-51339602D01*
X100817086Y-51339602D01*
X100385933Y-51263579D01*
X100359898Y-51258400D01*
X87600102Y-51258400D01*
X87574067Y-51263579D01*
X87142915Y-51339602D01*
X87142913Y-51339602D01*
X87070789Y-51365854D01*
X87043835Y-51375664D01*
X87043834Y-51375664D01*
X87043833Y-51375665D01*
X86661859Y-51596199D01*
X86611340Y-51638590D01*
X86581089Y-51663974D01*
X86297580Y-52001847D01*
X86297577Y-52001849D01*
X86278280Y-52035272D01*
X86244857Y-52093162D01*
X86244856Y-52093167D01*
X86094003Y-52507629D01*
X86094003Y-52507630D01*
X86075694Y-52611467D01*
X80297757Y-52611467D01*
X80458501Y-52239368D01*
X80470369Y-51452298D01*
X80180135Y-50720598D01*
X80146337Y-50670015D01*
X79906200Y-50464814D01*
X78555014Y-51816000D01*
X78416986Y-51816000D01*
X77065800Y-50464814D01*
X76825663Y-50670015D01*
X76513499Y-51392632D01*
X76503600Y-52049121D01*
X76503600Y-50826563D01*
X76566282Y-50471073D01*
X76733284Y-50181820D01*
X76989140Y-49967130D01*
X77315743Y-49848256D01*
X77483258Y-49833600D01*
X78117334Y-49833600D01*
X77390598Y-50121865D01*
X77390598Y-50121865D01*
G37*
X77390598Y-50121865D02*
X77340015Y-50155663D01*
X77134814Y-50395800D01*
X78486000Y-51746986D01*
X79837186Y-50395800D01*
X79631985Y-50155663D01*
X78909368Y-49843499D01*
X78252879Y-49833600D01*
X108834408Y-49833600D01*
X108297893Y-50055832D01*
X107713832Y-50639893D01*
X107397740Y-51403006D01*
X107397740Y-52228994D01*
X107713832Y-52992107D01*
X108297893Y-53576168D01*
X109061006Y-53892260D01*
X109886994Y-53892260D01*
X110650107Y-53576168D01*
X111234168Y-52992107D01*
X111456401Y-52455590D01*
X111456400Y-91617800D01*
X76503600Y-91617800D01*
X76503600Y-89823921D01*
X81547520Y-89823921D01*
X81641083Y-90049823D01*
X81836449Y-90256347D01*
X82095977Y-90372387D01*
X82209100Y-90331821D01*
X82209100Y-89710800D01*
X81588226Y-89710800D01*
X81547520Y-89823921D01*
X76503600Y-89823921D01*
X76503600Y-88553921D01*
X81547520Y-88553921D01*
X81641083Y-88779823D01*
X81836449Y-88986347D01*
X81927371Y-89027000D01*
X81836449Y-89067653D01*
X81641083Y-89274177D01*
X81547520Y-89500079D01*
X81588226Y-89613200D01*
X82209100Y-89613200D01*
X82209100Y-88440800D01*
X81588226Y-88440800D01*
X81547520Y-88553921D01*
X76503600Y-88553921D01*
X76503600Y-87283921D01*
X81547520Y-87283921D01*
X81641083Y-87509823D01*
X81836449Y-87716347D01*
X81927371Y-87757000D01*
X81836449Y-87797653D01*
X81641083Y-88004177D01*
X81547520Y-88230079D01*
X81588226Y-88343200D01*
X82209100Y-88343200D01*
X82209100Y-87170800D01*
X81588226Y-87170800D01*
X81547520Y-87283921D01*
X76503600Y-87283921D01*
X76503600Y-86013921D01*
X81547520Y-86013921D01*
X81641083Y-86239823D01*
X81836449Y-86446347D01*
X81927371Y-86487000D01*
X81836449Y-86527653D01*
X81641083Y-86734177D01*
X81547520Y-86960079D01*
X81588226Y-87073200D01*
X82209100Y-87073200D01*
X82209100Y-85900800D01*
X81588226Y-85900800D01*
X81547520Y-86013921D01*
X76503600Y-86013921D01*
X76503600Y-84082000D01*
X81524822Y-84082000D01*
X81524822Y-85082000D01*
X81542564Y-85171195D01*
X81593089Y-85246811D01*
X81668705Y-85297336D01*
X81757900Y-85315078D01*
X81782127Y-85315078D01*
X81641083Y-85464177D01*
X81547520Y-85690079D01*
X81588226Y-85803200D01*
X82209100Y-85803200D01*
X82209100Y-85783200D01*
X82306700Y-85783200D01*
X82306700Y-85803200D01*
X82326700Y-85803200D01*
X82326700Y-85900800D01*
X82306700Y-85900800D01*
X82306700Y-87073200D01*
X82326700Y-87073200D01*
X82326700Y-87170800D01*
X82306700Y-87170800D01*
X82306700Y-88343200D01*
X82326700Y-88343200D01*
X82326700Y-88440800D01*
X82306700Y-88440800D01*
X82306700Y-89613200D01*
X82326700Y-89613200D01*
X82326700Y-89710800D01*
X82306700Y-89710800D01*
X82306700Y-90331821D01*
X82419823Y-90372387D01*
X82679351Y-90256347D01*
X82874717Y-90049823D01*
X82888508Y-90016527D01*
X83002609Y-90187291D01*
X83243614Y-90348326D01*
X83456140Y-90390600D01*
X83599660Y-90390600D01*
X83812186Y-90348326D01*
X84053191Y-90187291D01*
X84214226Y-89946286D01*
X84270774Y-89662000D01*
X84214226Y-89377714D01*
X84053191Y-89136709D01*
X83889000Y-89027000D01*
X84053191Y-88917291D01*
X84214226Y-88676286D01*
X84270774Y-88392000D01*
X84214226Y-88107714D01*
X84053191Y-87866709D01*
X83889000Y-87757000D01*
X84053191Y-87647291D01*
X84214226Y-87406286D01*
X84270774Y-87122000D01*
X84214226Y-86837714D01*
X84053191Y-86596709D01*
X83889000Y-86487000D01*
X84053191Y-86377291D01*
X84214226Y-86136286D01*
X84270774Y-85852000D01*
X84254594Y-85770660D01*
X84736400Y-86252466D01*
X84736401Y-87831307D01*
X84736400Y-87831312D01*
X84736400Y-87896446D01*
X84641874Y-87990972D01*
X84561400Y-88185255D01*
X84561400Y-88395545D01*
X84641874Y-88589828D01*
X84790572Y-88738526D01*
X84984855Y-88819000D01*
X85195145Y-88819000D01*
X85389428Y-88738526D01*
X85538126Y-88589828D01*
X85618600Y-88395545D01*
X85618600Y-88185255D01*
X85538126Y-87990972D01*
X85443600Y-87896446D01*
X85443600Y-86140819D01*
X85450526Y-86105999D01*
X85443600Y-86071179D01*
X85443600Y-86071175D01*
X85423084Y-85968032D01*
X85378160Y-85900800D01*
X85364657Y-85880591D01*
X85364655Y-85880589D01*
X85344930Y-85851069D01*
X85315410Y-85831344D01*
X84236811Y-84752746D01*
X84270774Y-84582000D01*
X84214226Y-84297714D01*
X84053191Y-84056709D01*
X83812186Y-83895674D01*
X83599660Y-83853400D01*
X83456140Y-83853400D01*
X83243614Y-83895674D01*
X83002609Y-84056709D01*
X82989770Y-84075925D01*
X82973236Y-83992805D01*
X82922711Y-83917189D01*
X82847095Y-83866664D01*
X82775618Y-83852446D01*
X85502466Y-81125600D01*
X96862546Y-81125600D01*
X96951700Y-81214754D01*
X96951701Y-84234763D01*
X96945730Y-84264782D01*
X96969385Y-84383708D01*
X97019748Y-84459082D01*
X97019751Y-84459085D01*
X97036753Y-84484530D01*
X97062198Y-84501532D01*
X101300000Y-88739335D01*
X101300000Y-88942027D01*
X101380474Y-89136310D01*
X101529172Y-89285008D01*
X101723455Y-89365482D01*
X101933745Y-89365482D01*
X102128028Y-89285008D01*
X102276726Y-89136310D01*
X102357200Y-88942027D01*
X102357200Y-88731737D01*
X102276726Y-88537454D01*
X102128028Y-88388756D01*
X101933745Y-88308282D01*
X101731053Y-88308282D01*
X97561300Y-84138530D01*
X97561300Y-81214754D01*
X97704626Y-81071428D01*
X97785100Y-80877145D01*
X97785100Y-80666855D01*
X97704626Y-80472572D01*
X97555928Y-80323874D01*
X97361645Y-80243400D01*
X97151355Y-80243400D01*
X96957072Y-80323874D01*
X96862546Y-80418400D01*
X93022969Y-80418400D01*
X93111026Y-80381926D01*
X93259724Y-80233228D01*
X93340198Y-80038945D01*
X93340198Y-79828655D01*
X93259724Y-79634372D01*
X93165198Y-79539846D01*
X93165198Y-75247441D01*
X98349800Y-75247441D01*
X98349800Y-75496559D01*
X98445133Y-75726714D01*
X98621286Y-75902867D01*
X98851441Y-75998200D01*
X98999463Y-75998200D01*
X101427800Y-78426538D01*
X101427801Y-82192519D01*
X101348633Y-82271687D01*
X101253300Y-82501842D01*
X101253300Y-82750960D01*
X101348633Y-82981115D01*
X101524786Y-83157268D01*
X101754941Y-83252601D01*
X102004059Y-83252601D01*
X102234214Y-83157268D01*
X102410367Y-82981115D01*
X102505700Y-82750960D01*
X102505700Y-82501842D01*
X102410367Y-82271687D01*
X102280200Y-82141520D01*
X102280200Y-80663818D01*
X109328600Y-80663818D01*
X109328600Y-80933782D01*
X109431910Y-81183196D01*
X109622804Y-81374090D01*
X109872218Y-81477400D01*
X110142182Y-81477400D01*
X110391596Y-81374090D01*
X110582490Y-81183196D01*
X110685800Y-80933782D01*
X110685800Y-80663818D01*
X110582490Y-80414404D01*
X110391596Y-80223510D01*
X110142182Y-80120200D01*
X109872218Y-80120200D01*
X109622804Y-80223510D01*
X109431910Y-80414404D01*
X109328600Y-80663818D01*
X102280200Y-80663818D01*
X102280200Y-78291973D01*
X102288549Y-78250000D01*
X102255471Y-78083705D01*
X102161273Y-77942727D01*
X102125688Y-77918950D01*
X101870556Y-77663818D01*
X109328600Y-77663818D01*
X109328600Y-77933782D01*
X109431910Y-78183196D01*
X109622804Y-78374090D01*
X109872218Y-78477400D01*
X110142182Y-78477400D01*
X110391596Y-78374090D01*
X110582490Y-78183196D01*
X110685800Y-77933782D01*
X110685800Y-77663818D01*
X110582490Y-77414404D01*
X110391596Y-77223510D01*
X110142182Y-77120200D01*
X109872218Y-77120200D01*
X109622804Y-77223510D01*
X109431910Y-77414404D01*
X109328600Y-77663818D01*
X101870556Y-77663818D01*
X99602200Y-75395463D01*
X99602200Y-75247441D01*
X99506867Y-75017286D01*
X99330714Y-74841133D01*
X99100559Y-74745800D01*
X98851441Y-74745800D01*
X98621286Y-74841133D01*
X98445133Y-75017286D01*
X98349800Y-75247441D01*
X93165198Y-75247441D01*
X93165198Y-70646823D01*
X93172125Y-70611998D01*
X93144682Y-70474030D01*
X93086256Y-70386590D01*
X93086253Y-70386587D01*
X93066528Y-70357067D01*
X93037008Y-70337342D01*
X93001666Y-70302000D01*
X107600126Y-70302000D01*
X107656674Y-70586286D01*
X107817709Y-70827291D01*
X108058714Y-70988326D01*
X108271240Y-71030600D01*
X108964760Y-71030600D01*
X109177286Y-70988326D01*
X109418291Y-70827291D01*
X109579326Y-70586286D01*
X109635874Y-70302000D01*
X109579326Y-70017714D01*
X109418291Y-69776709D01*
X109177286Y-69615674D01*
X108964760Y-69573400D01*
X108271240Y-69573400D01*
X108058714Y-69615674D01*
X107817709Y-69776709D01*
X107656674Y-70017714D01*
X107600126Y-70302000D01*
X93001666Y-70302000D01*
X91782370Y-69082705D01*
X105214400Y-69082705D01*
X105214400Y-69521296D01*
X105255224Y-69726531D01*
X105410734Y-69959267D01*
X105643470Y-70114776D01*
X105918000Y-70169384D01*
X106192531Y-70114776D01*
X106425267Y-69959267D01*
X106580776Y-69726531D01*
X106621600Y-69521295D01*
X106621600Y-69082704D01*
X106580776Y-68877469D01*
X106425266Y-68644733D01*
X106192530Y-68489224D01*
X105918000Y-68434616D01*
X105643469Y-68489224D01*
X105410733Y-68644734D01*
X105255224Y-68877470D01*
X105214400Y-69082705D01*
X91782370Y-69082705D01*
X91689200Y-68989536D01*
X91689200Y-68855855D01*
X91608726Y-68661572D01*
X91460028Y-68512874D01*
X91265745Y-68432400D01*
X91055455Y-68432400D01*
X90861172Y-68512874D01*
X90712474Y-68661572D01*
X90632000Y-68855855D01*
X90632000Y-69066145D01*
X90712474Y-69260428D01*
X90861172Y-69409126D01*
X90980322Y-69458479D01*
X90810372Y-69528874D01*
X90661674Y-69677572D01*
X90581200Y-69871855D01*
X90581200Y-70082145D01*
X90661674Y-70276428D01*
X90810372Y-70425126D01*
X91004655Y-70505600D01*
X91138335Y-70505600D01*
X91645200Y-71012466D01*
X91645201Y-79449303D01*
X91645200Y-79449308D01*
X91645200Y-79514442D01*
X91550674Y-79608968D01*
X91470200Y-79803251D01*
X91470200Y-80013541D01*
X91550674Y-80207824D01*
X91699372Y-80356522D01*
X91848760Y-80418400D01*
X85390825Y-80418400D01*
X85356000Y-80411473D01*
X85218032Y-80438916D01*
X85184639Y-80461229D01*
X85101069Y-80517069D01*
X85081342Y-80546592D01*
X82070595Y-83557341D01*
X82041070Y-83577069D01*
X81985848Y-83659713D01*
X81962916Y-83694033D01*
X81935474Y-83832000D01*
X81938840Y-83848922D01*
X81757900Y-83848922D01*
X81668705Y-83866664D01*
X81593089Y-83917189D01*
X81542564Y-83992805D01*
X81524822Y-84082000D01*
X76503600Y-84082000D01*
X76503600Y-59270999D01*
X78968475Y-59270999D01*
X78975401Y-59305820D01*
X78975402Y-77922575D01*
X78968475Y-77957401D01*
X78995917Y-78095368D01*
X78995918Y-78095369D01*
X79074071Y-78212332D01*
X79103596Y-78232060D01*
X82351600Y-81480066D01*
X82351600Y-81588345D01*
X82432074Y-81782628D01*
X82580772Y-81931326D01*
X82775055Y-82011800D01*
X82985345Y-82011800D01*
X83179628Y-81931326D01*
X83328326Y-81782628D01*
X83408800Y-81588345D01*
X83408800Y-81378055D01*
X83397698Y-81351252D01*
X83418972Y-81372526D01*
X83613255Y-81453000D01*
X83823545Y-81453000D01*
X84017828Y-81372526D01*
X84166526Y-81223828D01*
X84247000Y-81029545D01*
X84247000Y-80819255D01*
X84166526Y-80624972D01*
X84017828Y-80476274D01*
X83823545Y-80395800D01*
X83664466Y-80395800D01*
X80541400Y-77272736D01*
X80541400Y-64082705D01*
X105214400Y-64082705D01*
X105214400Y-64521296D01*
X105255224Y-64726531D01*
X105410734Y-64959267D01*
X105643470Y-65114776D01*
X105918000Y-65169384D01*
X106192531Y-65114776D01*
X106425267Y-64959267D01*
X106580776Y-64726531D01*
X106621600Y-64521295D01*
X106621600Y-64082704D01*
X106580776Y-63877469D01*
X106425266Y-63644733D01*
X106192530Y-63489224D01*
X105918000Y-63434616D01*
X105643469Y-63489224D01*
X105410733Y-63644734D01*
X105255224Y-63877470D01*
X105214400Y-64082705D01*
X80541400Y-64082705D01*
X80541400Y-63302000D01*
X107600126Y-63302000D01*
X107656674Y-63586286D01*
X107817709Y-63827291D01*
X108058714Y-63988326D01*
X108271240Y-64030600D01*
X108964760Y-64030600D01*
X109177286Y-63988326D01*
X109418291Y-63827291D01*
X109579326Y-63586286D01*
X109635874Y-63302000D01*
X109579326Y-63017714D01*
X109418291Y-62776709D01*
X109177286Y-62615674D01*
X108964760Y-62573400D01*
X108271240Y-62573400D01*
X108058714Y-62615674D01*
X107817709Y-62776709D01*
X107656674Y-63017714D01*
X107600126Y-63302000D01*
X80541400Y-63302000D01*
X80541400Y-59431252D01*
X80769053Y-59203600D01*
X80902733Y-59203600D01*
X81097016Y-59123126D01*
X81191542Y-59028600D01*
X106306046Y-59028600D01*
X106400572Y-59123126D01*
X106594855Y-59203600D01*
X106805145Y-59203600D01*
X106999428Y-59123126D01*
X107148126Y-58974428D01*
X107228600Y-58780145D01*
X107228600Y-58569855D01*
X107148126Y-58375572D01*
X106999428Y-58226874D01*
X106805145Y-58146400D01*
X106594855Y-58146400D01*
X106400572Y-58226874D01*
X106306046Y-58321400D01*
X81191542Y-58321400D01*
X81097016Y-58226874D01*
X80902733Y-58146400D01*
X80891352Y-58146400D01*
X80903600Y-58084825D01*
X80903600Y-58084821D01*
X80910526Y-58050001D01*
X80903600Y-58015181D01*
X80903600Y-57718954D01*
X80943954Y-57678600D01*
X106306046Y-57678600D01*
X106400572Y-57773126D01*
X106594855Y-57853600D01*
X106805145Y-57853600D01*
X106999428Y-57773126D01*
X107148126Y-57624428D01*
X107228600Y-57430145D01*
X107228600Y-57219855D01*
X107148126Y-57025572D01*
X106999428Y-56876874D01*
X106805145Y-56796400D01*
X106594855Y-56796400D01*
X106400572Y-56876874D01*
X106306046Y-56971400D01*
X80943954Y-56971400D01*
X80849428Y-56876874D01*
X80655145Y-56796400D01*
X80444855Y-56796400D01*
X80250572Y-56876874D01*
X80101874Y-57025572D01*
X80021400Y-57219855D01*
X80021400Y-57430145D01*
X80101874Y-57624428D01*
X80196401Y-57718955D01*
X80196401Y-57903533D01*
X79103596Y-58996340D01*
X79074070Y-59016069D01*
X78995917Y-59133032D01*
X78975401Y-59236175D01*
X78975401Y-59236178D01*
X78968475Y-59270999D01*
X76503600Y-59270999D01*
X76503600Y-53236200D01*
X77134814Y-53236200D01*
X77340015Y-53476337D01*
X78062632Y-53788501D01*
X78849702Y-53800369D01*
X79581402Y-53510135D01*
X79631985Y-53476337D01*
X79837186Y-53236200D01*
X78486000Y-51885014D01*
X77134814Y-53236200D01*
X76503600Y-53236200D01*
X76503600Y-52184666D01*
X76791865Y-52911402D01*
X76825663Y-52961985D01*
X77065800Y-53167186D01*
X78416986Y-51816000D01*
X78555014Y-51816000D01*
X79906200Y-53167186D01*
X80146337Y-52961985D01*
X80297757Y-52611467D01*
X86075694Y-52611467D01*
X86075694Y-53052534D01*
X86094003Y-53156371D01*
X86244856Y-53570833D01*
X86244857Y-53570838D01*
X86278280Y-53628728D01*
X86297577Y-53662151D01*
X86297580Y-53662153D01*
X86581089Y-54000026D01*
X86661859Y-54067801D01*
X87043833Y-54288335D01*
X87043834Y-54288336D01*
X87043835Y-54288336D01*
X87068051Y-54297150D01*
X87142913Y-54324398D01*
X87142915Y-54324398D01*
X87574067Y-54400421D01*
X87600102Y-54405600D01*
X100359898Y-54405600D01*
X100385933Y-54400421D01*
X100817086Y-54324398D01*
X100817087Y-54324398D01*
X100853149Y-54311272D01*
X100916166Y-54288336D01*
X100916168Y-54288335D01*
X101298140Y-54067801D01*
X101378911Y-54000026D01*
X101662423Y-53662150D01*
X101715143Y-53570838D01*
X101715143Y-53570837D01*
X101865997Y-53156370D01*
X101884306Y-53052533D01*
X101884306Y-52611467D01*
X101865997Y-52507630D01*
X101715143Y-52093162D01*
X101662423Y-52001850D01*
X101662422Y-52001849D01*
X101378911Y-51663974D01*
X101298140Y-51596199D01*
X100916167Y-51375665D01*
X100916166Y-51375664D01*
X100853149Y-51352728D01*
X100817087Y-51339602D01*
X100817086Y-51339602D01*
X100385933Y-51263579D01*
X100359898Y-51258400D01*
X87600102Y-51258400D01*
X87574067Y-51263579D01*
X87142915Y-51339602D01*
X87142913Y-51339602D01*
X87070789Y-51365854D01*
X87043835Y-51375664D01*
X87043834Y-51375664D01*
X87043833Y-51375665D01*
X86661859Y-51596199D01*
X86611340Y-51638590D01*
X86581089Y-51663974D01*
X86297580Y-52001847D01*
X86297577Y-52001849D01*
X86278280Y-52035272D01*
X86244857Y-52093162D01*
X86244856Y-52093167D01*
X86094003Y-52507629D01*
X86094003Y-52507630D01*
X86075694Y-52611467D01*
X80297757Y-52611467D01*
X80458501Y-52239368D01*
X80470369Y-51452298D01*
X80180135Y-50720598D01*
X80146337Y-50670015D01*
X79906200Y-50464814D01*
X78555014Y-51816000D01*
X78416986Y-51816000D01*
X77065800Y-50464814D01*
X76825663Y-50670015D01*
X76513499Y-51392632D01*
X76503600Y-52049121D01*
X76503600Y-50826563D01*
X76566282Y-50471073D01*
X76733284Y-50181820D01*
X76989140Y-49967130D01*
X77315743Y-49848256D01*
X77483258Y-49833600D01*
X78117334Y-49833600D01*
X77390598Y-50121865D01*
G04 #@! TD*
M02*
